<svg width="99" height="99" viewBox="0 0 99 99" fill="none" xmlns="http://www.w3.org/2000/svg">
<path d="M46.8033 2.93591C48.2526 1.79924 50.2908 1.79924 51.7402 2.93591L55.9841 6.26422C56.986 7.05 58.3022 7.31181 59.5286 6.96927L64.7231 5.51838C66.4971 5.02287 68.3802 5.80286 69.2842 7.40765L71.9314 12.1067C72.5563 13.2161 73.6722 13.9616 74.9363 14.1145L80.2906 14.7619C82.1192 14.983 83.5604 16.4242 83.7815 18.2528L84.429 23.6072C84.5818 24.8713 85.3274 25.9871 86.4368 26.6121L91.1358 29.2592C92.7406 30.1633 93.5206 32.0463 93.0251 33.8203L91.5742 39.0149C91.2316 40.2412 91.4934 41.5574 92.2792 42.5594L95.6075 46.8033C96.7442 48.2526 96.7442 50.2908 95.6075 51.7402L92.2792 55.9841C91.4934 56.986 91.2316 58.3022 91.5742 59.5286L93.0251 64.7231C93.5206 66.4971 92.7406 68.3802 91.1358 69.2842L86.4368 71.9314C85.3274 72.5563 84.5818 73.6722 84.429 74.9363L83.7815 80.2906C83.5604 82.1192 82.1192 83.5604 80.2906 83.7815L74.9363 84.429C73.6722 84.5818 72.5563 85.3274 71.9314 86.4368L69.2842 91.1358C68.3802 92.7406 66.4971 93.5206 64.7231 93.0251L59.5286 91.5742C58.3022 91.2316 56.986 91.4934 55.9841 92.2792L51.7402 95.6075C50.2908 96.7442 48.2526 96.7442 46.8033 95.6075L42.5594 92.2792C41.5574 91.4934 40.2412 91.2316 39.0149 91.5742L33.8203 93.0251C32.0463 93.5206 30.1633 92.7406 29.2592 91.1358L26.6121 86.4368C25.9871 85.3274 24.8713 84.5818 23.6072 84.429L18.2528 83.7815C16.4242 83.5604 14.983 82.1192 14.7619 80.2906L14.1145 74.9363C13.9616 73.6722 13.2161 72.5563 12.1067 71.9314L7.40765 69.2842C5.80286 68.3802 5.02287 66.4971 5.51838 64.7231L6.96927 59.5286C7.31181 58.3022 7.05 56.986 6.26422 55.9841L2.93591 51.7402C1.79924 50.2908 1.79924 48.2526 2.93591 46.8033L6.26422 42.5594C7.05 41.5574 7.31181 40.2412 6.96927 39.0149L5.51838 33.8203C5.02287 32.0463 5.80286 30.1633 7.40765 29.2592L12.1067 26.6121C13.2161 25.9871 13.9616 24.8713 14.1145 23.6072L14.7619 18.2528C14.983 16.4242 16.4242 14.983 18.2528 14.7619L23.6072 14.1145C24.8713 13.9616 25.9871 13.2161 26.6121 12.1067L29.2592 7.40765C30.1633 5.80286 32.0463 5.02287 33.8203 5.51838L39.0149 6.96927C40.2412 7.31181 41.5574 7.05 42.5594 6.26422L46.8033 2.93591Z" fill="#0066FF"/>
<path d="M52.2701 2.26017C50.5096 0.879464 48.0338 0.879465 46.2733 2.26017L42.0294 5.58848C41.2426 6.20556 40.209 6.41116 39.2459 6.14216L34.0513 4.69127C31.8965 4.08938 29.6091 5.03683 28.511 6.98615L25.8639 11.6852C25.3731 12.5564 24.4968 13.1419 23.5041 13.2619L18.1497 13.9093C15.9285 14.1779 14.1779 15.9285 13.9093 18.1497L13.2619 23.5041C13.1419 24.4968 12.5564 25.3731 11.6852 25.8639L6.98615 28.511C5.03683 29.6091 4.08938 31.8965 4.69127 34.0513L6.14216 39.2459C6.41116 40.209 6.20556 41.2426 5.58848 42.0294L2.26017 46.2733C0.879464 48.0338 0.879465 50.5096 2.26017 52.2701L5.58848 56.514C6.20556 57.3009 6.41116 58.3345 6.14216 59.2976L4.69127 64.4921C4.08938 66.647 5.03683 68.9343 6.98615 70.0324L11.6852 72.6796C12.5564 73.1704 13.1419 74.0466 13.2619 75.0394L13.9093 80.3937C14.1779 82.6149 15.9285 84.3655 18.1497 84.6341L23.5041 85.2815C24.4968 85.4016 25.3731 85.987 25.8639 86.8583L28.511 91.5573C29.6091 93.5066 31.8965 94.454 34.0513 93.8522L39.2459 92.4013C40.209 92.1323 41.2426 92.3379 42.0294 92.955L46.2733 96.2833C48.0338 97.664 50.5096 97.664 52.2701 96.2833L56.514 92.955C57.3008 92.3379 58.3345 92.1323 59.2976 92.4013L64.4921 93.8522C66.647 94.4541 68.9343 93.5066 70.0324 91.5573L72.6796 86.8583C73.1704 85.987 74.0466 85.4016 75.0394 85.2815L80.3937 84.6341C82.6149 84.3655 84.3655 82.6149 84.6341 80.3937L85.2815 75.0394C85.4016 74.0466 85.987 73.1704 86.8583 72.6796L91.5573 70.0324C93.5066 68.9343 94.4541 66.647 93.8522 64.4921L92.4013 59.2976C92.1323 58.3345 92.3379 57.3008 92.955 56.514L96.2833 52.2701C97.664 50.5096 97.664 48.0338 96.2833 46.2733L92.955 42.0294C92.3379 41.2426 92.1323 40.209 92.4013 39.2459L93.8522 34.0513C94.454 31.8965 93.5066 29.6091 91.5573 28.511L86.8583 25.8639C85.987 25.3731 85.4016 24.4968 85.2815 23.5041L84.6341 18.1497C84.3655 15.9285 82.6149 14.1779 80.3937 13.9093L75.0394 13.2619C74.0466 13.1419 73.1704 12.5564 72.6796 11.6852L70.0324 6.98615C68.9343 5.03682 66.647 4.08938 64.4921 4.69127L59.2976 6.14216C58.3345 6.41116 57.3009 6.20556 56.514 5.58848L52.2701 2.26017Z" stroke="#0066FF" stroke-opacity="0.2" stroke-width="1.71753"/>
<path d="M38.0117 25.5278C37.8789 26.276 37.5712 26.8975 37.0885 27.3923C36.6057 27.8871 36.0265 28.231 35.3507 28.4241C35.9541 28.5569 36.4308 28.8525 36.7807 29.3111C37.1307 29.7697 37.3057 30.3067 37.3057 30.9222C37.3057 31.1153 37.2876 31.3023 37.2514 31.4833C37.0704 32.5453 36.5514 33.3901 35.6946 34.0176C34.8378 34.6331 33.7456 34.9408 32.4182 34.9408H26.4988L28.7435 22.2333H34.4637C35.6101 22.2333 36.4971 22.4686 37.1247 22.9392C37.7522 23.4099 38.066 24.0616 38.066 24.8942C38.066 25.0994 38.0479 25.3106 38.0117 25.5278ZM32.9431 27.3923C33.462 27.3923 33.8784 27.2777 34.1922 27.0484C34.5059 26.8191 34.699 26.4872 34.7714 26.0528C34.7835 25.9804 34.7895 25.8838 34.7895 25.7631C34.7895 25.4132 34.6749 25.1477 34.4456 24.9667C34.2163 24.7736 33.8784 24.677 33.4319 24.677H31.4045L30.9338 27.3923H32.9431ZM34.174 31.067C34.1982 30.9222 34.2103 30.8136 34.2103 30.7412C34.2103 30.3912 34.0835 30.1197 33.8301 29.9266C33.5767 29.7214 33.2267 29.6188 32.7802 29.6188H30.5356L30.0287 32.4789H32.3096C32.8405 32.4789 33.2629 32.3583 33.5767 32.1169C33.8905 31.8755 34.0896 31.5256 34.174 31.067Z" fill="white"/>
<path d="M44.0911 24.677L43.6386 27.3199H47.7839L47.3675 29.655H43.2222L42.7154 32.497H47.4038L46.9693 34.9408H39.1855L41.4301 22.2333H49.2139L48.7795 24.677H44.0911Z" fill="white"/>
<path d="M54.7836 35.0675C53.4078 35.0675 52.2855 34.7718 51.4166 34.1805C50.5598 33.5771 50.1314 32.7263 50.1314 31.6281C50.1314 31.5195 50.1435 31.3566 50.1676 31.1394H53.3897C53.3535 31.598 53.4621 31.96 53.7156 32.2255C53.969 32.491 54.3552 32.6238 54.8741 32.6238C55.3447 32.6238 55.7128 32.5212 55.9783 32.316C56.2559 32.1109 56.3946 31.8212 56.3946 31.4471C56.3946 31.061 56.2197 30.7472 55.8697 30.5058C55.5318 30.2645 55.0008 29.9929 54.2767 29.6912C53.5768 29.4016 53.0036 29.1301 52.557 28.8767C52.1226 28.6112 51.7425 28.2552 51.4166 27.8086C51.0908 27.3621 50.9279 26.801 50.9279 26.1252C50.9158 25.2925 51.121 24.5684 51.5433 23.9529C51.9657 23.3375 52.551 22.8668 53.2992 22.541C54.0474 22.2152 54.9043 22.0522 55.8697 22.0522C56.7386 22.0522 57.5109 22.191 58.1867 22.4686C58.8625 22.7341 59.3875 23.1263 59.7616 23.6452C60.1357 24.1521 60.3228 24.7555 60.3228 25.4554C60.3228 25.6364 60.3167 25.7692 60.3046 25.8536H57.0101C57.0222 25.8054 57.0282 25.733 57.0282 25.6364C57.0282 25.2985 56.9075 25.027 56.6662 24.8218C56.4369 24.6046 56.1171 24.496 55.7068 24.496C55.2723 24.496 54.9163 24.6046 54.6388 24.8218C54.3733 25.027 54.2405 25.3106 54.2405 25.6726C54.2405 26.0347 54.4095 26.3424 54.7474 26.5958C55.0853 26.8372 55.6102 27.1208 56.3222 27.4466C57.0342 27.7724 57.6135 28.0741 58.06 28.3517C58.5186 28.6293 58.9108 29.0034 59.2366 29.474C59.5625 29.9326 59.7254 30.4998 59.7254 31.1756C59.7254 31.9238 59.5263 32.5936 59.128 33.1849C58.7298 33.7762 58.1566 34.2409 57.4083 34.5788C56.6601 34.9046 55.7852 35.0675 54.7836 35.0675Z" fill="white"/>
<path d="M73.1341 22.2333L72.7178 24.677H69.3327L67.5225 34.9408H64.4271L66.2373 24.677H62.8704L63.3048 22.2333H73.1341Z" fill="white"/>
<path d="M22.681 54.6779C21.3053 54.6779 20.1829 54.3822 19.314 53.7909C18.4572 53.1875 18.0288 52.3367 18.0288 51.2385C18.0288 51.1299 18.0409 50.967 18.065 50.7498H21.2871C21.2509 51.2084 21.3596 51.5704 21.613 51.8359C21.8664 52.1014 22.2526 52.2341 22.7715 52.2341C23.2422 52.2341 23.6102 52.1316 23.8757 51.9264C24.1533 51.7212 24.2921 51.4316 24.2921 51.0575C24.2921 50.6713 24.1171 50.3576 23.7671 50.1162C23.4292 49.8749 22.8982 49.6033 22.1741 49.3016C21.4742 49.012 20.901 48.7405 20.4545 48.487C20.02 48.2215 19.6399 47.8655 19.314 47.419C18.9882 46.9725 18.8253 46.4114 18.8253 45.7356C18.8132 44.9029 19.0184 44.1788 19.4408 43.5633C19.8631 42.9479 20.4484 42.4772 21.1966 42.1514C21.9449 41.8255 22.8017 41.6626 23.7671 41.6626C24.636 41.6626 25.4083 41.8014 26.0842 42.079C26.76 42.3445 27.2849 42.7367 27.659 43.2556C28.0331 43.7624 28.2202 44.3658 28.2202 45.0658C28.2202 45.2468 28.2141 45.3796 28.2021 45.464H24.9075C24.9196 45.4158 24.9256 45.3433 24.9256 45.2468C24.9256 44.9089 24.805 44.6374 24.5636 44.4322C24.3343 44.215 24.0145 44.1064 23.6042 44.1064C23.1697 44.1064 22.8137 44.215 22.5362 44.4322C22.2707 44.6374 22.1379 44.921 22.1379 45.283C22.1379 45.645 22.3069 45.9528 22.6448 46.2062C22.9827 46.4476 23.5076 46.7312 24.2197 47.057C24.9317 47.3828 25.5109 47.6845 25.9574 47.9621C26.416 48.2397 26.8082 48.6138 27.1341 49.0844C27.4599 49.543 27.6228 50.1102 27.6228 50.786C27.6228 51.5342 27.4237 52.204 27.0255 52.7953C26.6272 53.3866 26.054 53.8512 25.3058 54.1891C24.5576 54.515 23.6826 54.6779 22.681 54.6779Z" fill="white"/>
<path d="M34.5511 44.2874L34.0985 46.9303H38.2439L37.8275 49.2654H33.6822L33.1753 52.1074H37.8637L37.4293 54.5512H29.6455L31.8901 41.8436H39.6739L39.2395 44.2874H34.5511Z" fill="white"/>
<path d="M43.7049 52.1979H47.7597L47.3434 54.5512H40.1931L42.4378 41.8436H45.5332L43.7049 52.1979Z" fill="white"/>
<path d="M53.0858 52.1979H57.1406L56.7243 54.5512H49.574L51.8187 41.8436H54.9141L53.0858 52.1979Z" fill="white"/>
<path d="M63.8606 44.2874L63.408 46.9303H67.5534L67.137 49.2654H62.9917L62.4848 52.1074H67.1732L66.7388 54.5512H58.955L61.1996 41.8436H68.9834L68.549 44.2874H63.8606Z" fill="white"/>
<path d="M76.9425 41.8436C78.2579 41.8436 79.2595 42.1453 79.9474 42.7487C80.6353 43.3401 80.9792 44.1124 80.9792 45.0658C80.9792 45.3433 80.9551 45.6028 80.9068 45.8442C80.762 46.6889 80.3939 47.4432 79.8026 48.1069C79.2113 48.7706 78.4208 49.2413 77.4313 49.5189L79.4768 54.5512H75.9831L74.191 49.7542H73.4488L72.5981 54.5512H69.5026L71.7473 41.8436H76.9425ZM77.739 45.9709C77.7631 45.7778 77.7752 45.6511 77.7752 45.5907C77.7752 45.2046 77.6485 44.9089 77.3951 44.7037C77.1537 44.4865 76.7917 44.3779 76.3089 44.3779H74.3901L73.829 47.5638H75.7478C76.315 47.5638 76.7615 47.4251 77.0873 47.1475C77.4252 46.8699 77.6424 46.4777 77.739 45.9709Z" fill="white"/>
<path fill-rule="evenodd" clip-rule="evenodd" d="M54.7711 75.6796C52.1257 77.6417 48.278 78.6872 44.9593 78.6872C40.3099 78.6872 36.1415 76.9663 32.9671 74.1034C32.7266 73.8783 32.935 73.5727 33.2396 73.7496C36.6545 75.7439 40.871 76.9341 45.2318 76.9341C48.1657 76.9341 51.4043 76.3229 54.3863 75.0524C54.8352 74.8754 55.2039 75.3579 54.7711 75.6796Z" fill="#FF9900"/>
<path fill-rule="evenodd" clip-rule="evenodd" d="M55.8771 74.4088C55.5404 73.9745 53.6326 74.1997 52.7829 74.3123C52.5264 74.3445 52.4783 74.1193 52.7187 73.9585C54.2418 72.8809 56.7268 73.2025 57.0154 73.5564C57.304 73.9102 56.9352 76.4192 55.5084 77.6093C55.2839 77.7863 55.0755 77.6898 55.1717 77.4485C55.4923 76.6444 56.2138 74.8591 55.8771 74.4088Z" fill="#FF9900"/>
<path fill-rule="evenodd" clip-rule="evenodd" d="M52.8309 66.3995V65.3541C52.8309 65.1933 52.9431 65.0968 53.0874 65.0968H57.7368C57.8811 65.0968 58.0094 65.2094 58.0094 65.3541V66.2387C58.0094 66.3834 57.8811 66.5764 57.6567 66.8981L55.2518 70.3399C56.1496 70.3238 57.0955 70.4525 57.8971 70.9028C58.0735 70.9993 58.1216 71.1601 58.1376 71.3049V72.4146C58.1376 72.5755 57.9773 72.7524 57.8009 72.6559C56.3741 71.9 54.4662 71.8196 52.8951 72.672C52.7347 72.7524 52.5584 72.5915 52.5584 72.4307V71.3692C52.5584 71.2084 52.5584 70.9189 52.7347 70.6616L55.5244 66.6568H53.1035C52.9592 66.6568 52.8309 66.5443 52.8309 66.3995ZM35.8847 72.881H34.4739C34.3456 72.865 34.2334 72.7685 34.2174 72.6398V65.3702C34.2174 65.2254 34.3456 65.1129 34.4899 65.1129H35.8046C35.9489 65.1129 36.0451 65.2254 36.0611 65.3541V66.303H36.0932C36.4298 65.3863 37.0872 64.952 37.9529 64.952C38.8347 64.952 39.3958 65.3863 39.7806 66.303C40.1173 65.3863 40.9029 64.952 41.7365 64.952C42.3297 64.952 42.971 65.1933 43.3718 65.7562C43.8207 66.3673 43.7246 67.2519 43.7246 68.04V72.6398C43.7246 72.7845 43.5963 72.8971 43.452 72.8971H42.0572C41.9129 72.881 41.8007 72.7685 41.8007 72.6398V68.7798C41.8007 68.4742 41.8327 67.7023 41.7686 67.4128C41.6564 66.9303 41.3518 66.7855 40.9349 66.7855C40.5982 66.7855 40.2295 67.0107 40.0852 67.3806C39.9409 67.7505 39.957 68.3617 39.957 68.7798V72.6398C39.957 72.7845 39.8287 72.8971 39.6844 72.8971H38.2736C38.1293 72.881 38.017 72.7685 38.017 72.6398V68.7798C38.017 67.9757 38.1453 66.7694 37.1513 66.7694C36.1413 66.7694 36.1733 67.9274 36.1733 68.7798V72.6398C36.1573 72.7685 36.0451 72.881 35.8847 72.881ZM62.0175 64.952C64.1177 64.952 65.256 66.7533 65.256 69.0532C65.256 71.2727 64.0055 73.0419 62.0175 73.0419C59.9653 73.0419 58.8431 71.2406 58.8431 68.9889C58.827 66.7212 59.9653 64.952 62.0175 64.952ZM62.0175 66.4478C60.9753 66.4478 60.9112 67.8792 60.9112 68.7637C60.9112 69.6483 60.8952 71.5461 62.0014 71.5461C63.0916 71.5461 63.1558 70.0182 63.1558 69.0854C63.1558 68.4743 63.1237 67.7344 62.9473 67.1554C62.787 66.6408 62.4664 66.4478 62.0175 66.4478ZM67.9655 72.881H66.5546C66.4103 72.865 66.2981 72.7524 66.2981 72.6237V65.338C66.3141 65.2094 66.4263 65.0968 66.5706 65.0968H67.8853C68.0135 65.0968 68.1097 65.1933 68.1418 65.3059V66.4156H68.1739C68.5747 65.4184 69.1198 64.952 70.0978 64.952C70.723 64.952 71.3483 65.1772 71.7491 65.8044C72.1178 66.3834 72.1178 67.3645 72.1178 68.0722V72.6559C72.1018 72.7845 71.9896 72.881 71.8453 72.881H70.4344C70.3062 72.865 70.1939 72.7685 70.1779 72.6559V68.6994C70.1779 67.8953 70.2741 66.7373 69.2961 66.7373C68.9595 66.7373 68.6388 66.9624 68.4785 67.3163C68.2861 67.7666 68.254 68.2008 68.254 68.6994V72.6237C68.238 72.7685 68.1097 72.881 67.9655 72.881ZM49.1275 69.4071C49.1275 69.9539 49.1435 70.4203 48.8709 70.9189C48.6465 71.321 48.2938 71.5622 47.893 71.5622C47.3479 71.5622 47.0272 71.1441 47.0272 70.5329C47.0272 69.3267 48.1014 69.1015 49.1275 69.1015V69.4071ZM50.5543 72.865C50.4581 72.9454 50.3299 72.9615 50.2176 72.8971C49.7527 72.5111 49.6565 72.3181 49.4 71.9482C48.6304 72.7363 48.0693 72.9775 47.0753 72.9775C45.8889 72.9775 44.959 72.2377 44.959 70.7741C44.959 69.6162 45.5843 68.8442 46.4661 68.4582C47.2356 68.1204 48.3098 68.0561 49.1275 67.9596V67.7827C49.1275 67.4449 49.1595 67.0428 48.9511 66.7533C48.7747 66.496 48.4541 66.3834 48.1655 66.3834C47.6204 66.3834 47.1394 66.6568 47.0272 67.2358C46.9952 67.3645 46.915 67.4932 46.7867 67.4932L45.424 67.3484C45.3118 67.3163 45.1835 67.2358 45.2156 67.0589C45.5362 65.3863 47.0272 64.8877 48.3739 64.8877C49.0633 64.8877 49.9611 65.0646 50.5062 65.5954C51.1956 66.2387 51.1315 67.1072 51.1315 68.04V70.2434C51.1315 70.9028 51.404 71.1923 51.6606 71.5622C51.7568 71.6909 51.7728 71.8517 51.6606 71.9321C51.3559 72.1734 50.8429 72.6237 50.5543 72.865ZM30.6101 69.4071C30.6101 69.9539 30.6261 70.4203 30.3536 70.9189C30.1291 71.321 29.7764 71.5622 29.3756 71.5622C28.8305 71.5622 28.5099 71.1441 28.5099 70.5329C28.5099 69.3267 29.584 69.1015 30.6101 69.1015V69.4071ZM32.0209 72.865C31.9248 72.9454 31.7965 72.9615 31.6843 72.8971C31.2193 72.5111 31.1231 72.3181 30.8666 71.9482C30.0971 72.7363 29.5359 72.9775 28.5419 72.9775C27.3555 72.9775 26.4257 72.2377 26.4257 70.7741C26.4257 69.6162 27.0509 68.8442 27.9327 68.4582C28.7023 68.1204 29.7764 68.0561 30.5941 67.9596V67.7827C30.5941 67.4449 30.6261 67.0428 30.4177 66.7533C30.2414 66.496 29.9207 66.3834 29.6321 66.3834C29.087 66.3834 28.6061 66.6568 28.4938 67.2358C28.4618 67.3645 28.3816 67.4932 28.2533 67.4932L26.8906 67.3484C26.7784 67.3163 26.6501 67.2358 26.6822 67.0589C27.0028 65.3863 28.4938 64.8877 29.8405 64.8877C30.5299 64.8877 31.4278 65.0646 31.9728 65.5954C32.6622 66.2387 32.5981 67.1072 32.5981 68.04V70.2434C32.5981 70.9028 32.8707 71.1923 33.1272 71.5622C33.2234 71.6909 33.2394 71.8517 33.1272 71.9321C32.8226 72.1734 32.3095 72.6237 32.0209 72.865Z" fill="white"/>
</svg>
