<svg width="117" height="84" viewBox="0 0 117 84" fill="none" xmlns="http://www.w3.org/2000/svg">
<rect x="11.3056" y="2.41162" width="104.713" height="65.9838" rx="1.71753" transform="rotate(8 11.3056 2.41162)" fill="#7A00DA"/>
<rect x="10.5747" y="1.4417" width="106.431" height="67.7013" rx="2.5763" transform="rotate(8 10.5747 1.4417)" stroke="#7A00DA" stroke-opacity="0.2" stroke-width="1.71753"/>
<mask id="path-3-outside-1_1_1396" maskUnits="userSpaceOnUse" x="9.55225" y="9.87344" width="98.4808" height="65.2881" fill="black">
<rect fill="white" x="9.55225" y="9.87344" width="98.4808" height="65.2881"/>
<path fill-rule="evenodd" clip-rule="evenodd" d="M95.2168 22.8958L99.02 23.4303L96.9802 37.9439L93.5437 37.4609L93.4544 35.5331C92.8493 36.9309 91.4542 37.4537 89.8064 37.2221C87.2634 36.8647 85.7279 34.638 86.223 31.115C86.7347 27.4746 88.7933 25.4662 91.8546 25.8964C93.2448 26.0918 94.2542 26.8818 94.5039 27.9683L95.2168 22.8958ZM94.0619 31.2104C94.2566 29.825 93.6785 28.9789 92.5727 28.8235C91.4654 28.6679 90.4071 29.3578 90.1037 31.5168C89.8527 33.3027 90.4796 34.3477 91.7241 34.5226C92.6884 34.6581 93.6626 34.0539 93.8705 32.5744L94.0619 31.2104Z"/>
<path fill-rule="evenodd" clip-rule="evenodd" d="M41.5711 27.3311C41.1782 27.2635 41.0647 26.9698 41.1371 26.4552L41.1304 26.4543L41.6649 22.6513C41.9982 20.2791 40.8344 18.7266 37.7278 18.29C34.9248 17.896 32.9839 19.0601 32.4593 21.26L36.0058 22.3344C36.1793 21.4479 36.5408 21.0916 37.2006 21.1843C37.8821 21.2801 38.049 21.8076 37.9501 22.5117L37.8479 23.2387L36.7407 23.0831C33.468 22.6232 31.6311 23.5611 31.3042 25.8867C31.0436 27.7412 32.1264 29.0904 34.1285 29.3718C35.6828 29.5902 36.7381 29.0916 37.5062 28.0513C37.7815 29.1685 38.4913 29.9371 39.9506 30.1422C40.8221 30.2662 41.3366 30.1956 41.9078 29.8925L42.2841 27.2156C42.0557 27.3032 41.8051 27.364 41.5711 27.3311ZM37.0778 25.0952L37.562 25.1632L37.4628 25.8688C37.3212 26.8767 36.5917 27.1094 35.9564 27.0201C35.3199 26.9242 35.011 26.4795 35.0833 25.965C35.1825 25.2591 35.712 24.9032 37.0778 25.0952Z"/>
<path d="M54.7071 33.2316C55.8381 33.3905 56.6909 34.3129 56.521 35.5213C56.3494 36.7423 55.276 37.3832 54.1451 37.2242C53.016 37.0655 52.1589 36.1537 52.3306 34.9323C52.5026 33.715 53.5741 33.0631 54.6959 33.23L54.7071 33.2316Z"/>
<path d="M55.9558 38.1957L54.4309 49.0456L50.6389 48.5127L52.1638 37.6628L55.9558 38.1957Z"/>
<path fill-rule="evenodd" clip-rule="evenodd" d="M26.0412 41.2473C25.7276 43.4788 23.9848 44.7667 20.5944 44.2902L14.2367 43.3967L16.1806 29.5653L22.3497 30.4323C25.2933 30.846 26.6851 32.3998 26.3661 34.6699C26.1384 36.2896 25.0375 37.285 23.502 37.4516C25.3955 38.1468 26.2843 39.599 26.0524 41.2489L26.0412 41.2473ZM19.1856 35.8536L20.6702 36.0622C21.6591 36.2012 22.3234 35.9121 22.4555 34.9723C22.5876 34.0324 22.0287 33.5714 21.0398 33.4325L19.5552 33.2238L19.1856 35.8536ZM18.4957 40.7629L20.4977 41.0442C21.4639 41.18 22.0642 40.8332 22.1765 40.0341C22.2888 39.235 21.8069 38.7373 20.841 38.6015L18.839 38.3202L18.4957 40.7629Z"/>
<path d="M34.1698 44.1372C33.6622 45.5264 32.4325 46.2401 30.5737 45.9789C28.5944 45.7007 27.3773 44.2848 27.7372 41.7243L28.77 34.3751L32.5836 34.911L31.6627 41.4633C31.5095 42.553 31.7237 43.2313 32.6023 43.3668C33.5909 43.5058 34.3292 42.699 34.5767 40.9382L35.3688 35.3022L39.1841 35.8384L37.6592 46.6882L34.2446 46.2083L34.1698 44.1372Z"/>
<path d="M44.4608 45.2251C43.6413 45.1099 43.0085 44.5579 42.9222 43.6198L39.7614 44.4103C40.1033 46.4217 41.6254 47.5459 44.0979 47.8934C46.7823 48.2707 49.1595 47.5985 49.5189 45.0408C49.776 43.2119 48.9324 41.7661 46.5843 41.0349L45.1636 40.5574C44.5998 40.3843 44.3261 40.1298 44.3856 39.706C44.4452 39.2823 44.8584 39.0776 45.4005 39.1538C46.131 39.2565 46.4568 39.6607 46.4906 40.2877L50.025 40.2597C49.9128 38.195 48.4909 36.8839 45.8773 36.5166C43.4521 36.1758 41.0465 36.8912 40.6768 39.5218C40.426 41.3062 41.3209 42.462 43.2372 43.1619L44.6551 43.6735C45.4093 43.9474 45.7785 44.2138 45.7126 44.683C45.6466 45.1522 45.1441 45.3211 44.4608 45.2251Z"/>
<path d="M65.3973 39.26C63.7735 39.0318 62.3984 39.5812 61.6076 41.1208L61.5534 38.9824L58.1387 38.5025L56.6139 49.3524L60.4055 49.8853L61.2207 44.0848C61.455 42.4179 62.2314 42.023 63.0542 42.1386C64.0203 42.2744 64.2545 43.0025 64.0995 44.1051L63.2313 50.2827L67.0233 50.8156L68.0961 43.1821C68.444 40.7068 67.0704 39.4951 65.3973 39.26Z"/>
<path fill-rule="evenodd" clip-rule="evenodd" d="M76.2515 48.1144C75.8437 49.0335 75.2655 49.3226 74.4698 49.203C73.3478 49.0382 72.7921 48.2193 72.9086 46.8776L79.5479 47.8107C79.6644 47.323 79.731 46.849 79.7864 46.4555C80.21 43.4407 78.839 41.1491 75.6125 40.6956C72.1976 40.2157 69.8258 42.0603 69.3109 45.7241C68.8127 49.2694 70.8799 51.6438 74.1064 52.0972C76.2724 52.4016 78.3286 51.7804 79.2695 49.543L76.2515 48.1144ZM76.2514 45.3867C76.3835 44.4469 76.1689 43.5799 75.1086 43.4309C74.1914 43.302 73.4968 43.9693 73.2607 44.9664L76.2514 45.3867Z"/>
<path d="M85.3413 50.9704C84.5218 50.8553 83.8872 50.3031 83.8027 49.3652L80.6167 50.1521C80.9586 52.1636 82.4807 53.2877 84.9532 53.6352C87.6376 54.0125 90.013 53.3401 90.3724 50.7824C90.6294 48.9535 89.8147 47.5118 87.4682 46.7807L86.0459 46.303C85.4821 46.13 85.2084 45.8754 85.2679 45.4516C85.3275 45.0279 85.7388 44.823 86.2809 44.8992C87.0112 45.0018 87.3388 45.4062 87.3708 46.033L90.9052 46.005C90.793 43.9403 89.3711 42.6293 86.7574 42.2619C84.332 41.9211 81.9267 42.6365 81.557 45.2672C81.3062 47.0515 82.1993 48.2071 84.1192 48.9075L85.5355 49.4189C86.29 49.6928 86.6608 49.9595 86.5949 50.4286C86.529 50.8978 86.0249 51.0665 85.3413 50.9704Z"/>
<path d="M94.7451 50.903C94.8296 51.8409 95.4642 52.3931 96.2838 52.5083C96.9655 52.6041 97.4696 52.4354 97.5355 51.9663C97.6015 51.4971 97.2307 51.2305 96.4762 50.9565L95.0599 50.4451C93.1417 49.7449 92.2468 48.5891 92.4976 46.8048C92.8673 44.1741 95.2726 43.4587 97.6981 43.7995C100.312 44.1669 101.734 45.4779 101.846 47.5426L98.3114 47.5706C98.2794 46.9438 97.9518 46.5394 97.2234 46.4371C96.6813 46.3609 96.2684 46.5655 96.2089 46.9893C96.1493 47.4131 96.423 47.6676 96.9868 47.8407L98.4076 48.3181C100.754 49.0492 101.599 50.4952 101.342 52.3241C100.983 54.8818 98.6073 55.5542 95.9211 55.1767C93.4486 54.8292 91.9265 53.705 91.5846 51.6935L94.7451 50.903Z"/>
<path fill-rule="evenodd" clip-rule="evenodd" d="M19.0934 59.5799C19.1658 60.2602 19.2583 60.8004 19.6532 61.2392L19.6521 61.2465L23.8781 61.8404C23.4605 61.2885 23.3285 60.7761 23.2494 60.1476L22.9229 57.6824C22.7592 56.4247 22.1941 55.7897 20.9619 55.3387C22.5276 55.298 24.0933 54.4158 24.4003 52.2313C24.8408 49.0975 22.8683 47.5857 19.7599 47.1488L13.8266 46.3149L11.8826 60.1472L15.7201 60.6865L16.3438 56.2482L17.5455 56.4171C18.44 56.5428 18.8142 56.787 18.9104 57.805L19.0934 59.5799ZM18.2639 53.3557L16.7793 53.1471L17.2084 50.0942L18.6929 50.3028C20.0351 50.4914 20.5473 51.1156 20.4086 52.1024C20.2701 53.0876 19.6061 53.5444 18.2639 53.3557Z"/>
<path fill-rule="evenodd" clip-rule="evenodd" d="M31.7928 58.9453L31.7978 58.9477C31.3873 59.886 30.8071 60.1436 29.9983 60.0343C28.8762 59.8698 28.3206 59.0509 28.437 57.7091L35.0891 58.644C35.2057 58.156 35.2723 57.682 35.3276 57.2885C35.7513 54.2738 34.3818 51.9823 31.1538 51.5287C27.74 51.0489 25.3671 52.8933 24.8522 56.5571C24.3536 60.1046 26.4211 62.4771 29.6476 62.9306C31.8145 63.2351 33.8701 62.6134 34.8095 60.3758L31.7978 58.9477L31.7985 58.9461L31.7928 58.9453ZM31.794 56.2079C31.9261 55.2681 31.7106 54.401 30.6512 54.2521C29.734 54.1232 29.0397 54.7908 28.8033 55.7876L31.794 56.2079Z"/>
<path d="M40.5385 53.1103L36.5346 52.5476L38.8018 63.9304L42.8906 64.505L48.3722 54.2112L44.6764 53.6918L42.6487 57.8612C41.933 59.3642 41.5453 60.4138 41.5453 60.4138L41.4982 60.4072C41.498 60.4084 41.4956 60.384 41.4909 60.336C41.4643 60.0642 41.364 59.0429 41.1733 57.6539L40.5385 53.1103Z"/>
<path d="M52.1295 49.9488C53.2617 50.1085 54.112 51.0304 53.9419 52.2404C53.7718 53.4509 52.6987 54.1026 51.566 53.9434C50.4369 53.7847 49.5816 52.8731 49.7533 51.6517C49.9249 50.4304 50.9976 49.8012 52.1295 49.9488Z"/>
<path d="M53.3788 54.9149L51.854 65.7647L48.0602 65.2316L49.585 54.3817L53.3788 54.9149Z"/>
<path fill-rule="evenodd" clip-rule="evenodd" d="M64.271 64.5164L61.2522 63.0855L61.2406 63.0839C60.8604 64.0278 60.2669 64.2839 59.4681 64.176C58.3459 64.0115 57.79 63.1925 57.9068 61.8508L64.5497 62.7844C64.6663 62.2964 64.7329 61.8224 64.7882 61.4289C65.2119 58.4142 63.8391 56.1223 60.6144 55.6691C57.1994 55.1891 54.8277 57.0338 54.3128 60.6975C53.8142 64.245 55.8817 66.6175 59.1064 67.0707C61.2757 67.3756 63.3301 66.7538 64.271 64.5164ZM60.1137 58.3928C61.1721 58.5415 61.3867 59.4085 61.2546 60.3483L58.264 59.928C58.5 58.9312 59.1928 58.2633 60.1137 58.3928Z"/>
<path d="M76.4581 58.1585L76.7043 62.0489C76.8151 63.797 76.8288 65.1753 76.8318 65.4785C76.8322 65.521 76.8324 65.5424 76.8326 65.5407L76.8797 65.5473C76.8797 65.5473 77.3165 64.1481 78.0354 62.2838L79.4433 58.578L83.1409 59.0977L78.6727 69.5339L74.4112 68.935L74.1969 65.6716C74.0916 64.0295 74.0966 62.113 74.0966 62.113L74.0514 62.1067C74.0514 62.1067 73.5279 63.9502 72.9733 65.5048L71.8678 68.5828L67.6333 67.9876L66.2149 56.7241L70.0521 57.2634L70.384 61.2138C70.5556 63.167 70.6075 64.603 70.6098 64.669L70.6099 64.6714L70.657 64.678C70.657 64.678 71.074 63.2501 71.7467 61.3574L73.0594 57.6861L76.4574 58.1636L76.4581 58.1585Z"/>
<path d="M51.6681 24.8703C51.6345 24.8522 51.6021 24.8347 51.5705 24.8176C51.2042 24.6193 50.9522 24.4829 50.3897 24.4038C49.4943 24.278 48.361 24.4774 48.0902 26.404L47.4467 30.9825L43.6551 30.4496L45.1799 19.5997L48.4316 20.0567L48.4305 22.7864C48.9908 21.0218 50.6449 20.3678 52.5043 20.6291L51.6681 24.8703Z"/>
<path d="M57.5902 21.3439L53.5846 20.7809L55.8517 32.1637L59.9411 32.7384L65.4209 22.4444L61.7234 21.9248L59.6975 26.0944C58.9815 27.5992 58.594 28.6451 58.594 28.6451L58.5469 28.6385C58.5467 28.6401 58.5441 28.6137 58.5391 28.5618C58.5122 28.283 58.4142 27.2671 58.2217 25.887L57.5902 21.3439Z"/>
<path fill-rule="evenodd" clip-rule="evenodd" d="M74.4172 31.1324C74.3449 31.647 74.4583 31.9408 74.8512 32.0083C75.0868 32.0414 75.3358 31.9804 75.5645 31.8928L75.1883 34.5698C74.617 34.8729 74.1026 34.9435 73.2324 34.8212C71.7718 34.6159 71.0627 33.8474 70.787 32.7301C70.0177 33.7703 68.9627 34.269 67.41 34.0458C65.407 33.7643 64.3251 32.4152 64.5857 30.5607C64.9126 28.2351 66.7486 27.2971 70.0222 27.7571L71.1279 27.9125L71.2296 27.1888C71.3286 26.4848 71.164 25.9576 70.4811 25.8616C69.8212 25.7689 69.4588 26.1251 69.2863 27.0117L65.7388 25.9372C66.2658 23.7376 68.204 22.5731 71.008 22.9672C74.1164 23.4041 75.2784 24.9564 74.945 27.3285L74.4105 31.1315L74.4172 31.1324ZM70.8406 29.8402L70.3592 29.7726C68.9924 29.5805 68.4617 29.9362 68.3625 30.642C68.2902 31.1566 68.5991 31.6013 69.2357 31.6972C69.8703 31.7864 70.5998 31.5537 70.7414 30.5458L70.8406 29.8402Z"/>
<path d="M84.8922 29.5151C84.9124 29.526 84.933 29.537 84.954 29.5483L85.7903 25.3071C83.9284 25.0455 82.2765 25.6998 81.7162 27.4644L81.7154 24.7345L78.4674 24.278L76.9425 35.1278L80.7324 35.6605L81.3758 31.082C81.6466 29.1554 82.7802 28.956 83.6738 29.0816C84.2354 29.1605 84.486 29.2958 84.8509 29.4928L84.8922 29.5151Z"/>
<path d="M18.5347 12.8146L16.5909 26.646L20.4526 27.1887L21.2052 21.8338L25.9612 22.5022L25.2086 27.8571L29.0704 28.3998L31.0142 14.5685L27.1525 14.0258L26.43 19.1663L21.674 18.4979L22.3965 13.3573L18.5347 12.8146Z"/>
</mask>
<path fill-rule="evenodd" clip-rule="evenodd" d="M95.2168 22.8958L99.02 23.4303L96.9802 37.9439L93.5437 37.4609L93.4544 35.5331C92.8493 36.9309 91.4542 37.4537 89.8064 37.2221C87.2634 36.8647 85.7279 34.638 86.223 31.115C86.7347 27.4746 88.7933 25.4662 91.8546 25.8964C93.2448 26.0918 94.2542 26.8818 94.5039 27.9683L95.2168 22.8958ZM94.0619 31.2104C94.2566 29.825 93.6785 28.9789 92.5727 28.8235C91.4654 28.6679 90.4071 29.3578 90.1037 31.5168C89.8527 33.3027 90.4796 34.3477 91.7241 34.5226C92.6884 34.6581 93.6626 34.0539 93.8705 32.5744L94.0619 31.2104Z" fill="white"/>
<path fill-rule="evenodd" clip-rule="evenodd" d="M41.5711 27.3311C41.1782 27.2635 41.0647 26.9698 41.1371 26.4552L41.1304 26.4543L41.6649 22.6513C41.9982 20.2791 40.8344 18.7266 37.7278 18.29C34.9248 17.896 32.9839 19.0601 32.4593 21.26L36.0058 22.3344C36.1793 21.4479 36.5408 21.0916 37.2006 21.1843C37.8821 21.2801 38.049 21.8076 37.9501 22.5117L37.8479 23.2387L36.7407 23.0831C33.468 22.6232 31.6311 23.5611 31.3042 25.8867C31.0436 27.7412 32.1264 29.0904 34.1285 29.3718C35.6828 29.5902 36.7381 29.0916 37.5062 28.0513C37.7815 29.1685 38.4913 29.9371 39.9506 30.1422C40.8221 30.2662 41.3366 30.1956 41.9078 29.8925L42.2841 27.2156C42.0557 27.3032 41.8051 27.364 41.5711 27.3311ZM37.0778 25.0952L37.562 25.1632L37.4628 25.8688C37.3212 26.8767 36.5917 27.1094 35.9564 27.0201C35.3199 26.9242 35.011 26.4795 35.0833 25.965C35.1825 25.2591 35.712 24.9032 37.0778 25.0952Z" fill="white"/>
<path d="M54.7071 33.2316C55.8381 33.3905 56.6909 34.3129 56.521 35.5213C56.3494 36.7423 55.276 37.3832 54.1451 37.2242C53.016 37.0655 52.1589 36.1537 52.3306 34.9323C52.5026 33.715 53.5741 33.0631 54.6959 33.23L54.7071 33.2316Z" fill="white"/>
<path d="M55.9558 38.1957L54.4309 49.0456L50.6389 48.5127L52.1638 37.6628L55.9558 38.1957Z" fill="white"/>
<path fill-rule="evenodd" clip-rule="evenodd" d="M26.0412 41.2473C25.7276 43.4788 23.9848 44.7667 20.5944 44.2902L14.2367 43.3967L16.1806 29.5653L22.3497 30.4323C25.2933 30.846 26.6851 32.3998 26.3661 34.6699C26.1384 36.2896 25.0375 37.285 23.502 37.4516C25.3955 38.1468 26.2843 39.599 26.0524 41.2489L26.0412 41.2473ZM19.1856 35.8536L20.6702 36.0622C21.6591 36.2012 22.3234 35.9121 22.4555 34.9723C22.5876 34.0324 22.0287 33.5714 21.0398 33.4325L19.5552 33.2238L19.1856 35.8536ZM18.4957 40.7629L20.4977 41.0442C21.4639 41.18 22.0642 40.8332 22.1765 40.0341C22.2888 39.235 21.8069 38.7373 20.841 38.6015L18.839 38.3202L18.4957 40.7629Z" fill="white"/>
<path d="M34.1698 44.1372C33.6622 45.5264 32.4325 46.2401 30.5737 45.9789C28.5944 45.7007 27.3773 44.2848 27.7372 41.7243L28.77 34.3751L32.5836 34.911L31.6627 41.4633C31.5095 42.553 31.7237 43.2313 32.6023 43.3668C33.5909 43.5058 34.3292 42.699 34.5767 40.9382L35.3688 35.3022L39.1841 35.8384L37.6592 46.6882L34.2446 46.2083L34.1698 44.1372Z" fill="white"/>
<path d="M44.4608 45.2251C43.6413 45.1099 43.0085 44.5579 42.9222 43.6198L39.7614 44.4103C40.1033 46.4217 41.6254 47.5459 44.0979 47.8934C46.7823 48.2707 49.1595 47.5985 49.5189 45.0408C49.776 43.2119 48.9324 41.7661 46.5843 41.0349L45.1636 40.5574C44.5998 40.3843 44.3261 40.1298 44.3856 39.706C44.4452 39.2823 44.8584 39.0776 45.4005 39.1538C46.131 39.2565 46.4568 39.6607 46.4906 40.2877L50.025 40.2597C49.9128 38.195 48.4909 36.8839 45.8773 36.5166C43.4521 36.1758 41.0465 36.8912 40.6768 39.5218C40.426 41.3062 41.3209 42.462 43.2372 43.1619L44.6551 43.6735C45.4093 43.9474 45.7785 44.2138 45.7126 44.683C45.6466 45.1522 45.1441 45.3211 44.4608 45.2251Z" fill="white"/>
<path d="M65.3973 39.26C63.7735 39.0318 62.3984 39.5812 61.6076 41.1208L61.5534 38.9824L58.1387 38.5025L56.6139 49.3524L60.4055 49.8853L61.2207 44.0848C61.455 42.4179 62.2314 42.023 63.0542 42.1386C64.0203 42.2744 64.2545 43.0025 64.0995 44.1051L63.2313 50.2827L67.0233 50.8156L68.0961 43.1821C68.444 40.7068 67.0704 39.4951 65.3973 39.26Z" fill="white"/>
<path fill-rule="evenodd" clip-rule="evenodd" d="M76.2515 48.1144C75.8437 49.0335 75.2655 49.3226 74.4698 49.203C73.3478 49.0382 72.7921 48.2193 72.9086 46.8776L79.5479 47.8107C79.6644 47.323 79.731 46.849 79.7864 46.4555C80.21 43.4407 78.839 41.1491 75.6125 40.6956C72.1976 40.2157 69.8258 42.0603 69.3109 45.7241C68.8127 49.2694 70.8799 51.6438 74.1064 52.0972C76.2724 52.4016 78.3286 51.7804 79.2695 49.543L76.2515 48.1144ZM76.2514 45.3867C76.3835 44.4469 76.1689 43.5799 75.1086 43.4309C74.1914 43.302 73.4968 43.9693 73.2607 44.9664L76.2514 45.3867Z" fill="white"/>
<path d="M85.3413 50.9704C84.5218 50.8553 83.8872 50.3031 83.8027 49.3652L80.6167 50.1521C80.9586 52.1636 82.4807 53.2877 84.9532 53.6352C87.6376 54.0125 90.013 53.3401 90.3724 50.7824C90.6294 48.9535 89.8147 47.5118 87.4682 46.7807L86.0459 46.303C85.4821 46.13 85.2084 45.8754 85.2679 45.4516C85.3275 45.0279 85.7388 44.823 86.2809 44.8992C87.0112 45.0018 87.3388 45.4062 87.3708 46.033L90.9052 46.005C90.793 43.9403 89.3711 42.6293 86.7574 42.2619C84.332 41.9211 81.9267 42.6365 81.557 45.2672C81.3062 47.0515 82.1993 48.2071 84.1192 48.9075L85.5355 49.4189C86.29 49.6928 86.6608 49.9595 86.5949 50.4286C86.529 50.8978 86.0249 51.0665 85.3413 50.9704Z" fill="white"/>
<path d="M94.7451 50.903C94.8296 51.8409 95.4642 52.3931 96.2838 52.5083C96.9655 52.6041 97.4696 52.4354 97.5355 51.9663C97.6015 51.4971 97.2307 51.2305 96.4762 50.9565L95.0599 50.4451C93.1417 49.7449 92.2468 48.5891 92.4976 46.8048C92.8673 44.1741 95.2726 43.4587 97.6981 43.7995C100.312 44.1669 101.734 45.4779 101.846 47.5426L98.3114 47.5706C98.2794 46.9438 97.9518 46.5394 97.2234 46.4371C96.6813 46.3609 96.2684 46.5655 96.2089 46.9893C96.1493 47.4131 96.423 47.6676 96.9868 47.8407L98.4076 48.3181C100.754 49.0492 101.599 50.4952 101.342 52.3241C100.983 54.8818 98.6073 55.5542 95.9211 55.1767C93.4486 54.8292 91.9265 53.705 91.5846 51.6935L94.7451 50.903Z" fill="white"/>
<path fill-rule="evenodd" clip-rule="evenodd" d="M19.0934 59.5799C19.1658 60.2602 19.2583 60.8004 19.6532 61.2392L19.6521 61.2465L23.8781 61.8404C23.4605 61.2885 23.3285 60.7761 23.2494 60.1476L22.9229 57.6824C22.7592 56.4247 22.1941 55.7897 20.9619 55.3387C22.5276 55.298 24.0933 54.4158 24.4003 52.2313C24.8408 49.0975 22.8683 47.5857 19.7599 47.1488L13.8266 46.3149L11.8826 60.1472L15.7201 60.6865L16.3438 56.2482L17.5455 56.4171C18.44 56.5428 18.8142 56.787 18.9104 57.805L19.0934 59.5799ZM18.2639 53.3557L16.7793 53.1471L17.2084 50.0942L18.6929 50.3028C20.0351 50.4914 20.5473 51.1156 20.4086 52.1024C20.2701 53.0876 19.6061 53.5444 18.2639 53.3557Z" fill="white"/>
<path fill-rule="evenodd" clip-rule="evenodd" d="M31.7928 58.9453L31.7978 58.9477C31.3873 59.886 30.8071 60.1436 29.9983 60.0343C28.8762 59.8698 28.3206 59.0509 28.437 57.7091L35.0891 58.644C35.2057 58.156 35.2723 57.682 35.3276 57.2885C35.7513 54.2738 34.3818 51.9823 31.1538 51.5287C27.74 51.0489 25.3671 52.8933 24.8522 56.5571C24.3536 60.1046 26.4211 62.4771 29.6476 62.9306C31.8145 63.2351 33.8701 62.6134 34.8095 60.3758L31.7978 58.9477L31.7985 58.9461L31.7928 58.9453ZM31.794 56.2079C31.9261 55.2681 31.7106 54.401 30.6512 54.2521C29.734 54.1232 29.0397 54.7908 28.8033 55.7876L31.794 56.2079Z" fill="white"/>
<path d="M40.5385 53.1103L36.5346 52.5476L38.8018 63.9304L42.8906 64.505L48.3722 54.2112L44.6764 53.6918L42.6487 57.8612C41.933 59.3642 41.5453 60.4138 41.5453 60.4138L41.4982 60.4072C41.498 60.4084 41.4956 60.384 41.4909 60.336C41.4643 60.0642 41.364 59.0429 41.1733 57.6539L40.5385 53.1103Z" fill="white"/>
<path d="M52.1295 49.9488C53.2617 50.1085 54.112 51.0304 53.9419 52.2404C53.7718 53.4509 52.6987 54.1026 51.566 53.9434C50.4369 53.7847 49.5816 52.8731 49.7533 51.6517C49.9249 50.4304 50.9976 49.8012 52.1295 49.9488Z" fill="white"/>
<path d="M53.3788 54.9149L51.854 65.7647L48.0602 65.2316L49.585 54.3817L53.3788 54.9149Z" fill="white"/>
<path fill-rule="evenodd" clip-rule="evenodd" d="M64.271 64.5164L61.2522 63.0855L61.2406 63.0839C60.8604 64.0278 60.2669 64.2839 59.4681 64.176C58.3459 64.0115 57.79 63.1925 57.9068 61.8508L64.5497 62.7844C64.6663 62.2964 64.7329 61.8224 64.7882 61.4289C65.2119 58.4142 63.8391 56.1223 60.6144 55.6691C57.1994 55.1891 54.8277 57.0338 54.3128 60.6975C53.8142 64.245 55.8817 66.6175 59.1064 67.0707C61.2757 67.3756 63.3301 66.7538 64.271 64.5164ZM60.1137 58.3928C61.1721 58.5415 61.3867 59.4085 61.2546 60.3483L58.264 59.928C58.5 58.9312 59.1928 58.2633 60.1137 58.3928Z" fill="white"/>
<path d="M76.4581 58.1585L76.7043 62.0489C76.8151 63.797 76.8288 65.1753 76.8318 65.4785C76.8322 65.521 76.8324 65.5424 76.8326 65.5407L76.8797 65.5473C76.8797 65.5473 77.3165 64.1481 78.0354 62.2838L79.4433 58.578L83.1409 59.0977L78.6727 69.5339L74.4112 68.935L74.1969 65.6716C74.0916 64.0295 74.0966 62.113 74.0966 62.113L74.0514 62.1067C74.0514 62.1067 73.5279 63.9502 72.9733 65.5048L71.8678 68.5828L67.6333 67.9876L66.2149 56.7241L70.0521 57.2634L70.384 61.2138C70.5556 63.167 70.6075 64.603 70.6098 64.669L70.6099 64.6714L70.657 64.678C70.657 64.678 71.074 63.2501 71.7467 61.3574L73.0594 57.6861L76.4574 58.1636L76.4581 58.1585Z" fill="white"/>
<path d="M51.6681 24.8703C51.6345 24.8522 51.6021 24.8347 51.5705 24.8176C51.2042 24.6193 50.9522 24.4829 50.3897 24.4038C49.4943 24.278 48.361 24.4774 48.0902 26.404L47.4467 30.9825L43.6551 30.4496L45.1799 19.5997L48.4316 20.0567L48.4305 22.7864C48.9908 21.0218 50.6449 20.3678 52.5043 20.6291L51.6681 24.8703Z" fill="white"/>
<path d="M57.5902 21.3439L53.5846 20.7809L55.8517 32.1637L59.9411 32.7384L65.4209 22.4444L61.7234 21.9248L59.6975 26.0944C58.9815 27.5992 58.594 28.6451 58.594 28.6451L58.5469 28.6385C58.5467 28.6401 58.5441 28.6137 58.5391 28.5618C58.5122 28.283 58.4142 27.2671 58.2217 25.887L57.5902 21.3439Z" fill="white"/>
<path fill-rule="evenodd" clip-rule="evenodd" d="M74.4172 31.1324C74.3449 31.647 74.4583 31.9408 74.8512 32.0083C75.0868 32.0414 75.3358 31.9804 75.5645 31.8928L75.1883 34.5698C74.617 34.8729 74.1026 34.9435 73.2324 34.8212C71.7718 34.6159 71.0627 33.8474 70.787 32.7301C70.0177 33.7703 68.9627 34.269 67.41 34.0458C65.407 33.7643 64.3251 32.4152 64.5857 30.5607C64.9126 28.2351 66.7486 27.2971 70.0222 27.7571L71.1279 27.9125L71.2296 27.1888C71.3286 26.4848 71.164 25.9576 70.4811 25.8616C69.8212 25.7689 69.4588 26.1251 69.2863 27.0117L65.7388 25.9372C66.2658 23.7376 68.204 22.5731 71.008 22.9672C74.1164 23.4041 75.2784 24.9564 74.945 27.3285L74.4105 31.1315L74.4172 31.1324ZM70.8406 29.8402L70.3592 29.7726C68.9924 29.5805 68.4617 29.9362 68.3625 30.642C68.2902 31.1566 68.5991 31.6013 69.2357 31.6972C69.8703 31.7864 70.5998 31.5537 70.7414 30.5458L70.8406 29.8402Z" fill="white"/>
<path d="M84.8922 29.5151C84.9124 29.526 84.933 29.537 84.954 29.5483L85.7903 25.3071C83.9284 25.0455 82.2765 25.6998 81.7162 27.4644L81.7154 24.7345L78.4674 24.278L76.9425 35.1278L80.7324 35.6605L81.3758 31.082C81.6466 29.1554 82.7802 28.956 83.6738 29.0816C84.2354 29.1605 84.486 29.2958 84.8509 29.4928L84.8922 29.5151Z" fill="white"/>
<path d="M18.5347 12.8146L16.5909 26.646L20.4526 27.1887L21.2052 21.8338L25.9612 22.5022L25.2086 27.8571L29.0704 28.3998L31.0142 14.5685L27.1525 14.0258L26.43 19.1663L21.674 18.4979L22.3965 13.3573L18.5347 12.8146Z" fill="white"/>
<path d="M76.6203 47.3388L76.6195 47.3385L75.8818 48.8895L75.8826 48.8899L76.6203 47.3388ZM99.02 23.4303L100.721 23.6693L100.96 21.9685L99.259 21.7295L99.02 23.4303ZM95.2168 22.8958L95.4558 21.195L93.755 20.956L93.516 22.6568L95.2168 22.8958ZM96.9802 37.9439L96.7412 39.6447L98.442 39.8838L98.681 38.1829L96.9802 37.9439ZM93.5437 37.4609L91.828 37.5405L91.894 38.9635L93.3047 39.1618L93.5437 37.4609ZM93.4544 35.5331L95.17 35.4536L91.8781 34.8509L93.4544 35.5331ZM94.5039 27.9683L92.83 28.353L96.2047 28.2073L94.5039 27.9683ZM94.0619 31.2104L92.3611 30.9714L92.361 30.9718L94.0619 31.2104ZM93.8705 32.5744L95.5713 32.8134L95.5714 32.813L93.8705 32.5744ZM41.1371 26.4552L42.8379 26.6943L43.0769 24.9934L41.3761 24.7544L41.1371 26.4552ZM41.5711 27.3311L41.28 29.0238L41.306 29.0283L41.3321 29.0319L41.5711 27.3311ZM41.1304 26.4543L39.4296 26.2153L39.1905 27.9161L40.8913 28.1551L41.1304 26.4543ZM32.4593 21.26L30.7886 20.8616L30.4134 22.4349L31.9613 22.9038L32.4593 21.26ZM36.0058 22.3344L35.5079 23.9782L37.3264 24.5291L37.6914 22.6643L36.0058 22.3344ZM37.8479 23.2387L37.6089 24.9396L39.3097 25.1786L39.5487 23.4778L37.8479 23.2387ZM37.5062 28.0513L39.1738 27.6402L38.2979 24.0871L36.1244 27.0312L37.5062 28.0513ZM39.9506 30.1422L40.1926 28.4418L40.1897 28.4414L39.9506 30.1422ZM41.9078 29.8925L42.7128 31.4098L43.4867 30.9991L43.6087 30.1316L41.9078 29.8925ZM42.2841 27.2156L43.9849 27.4546L44.3907 24.5671L41.6685 25.6121L42.2841 27.2156ZM37.562 25.1632L39.2628 25.4022L39.5018 23.7014L37.801 23.4624L37.562 25.1632ZM35.9564 27.0201L35.7004 28.7185L35.7089 28.7198L35.7174 28.721L35.9564 27.0201ZM52.3306 34.9323L50.6299 34.692L50.6297 34.6933L52.3306 34.9323ZM54.6959 33.23L54.4431 34.9289L54.4569 34.9308L54.6959 33.23ZM54.4309 49.0456L54.1919 50.7464L55.8927 50.9854L56.1317 49.2846L54.4309 49.0456ZM55.9558 38.1957L57.6566 38.4348L57.8956 36.734L56.1948 36.4949L55.9558 38.1957ZM50.6389 48.5127L48.9381 48.2736L48.6991 49.9745L50.3999 50.2135L50.6389 48.5127ZM52.1638 37.6628L52.4028 35.962L50.702 35.723L50.463 37.4238L52.1638 37.6628ZM26.0412 41.2473L26.2802 39.5465L24.5794 39.3075L24.3404 41.0083L26.0412 41.2473ZM14.2367 43.3967L12.5359 43.1576L12.2968 44.8584L13.9977 45.0975L14.2367 43.3967ZM16.1806 29.5653L16.4196 27.8645L14.7188 27.6255L14.4798 29.3263L16.1806 29.5653ZM23.502 37.4516L23.3167 35.7441L22.9101 39.0639L23.502 37.4516ZM26.0524 41.2489L25.8134 42.9497L27.5142 43.1888L27.7533 41.488L26.0524 41.2489ZM19.1856 35.8536L17.4848 35.6145L17.2458 37.3153L18.9466 37.5544L19.1856 35.8536ZM19.5552 33.2238L19.7943 31.523L18.0934 31.284L17.8544 32.9848L19.5552 33.2238ZM18.4957 40.7629L16.7949 40.5238L16.5558 42.2246L18.2567 42.4637L18.4957 40.7629ZM18.839 38.3202L19.078 36.6194L17.3772 36.3803L17.1382 38.0811L18.839 38.3202ZM34.1698 44.1372L35.8862 44.0752L32.5566 43.5478L34.1698 44.1372ZM28.77 34.3751L29.0091 32.6743L27.3083 32.4352L27.0692 34.136L28.77 34.3751ZM32.5836 34.911L34.2844 35.1501L34.5234 33.4493L32.8226 33.2102L32.5836 34.911ZM32.6023 43.3668L32.3405 45.0643L32.3519 45.066L32.3633 45.0676L32.6023 43.3668ZM35.3688 35.3022L35.6078 33.6013L33.907 33.3623L33.6679 35.0631L35.3688 35.3022ZM39.1841 35.8384L40.8849 36.0774L41.1239 34.3766L39.4231 34.1376L39.1841 35.8384ZM37.6592 46.6882L37.4202 48.389L39.121 48.6281L39.3601 46.9273L37.6592 46.6882ZM34.2446 46.2083L32.5282 46.2703L32.5801 47.7088L34.0055 47.9091L34.2446 46.2083ZM42.9222 43.6198L44.6325 43.4624L44.4488 41.4676L42.5055 41.9536L42.9222 43.6198ZM39.7614 44.4103L39.3447 42.744L37.8016 43.1299L38.0681 44.6981L39.7614 44.4103ZM46.5843 41.0349L46.0372 42.6629L46.0554 42.669L46.0736 42.6747L46.5843 41.0349ZM45.1636 40.5574L45.7107 38.9293L45.6893 38.9221L45.6676 38.9155L45.1636 40.5574ZM46.4906 40.2877L44.7756 40.3802L44.864 42.0182L46.5043 42.0052L46.4906 40.2877ZM50.025 40.2597L50.0386 41.9771L51.8376 41.9629L51.74 40.1665L50.025 40.2597ZM43.2372 43.1619L42.648 44.7752L42.6543 44.7774L43.2372 43.1619ZM44.6551 43.6735L45.2414 42.0592L45.2381 42.058L44.6551 43.6735ZM61.6076 41.1208L59.8906 41.1643L63.1353 41.9055L61.6076 41.1208ZM61.5534 38.9824L63.2704 38.9389L63.2335 37.4841L61.7924 37.2816L61.5534 38.9824ZM58.1387 38.5025L58.3777 36.8017L56.6769 36.5627L56.4379 38.2635L58.1387 38.5025ZM56.6139 49.3524L54.913 49.1133L54.674 50.8142L56.3748 51.0532L56.6139 49.3524ZM60.4055 49.8853L60.1665 51.5861L61.8673 51.8251L62.1063 50.1243L60.4055 49.8853ZM63.2313 50.2827L61.5305 50.0437L61.2915 51.7445L62.9923 51.9835L63.2313 50.2827ZM67.0233 50.8156L66.7842 52.5164L68.4851 52.7555L68.7241 51.0547L67.0233 50.8156ZM76.2515 48.1144L76.9863 46.562L75.3953 45.8089L74.6815 47.4179L76.2515 48.1144ZM74.4698 49.203L74.725 47.5045L74.7194 47.5037L74.4698 49.203ZM72.9086 46.8776L73.1476 45.1767L71.3541 44.9247L71.1975 46.7291L72.9086 46.8776ZM79.5479 47.8107L79.3089 49.5115L80.8555 49.7288L81.2184 48.2098L79.5479 47.8107ZM79.2695 49.543L80.8527 50.2088L81.4898 48.6938L80.0043 47.9906L79.2695 49.543ZM76.2514 45.3867L76.0124 47.0875L77.7132 47.3266L77.9522 45.6257L76.2514 45.3867ZM73.2607 44.9664L71.5894 44.5707L71.1551 46.4049L73.0217 46.6672L73.2607 44.9664ZM83.8027 49.3652L85.5133 49.211L85.3336 47.2179L83.3908 47.6978L83.8027 49.3652ZM80.6167 50.1521L80.2048 48.4847L78.6561 48.8672L78.9234 50.4399L80.6167 50.1521ZM87.4682 46.7807L86.9213 48.4089L86.9393 48.4149L86.9573 48.4205L87.4682 46.7807ZM86.0459 46.303L86.5927 44.6749L86.5714 44.6677L86.5499 44.6611L86.0459 46.303ZM87.3708 46.033L85.6555 46.1206L85.7394 47.7635L87.3844 47.7505L87.3708 46.033ZM90.9052 46.005L90.9188 47.7225L92.7178 47.7082L92.6202 45.9118L90.9052 46.005ZM84.1192 48.9075L83.5306 50.521L83.5359 50.5229L84.1192 48.9075ZM85.5355 49.4189L86.1217 47.8045L86.1189 47.8035L85.5355 49.4189ZM94.7451 50.903L96.4557 50.7488L96.2755 48.7498L94.3284 49.2368L94.7451 50.903ZM96.4762 50.9565L97.0623 49.3421L97.0595 49.3411L96.4762 50.9565ZM95.0599 50.4451L94.4709 52.0585L94.4765 52.0605L95.0599 50.4451ZM101.846 47.5426L101.859 49.2601L103.658 49.2458L103.561 47.4494L101.846 47.5426ZM98.3114 47.5706L96.5961 47.6582L96.68 49.3011L98.3251 49.2881L98.3114 47.5706ZM96.9868 47.8407L97.5339 46.2126L97.5125 46.2054L97.4908 46.1988L96.9868 47.8407ZM98.4076 48.3181L97.8604 49.9462L97.8785 49.9523L97.8967 49.9579L98.4076 48.3181ZM91.5846 51.6935L91.1679 50.0273L89.6248 50.4133L89.8913 51.9814L91.5846 51.6935ZM19.6532 61.2392L21.354 61.4783L21.4654 60.6855L20.9299 60.0904L19.6532 61.2392ZM19.0934 59.5799L17.3849 59.756L17.3855 59.7618L19.0934 59.5799ZM19.6521 61.2465L17.9513 61.0075L17.7123 62.7083L19.4131 62.9473L19.6521 61.2465ZM23.8781 61.8404L23.6391 63.5412L27.7569 64.12L25.2477 60.804L23.8781 61.8404ZM23.2494 60.1476L24.9535 59.9331L24.9521 59.9222L23.2494 60.1476ZM22.9229 57.6824L21.2198 57.9041L21.2203 57.9079L22.9229 57.6824ZM20.9619 55.3387L20.9172 53.6218L20.3716 56.9516L20.9619 55.3387ZM13.8266 46.3149L14.0656 44.6141L12.3648 44.3751L12.1257 46.0759L13.8266 46.3149ZM11.8826 60.1472L10.1818 59.9081L9.94272 61.6089L11.6435 61.848L11.8826 60.1472ZM15.7201 60.6865L15.481 62.3873L17.1818 62.6263L17.4209 60.9255L15.7201 60.6865ZM16.3438 56.2482L16.5829 54.5474L14.882 54.3083L14.643 56.0091L16.3438 56.2482ZM18.9104 57.805L17.2005 57.9666L17.2012 57.9738L17.2019 57.9811L18.9104 57.805ZM16.7793 53.1471L15.0785 52.9081L14.8395 54.6089L16.5403 54.8479L16.7793 53.1471ZM17.2084 50.0942L17.4474 48.3934L15.7466 48.1543L15.5076 49.8551L17.2084 50.0942ZM31.7928 58.9453L32.0318 57.2445L31.057 60.4972L31.7928 58.9453ZM29.9983 60.0343L29.7492 61.7336L29.7587 61.735L29.7682 61.7363L29.9983 60.0343ZM28.437 57.7091L28.6761 56.0083L26.8825 55.7562L26.7259 57.5606L28.437 57.7091ZM35.0891 58.644L34.8501 60.3448L36.3968 60.5622L36.7596 59.043L35.0891 58.644ZM34.8095 60.3758L36.3931 61.0407L37.0285 59.5272L35.5454 58.8239L34.8095 60.3758ZM31.7985 58.9461L33.3724 59.6338L34.2785 57.5602L32.0376 57.2453L31.7985 58.9461ZM31.794 56.2079L31.5549 57.9087L33.2558 58.1478L33.4948 56.4469L31.794 56.2079ZM28.8033 55.7876L27.1321 55.3913L26.6971 57.226L28.5643 57.4884L28.8033 55.7876ZM36.5346 52.5476L36.7737 50.8468L34.3776 50.51L34.8502 52.8831L36.5346 52.5476ZM40.5385 53.1103L42.2395 52.8726L42.0602 51.5897L40.7775 51.4095L40.5385 53.1103ZM38.8018 63.9304L37.1173 64.2659L37.3554 65.4615L38.5627 65.6312L38.8018 63.9304ZM42.8906 64.505L42.6515 66.2058L43.8417 66.3731L44.4065 65.3123L42.8906 64.505ZM48.3722 54.2112L49.8882 55.0185L51.0419 52.852L48.6112 52.5104L48.3722 54.2112ZM44.6764 53.6918L44.9155 51.991L43.6783 51.8171L43.1319 52.9407L44.6764 53.6918ZM42.6487 57.8612L41.1041 57.11L41.0981 57.1228L42.6487 57.8612ZM41.5453 60.4138L41.3062 62.1146L42.6768 62.3072L43.1564 61.0089L41.5453 60.4138ZM41.4982 60.4072L41.7373 58.7063L40.0364 58.4673L39.7974 60.1681L41.4982 60.4072ZM41.4909 60.336L43.2003 60.1684L43.2003 60.1682L41.4909 60.336ZM41.1733 57.6539L42.8749 57.4203L42.8743 57.4162L41.1733 57.6539ZM52.1295 49.9488L52.3694 48.2481L52.3605 48.2469L52.3517 48.2457L52.1295 49.9488ZM51.854 65.7647L51.6149 67.4656L53.3157 67.7046L53.5548 66.0038L51.854 65.7647ZM53.3788 54.9149L55.0796 55.1539L55.3187 53.4531L53.6178 53.2141L53.3788 54.9149ZM48.0602 65.2316L46.3594 64.9925L46.1203 66.6933L47.8212 66.9324L48.0602 65.2316ZM49.585 54.3817L49.8241 52.6809L48.1232 52.4419L47.8842 54.1427L49.585 54.3817ZM61.2522 63.0855L61.9878 61.5335L61.7509 61.4212L61.4912 61.3847L61.2522 63.0855ZM64.271 64.5164L65.8543 65.1822L66.4911 63.6679L65.0066 62.9643L64.271 64.5164ZM61.2406 63.0839L61.4797 61.3831L60.1495 61.1962L59.6475 62.4421L61.2406 63.0839ZM59.4681 64.176L59.2189 65.8753L59.2285 65.8767L59.238 65.878L59.4681 64.176ZM57.9068 61.8508L58.1458 60.15L56.3527 59.898L56.1957 61.7019L57.9068 61.8508ZM64.5497 62.7844L64.3107 64.4852L65.8574 64.7026L66.2203 63.1834L64.5497 62.7844ZM61.2546 60.3483L61.0156 62.0491L62.7164 62.2882L62.9554 60.5874L61.2546 60.3483ZM58.264 59.928L56.5926 59.5323L56.1583 61.3665L58.0249 61.6288L58.264 59.928ZM76.7043 62.0489L74.9902 62.1574L74.9902 62.1575L76.7043 62.0489ZM76.4581 58.1585L78.1722 58.05L74.7573 57.9194L76.4581 58.1585ZM76.8318 65.4785L78.5492 65.4615L78.5492 65.4615L76.8318 65.4785ZM76.8326 65.5407L77.0717 63.8399L75.3709 63.6009L75.1318 65.3017L76.8326 65.5407ZM76.8797 65.5473L76.6407 67.2481L78.0846 67.4511L78.5192 66.0592L76.8797 65.5473ZM78.0354 62.2838L79.6379 62.9018L79.641 62.8938L78.0354 62.2838ZM79.4433 58.578L79.6823 56.8772L78.3247 56.6864L77.8377 57.968L79.4433 58.578ZM83.1409 59.0977L84.7198 59.7737L85.6036 57.7094L83.3799 57.3968L83.1409 59.0977ZM78.6727 69.5339L78.4337 71.2347L79.7346 71.4175L80.2516 70.2099L78.6727 69.5339ZM74.4112 68.935L72.6974 69.0475L72.7889 70.4414L74.1722 70.6358L74.4112 68.935ZM74.1969 65.6716L72.4829 65.7815L72.4831 65.7841L74.1969 65.6716ZM74.0966 62.113L75.8141 62.1175L75.818 60.6205L74.3356 60.4122L74.0966 62.113ZM74.0514 62.1067L74.2904 60.4059L72.808 60.1975L72.3991 61.6376L74.0514 62.1067ZM72.9733 65.5048L74.5897 66.0854L74.591 66.082L72.9733 65.5048ZM71.8678 68.5828L71.6288 70.2836L73.0121 70.478L73.4843 69.1633L71.8678 68.5828ZM67.6333 67.9876L65.9293 68.2022L66.0934 69.5056L67.3943 69.6885L67.6333 67.9876ZM66.2149 56.7241L66.4539 55.0233L64.2303 54.7108L64.5108 56.9387L66.2149 56.7241ZM70.0521 57.2634L71.7636 57.1196L71.6488 55.7534L70.2911 55.5626L70.0521 57.2634ZM70.384 61.2138L68.6725 61.3576L68.673 61.3641L70.384 61.2138ZM70.6098 64.669L68.8934 64.7308L68.8936 64.7347L70.6098 64.669ZM70.6099 64.6714L68.8937 64.7371L68.9486 66.1723L70.3709 66.3722L70.6099 64.6714ZM70.657 64.678L70.418 66.3788L71.8891 66.5856L72.3056 65.1595L70.657 64.678ZM71.7467 61.3574L70.1295 60.7792L70.1284 60.7822L71.7467 61.3574ZM73.0594 57.6861L73.2985 55.9852L71.9131 55.7905L71.4422 57.1078L73.0594 57.6861ZM76.4574 58.1636L76.2184 59.8644L77.9192 60.1035L78.1582 58.4026L76.4574 58.1636ZM51.5705 24.8176L52.3881 23.3071L52.3881 23.3071L51.5705 24.8176ZM51.6681 24.8703L50.8555 26.3834L52.9035 27.4831L53.3532 25.2025L51.6681 24.8703ZM47.4467 30.9825L47.2077 32.6833L48.9085 32.9223L49.1475 31.2215L47.4467 30.9825ZM43.6551 30.4496L41.9543 30.2105L41.7152 31.9114L43.416 32.1504L43.6551 30.4496ZM45.1799 19.5997L45.419 17.8989L43.7181 17.6599L43.4791 19.3607L45.1799 19.5997ZM48.4316 20.0567L50.1491 20.0574L50.1497 18.5638L48.6706 18.3559L48.4316 20.0567ZM48.4305 22.7864L46.713 22.7857L50.0675 23.3062L48.4305 22.7864ZM52.5043 20.6291L54.1894 20.9614L54.5405 19.1809L52.7434 18.9283L52.5043 20.6291ZM53.5846 20.7809L53.8236 19.0801L51.4275 18.7434L51.9001 21.1164L53.5846 20.7809ZM57.5902 21.3439L59.2914 21.1074L59.1129 19.8235L57.8293 19.6431L57.5902 21.3439ZM55.8517 32.1637L54.1673 32.4992L54.4054 33.6949L55.6127 33.8645L55.8517 32.1637ZM59.9411 32.7384L59.7021 34.4393L60.8924 34.6065L61.4572 33.5455L59.9411 32.7384ZM65.4209 22.4444L66.937 23.2515L68.0902 21.0851L65.66 20.7436L65.4209 22.4444ZM61.7234 21.9248L61.9624 20.2239L60.7247 20.05L60.1785 21.1742L61.7234 21.9248ZM59.6975 26.0944L58.1526 25.3438L58.1465 25.3564L59.6975 26.0944ZM58.594 28.6451L58.3549 30.3459L59.7242 30.5383L60.2045 29.2418L58.594 28.6451ZM58.5469 28.6385L58.7859 26.9377L57.0851 26.6986L56.8461 28.3994L58.5469 28.6385ZM58.5391 28.5618L56.8295 28.7268L56.8295 28.7268L58.5391 28.5618ZM58.2217 25.887L56.5205 26.1235L56.5206 26.1242L58.2217 25.887ZM74.8512 32.0083L74.5601 33.701L74.5861 33.7055L74.6122 33.7091L74.8512 32.0083ZM74.4172 31.1324L76.118 31.3715L76.357 29.6707L74.6562 29.4316L74.4172 31.1324ZM75.5645 31.8928L77.2653 32.1318L77.6708 29.2464L74.9499 30.289L75.5645 31.8928ZM75.1883 34.5698L75.9932 36.087L76.7672 35.6764L76.8891 34.8088L75.1883 34.5698ZM70.787 32.7301L72.4545 32.3187L71.579 28.7708L69.4061 31.7089L70.787 32.7301ZM67.41 34.0458L67.6543 32.3457L67.649 32.345L67.41 34.0458ZM71.1279 27.9125L70.8889 29.6134L72.5897 29.8524L72.8287 28.1516L71.1279 27.9125ZM69.2863 27.0117L68.7884 28.6555L70.6087 29.2069L70.9722 27.3398L69.2863 27.0117ZM65.7388 25.9372L64.0686 25.5369L63.6913 27.1115L65.2409 27.5809L65.7388 25.9372ZM74.4105 31.1315L72.7097 30.8925L72.4707 32.5933L74.1715 32.8323L74.4105 31.1315ZM70.8406 29.8402L72.5414 30.0793L72.7804 28.3784L71.0796 28.1394L70.8406 29.8402ZM69.2357 31.6972L68.9797 33.3956L68.9881 33.3969L68.9966 33.3981L69.2357 31.6972ZM84.954 29.5483L84.1438 31.0627L86.1902 32.1575L86.6391 29.8805L84.954 29.5483ZM84.8922 29.5151L84.0766 31.0266L84.0774 31.027L84.8922 29.5151ZM85.7903 25.3071L87.4754 25.6394L87.8264 23.8589L86.0293 23.6063L85.7903 25.3071ZM81.7162 27.4644L79.9986 27.4649L83.3532 27.9842L81.7162 27.4644ZM81.7154 24.7345L83.4329 24.734L83.4325 23.2414L81.9545 23.0336L81.7154 24.7345ZM78.4674 24.278L78.7064 22.5772L77.0056 22.3381L76.7666 24.0389L78.4674 24.278ZM76.9425 35.1278L75.2417 34.8888L75.0027 36.5896L76.7035 36.8286L76.9425 35.1278ZM80.7324 35.6605L80.4933 37.3613L82.1942 37.6003L82.4332 35.8995L80.7324 35.6605ZM84.8509 29.4928L84.0351 31.0042L84.0353 31.0044L84.8509 29.4928ZM16.5909 26.646L14.89 26.4069L14.651 28.1077L16.3518 28.3468L16.5909 26.646ZM18.5347 12.8146L18.7738 11.1138L17.0729 10.8748L16.8339 12.5756L18.5347 12.8146ZM20.4526 27.1887L20.2136 28.8895L21.9144 29.1285L22.1534 27.4277L20.4526 27.1887ZM21.2052 21.8338L21.4442 20.133L19.7434 19.894L19.5044 21.5948L21.2052 21.8338ZM25.9612 22.5022L27.662 22.7413L27.901 21.0405L26.2002 20.8014L25.9612 22.5022ZM25.2086 27.8571L23.5078 27.6181L23.2687 29.3189L24.9696 29.5579L25.2086 27.8571ZM29.0704 28.3998L28.8313 30.1006L30.5321 30.3397L30.7712 28.6389L29.0704 28.3998ZM31.0142 14.5685L32.715 14.8075L32.9541 13.1067L31.2533 12.8677L31.0142 14.5685ZM27.1525 14.0258L27.3915 12.3249L25.6907 12.0859L25.4516 13.7867L27.1525 14.0258ZM26.43 19.1663L26.191 20.8671L27.8918 21.1062L28.1308 19.4053L26.43 19.1663ZM21.674 18.4979L19.9732 18.2589L19.7342 19.9597L21.435 20.1987L21.674 18.4979ZM22.3965 13.3573L24.0973 13.5964L24.3363 11.8956L22.6355 11.6565L22.3965 13.3573ZM99.259 21.7295L95.4558 21.195L94.9778 24.5966L98.7809 25.1311L99.259 21.7295ZM98.681 38.1829L100.721 23.6693L97.3192 23.1913L95.2794 37.7049L98.681 38.1829ZM93.3047 39.1618L96.7412 39.6447L97.2193 36.2431L93.7827 35.7601L93.3047 39.1618ZM91.7387 35.6126L91.828 37.5405L95.2594 37.3814L95.17 35.4536L91.7387 35.6126ZM89.5673 38.9229C91.6836 39.2204 94.0139 38.5643 95.0306 36.2153L91.8781 34.8509C91.6848 35.2975 91.2249 35.6871 90.0454 35.5213L89.5673 38.9229ZM84.5222 30.876C84.2357 32.9142 84.508 34.7829 85.4119 36.2546C86.3373 37.7612 87.8224 38.6777 89.5673 38.9229L90.0454 35.5213C89.2473 35.4092 88.6932 35.0336 88.3389 34.4567C87.9631 33.8449 87.7152 32.8387 87.9238 31.354L84.5222 30.876ZM92.0937 24.1956C90.1064 23.9163 88.2884 24.429 86.9065 25.7276C85.5714 26.9822 84.8127 28.809 84.5222 30.876L87.9238 31.354C88.145 29.7806 88.6714 28.7829 89.2589 28.2308C89.7995 27.7227 90.5415 27.4463 91.6156 27.5972L92.0937 24.1956ZM96.1778 27.5835C95.7227 25.6033 93.9606 24.458 92.0937 24.1956L91.6156 27.5972C92.529 27.7256 92.7858 28.1604 92.83 28.353L96.1778 27.5835ZM93.516 22.6568L92.8031 27.7292L96.2047 28.2073L96.9176 23.1348L93.516 22.6568ZM92.3337 30.5243C92.418 30.5361 92.438 30.5533 92.4217 30.5436C92.4008 30.5312 92.3746 30.5071 92.3579 30.4809C92.3269 30.4324 92.422 30.5376 92.3611 30.9714L95.7627 31.4494C95.8964 30.4979 95.7999 29.4873 95.252 28.6304C94.6783 27.7333 93.7718 27.2576 92.8117 27.1227L92.3337 30.5243ZM91.8045 31.7559C91.9256 30.8943 92.1622 30.6026 92.2256 30.5417C92.2515 30.5169 92.2571 30.5199 92.248 30.5225C92.2441 30.5237 92.268 30.5151 92.3337 30.5243L92.8117 27.1227C91.8035 26.981 90.7151 27.2308 89.8479 28.0626C89.0295 28.8476 88.5852 29.9803 88.4028 31.2778L91.8045 31.7559ZM91.9631 32.8218C91.8676 32.8083 91.8419 32.7872 91.8513 32.7933C91.8645 32.8019 91.8659 32.8103 91.8549 32.7906C91.821 32.7294 91.7082 32.4413 91.8045 31.7559L88.4028 31.2778C88.2482 32.3783 88.3233 33.5056 88.8512 34.4571C89.4207 35.4836 90.3869 36.0691 91.4851 36.2234L91.9631 32.8218ZM92.1697 32.3353C92.1411 32.5387 92.0929 32.6643 92.057 32.7338C92.0221 32.8014 91.9955 32.8231 91.9935 32.8247C91.9915 32.8263 91.9951 32.8237 91.9991 32.8227C92.0012 32.8221 91.9903 32.8256 91.9631 32.8218L91.4851 36.2234C92.4037 36.3525 93.3785 36.1296 94.1683 35.4836C94.9574 34.8382 95.42 33.8902 95.5713 32.8134L92.1697 32.3353ZM92.361 30.9718L92.1696 32.3357L95.5714 32.813L95.7627 31.4491L92.361 30.9718ZM39.4362 26.2162C39.3855 26.5774 39.3418 27.1858 39.6241 27.789C39.9765 28.5417 40.645 28.9146 41.28 29.0238L41.8622 25.6384C41.9532 25.6541 42.1229 25.6992 42.3086 25.8285C42.5051 25.9653 42.6483 26.147 42.7352 26.3326C42.8806 26.6434 42.8163 26.8477 42.8379 26.6943L39.4362 26.2162ZM40.8913 28.1551L40.898 28.156L41.3761 24.7544L41.3694 24.7535L40.8913 28.1551ZM39.964 22.4123L39.4296 26.2153L42.8312 26.6933L43.3657 22.8903L39.964 22.4123ZM37.4888 19.9908C38.8308 20.1794 39.4285 20.5683 39.6857 20.8666C39.9054 21.1213 40.085 21.5516 39.964 22.4123L43.3657 22.8903C43.5781 21.3789 43.3425 19.8468 42.2869 18.623C41.269 17.4428 39.7315 16.8372 37.9669 16.5892L37.4888 19.9908ZM34.13 21.6584C34.2905 20.9851 34.6329 20.5564 35.0935 20.2922C35.5831 20.0115 36.3613 19.8323 37.4888 19.9908L37.9669 16.5892C36.2913 16.3537 34.6975 16.5596 33.3847 17.3124C32.043 18.0818 31.1526 19.335 30.7886 20.8616L34.13 21.6584ZM36.5038 20.6907L32.9572 19.6163L31.9613 22.9038L35.5079 23.9782L36.5038 20.6907ZM37.4397 19.4835C36.7355 19.3846 35.8982 19.5077 35.2263 20.1581C34.6534 20.7127 34.4302 21.4429 34.3203 22.0046L37.6914 22.6643C37.7186 22.5251 37.7425 22.4652 37.7462 22.4567C37.7491 22.45 37.7166 22.5283 37.6154 22.6263C37.5032 22.7349 37.3561 22.8192 37.1991 22.8607C37.0563 22.8985 36.9642 22.8855 36.9616 22.8852L37.4397 19.4835ZM39.6509 22.7507C39.7195 22.2628 39.747 21.5455 39.4079 20.8591C39.0043 20.0422 38.2533 19.5979 37.4397 19.4835L36.9616 22.8852C36.9264 22.8802 36.8063 22.8563 36.6607 22.7584C36.5073 22.6552 36.3952 22.5165 36.3282 22.3807C36.2673 22.2576 36.2596 22.1708 36.2589 22.1621C36.2581 22.1532 36.2614 22.1863 36.2493 22.2726L39.6509 22.7507ZM39.5487 23.4778L39.6509 22.7507L36.2493 22.2726L36.1471 22.9997L39.5487 23.4778ZM36.5016 24.7839L37.6089 24.9396L38.0869 21.5379L36.9797 21.3823L36.5016 24.7839ZM33.005 26.1257C33.1034 25.4259 33.3658 25.1413 33.7034 24.9676C34.1567 24.7345 35.0186 24.5755 36.5016 24.7839L36.9797 21.3823C35.1901 21.1308 33.4972 21.2108 32.1321 21.913C30.6514 22.6747 29.8319 24.0219 29.6034 25.6476L33.005 26.1257ZM34.3675 27.671C33.6949 27.5764 33.3595 27.3325 33.2036 27.1396C33.0588 26.9603 32.9304 26.6568 33.005 26.1257L29.6034 25.6476C29.4174 26.971 29.7001 28.2694 30.532 29.2988C31.3529 30.3145 32.5599 30.8857 33.8894 31.0726L34.3675 27.671ZM36.1244 27.0312C35.8905 27.348 35.6715 27.5079 35.4601 27.5946C35.2446 27.6831 34.9102 27.7472 34.3675 27.671L33.8894 31.0726C34.9011 31.2148 35.8715 31.1389 36.7642 30.7725C37.6611 30.4045 38.3538 29.7949 38.8879 29.0714L36.1244 27.0312ZM40.1897 28.4414C39.7184 28.3751 39.5218 28.2423 39.438 28.1663C39.3544 28.0905 39.2504 27.9511 39.1738 27.6402L35.8385 28.4624C36.0373 29.2686 36.4259 30.0721 37.1308 30.7112C37.8356 31.3501 38.7235 31.7041 39.7116 31.843L40.1897 28.4414ZM41.1029 28.3753C40.9719 28.4448 40.8971 28.4644 40.8211 28.4742C40.7227 28.487 40.5445 28.4919 40.1926 28.4418L39.7086 31.8426C40.8268 32.0017 41.7328 31.9297 42.7128 31.4098L41.1029 28.3753ZM40.5833 26.9765L40.207 29.6535L43.6087 30.1316L43.9849 27.4546L40.5833 26.9765ZM41.3321 29.0319C41.992 29.1247 42.5678 28.9464 42.8996 28.819L41.6685 25.6121C41.6224 25.6298 41.608 25.6314 41.6205 25.6291C41.6325 25.6269 41.7018 25.6151 41.8101 25.6303L41.3321 29.0319ZM37.801 23.4624L37.3169 23.3944L36.8388 26.796L37.3229 26.864L37.801 23.4624ZM39.1636 26.1078L39.2628 25.4022L35.8612 24.9242L35.762 25.6297L39.1636 26.1078ZM35.7174 28.721C36.2975 28.8025 37.0778 28.7626 37.7988 28.3163C38.5813 27.8318 39.034 27.0304 39.1636 26.1078L35.762 25.6297C35.7536 25.6893 35.7473 25.6638 35.788 25.5966C35.8317 25.5244 35.9019 25.4506 35.9907 25.3956C36.1527 25.2953 36.2507 25.3271 36.1955 25.3193L35.7174 28.721ZM33.3825 25.7259C33.2883 26.3962 33.4371 27.1188 33.9051 27.7127C34.3704 28.303 35.0322 28.6178 35.7004 28.7185L36.2124 25.3218C36.2442 25.3266 36.4332 25.371 36.603 25.5864C36.7755 25.8053 36.806 26.0482 36.7841 26.204L33.3825 25.7259ZM37.3169 23.3944C36.5248 23.283 35.6348 23.2698 34.8553 23.6484C33.9158 24.1046 33.4931 24.9387 33.3825 25.7259L36.7841 26.204C36.7828 26.2133 36.7671 26.3147 36.6814 26.4455C36.5874 26.5889 36.4624 26.6866 36.3558 26.7384C36.266 26.782 36.2366 26.7704 36.3264 26.764C36.4155 26.7576 36.5784 26.7594 36.8388 26.796L37.3169 23.3944ZM58.2219 35.7603C58.5444 33.4651 56.8618 31.8 54.9462 31.5308L54.4681 34.9324C54.6432 34.957 54.7408 35.0322 54.7804 35.08C54.7995 35.103 54.8102 35.1245 54.8165 35.1466C54.8224 35.1675 54.8304 35.2097 54.8202 35.2822L58.2219 35.7603ZM53.9061 38.925C55.8156 39.1934 57.8967 38.0737 58.2219 35.7603L54.8202 35.2822C54.8093 35.3601 54.7888 35.4004 54.7775 35.4186C54.7656 35.4376 54.7505 35.454 54.7275 35.4696C54.6796 35.5022 54.5654 35.5489 54.3841 35.5234L53.9061 38.925ZM50.6297 34.6933C50.3044 37.0081 51.9995 38.6571 53.9061 38.925L54.3841 35.5234C54.2041 35.4981 54.1067 35.4219 54.0691 35.3768C54.0512 35.3553 54.041 35.3351 54.0349 35.3136C54.0291 35.293 54.0205 35.2489 54.0314 35.1714L50.6297 34.6933ZM54.9487 31.5312C53.0175 31.2438 50.9535 32.4021 50.6299 34.692L54.0312 35.1726C54.0421 35.0952 54.0628 35.0536 54.0754 35.0333C54.0884 35.0122 54.1048 34.9947 54.1277 34.9791C54.1746 34.9469 54.28 34.9046 54.4431 34.9289L54.9487 31.5312ZM54.9462 31.5308L54.9349 31.5292L54.4569 34.9308L54.4681 34.9324L54.9462 31.5308ZM56.1317 49.2846L57.6566 38.4348L54.2549 37.9567L52.7301 48.8066L56.1317 49.2846ZM50.3999 50.2135L54.1919 50.7464L54.6699 47.3448L50.878 46.8119L50.3999 50.2135ZM50.463 37.4238L48.9381 48.2736L52.3398 48.7517L53.8646 37.9018L50.463 37.4238ZM56.1948 36.4949L52.4028 35.962L51.9248 39.3636L55.7167 39.8966L56.1948 36.4949ZM20.3553 45.991C22.2709 46.2602 23.999 46.0739 25.3578 45.2555C26.7761 44.4012 27.5266 43.0194 27.742 41.4864L24.3404 41.0083C24.2422 41.7067 23.9645 42.0846 23.5854 42.313C23.1467 42.5772 22.3082 42.7966 20.8334 42.5894L20.3553 45.991ZM13.9977 45.0975L20.3553 45.991L20.8334 42.5894L14.4757 41.6958L13.9977 45.0975ZM14.4798 29.3263L12.5359 43.1576L15.9375 43.6357L17.8814 29.8044L14.4798 29.3263ZM22.5888 28.7315L16.4196 27.8645L15.9415 31.2661L22.1107 32.1332L22.5888 28.7315ZM28.0669 34.909C28.2863 33.3475 27.9227 31.8457 26.8367 30.6827C25.7986 29.5711 24.2875 28.9703 22.5888 28.7315L22.1107 32.1332C23.3556 32.3081 24.0122 32.691 24.3261 33.0272C24.5922 33.3121 24.7648 33.7222 24.6652 34.4309L28.0669 34.909ZM23.6874 39.1591C24.7808 39.0405 25.8065 38.6138 26.6091 37.8493C27.4151 37.0815 27.9052 36.0592 28.0669 34.909L24.6652 34.4309C24.5993 34.9004 24.4251 35.1856 24.2398 35.3621C24.0512 35.5418 23.7587 35.6962 23.3167 35.7441L23.6874 39.1591ZM27.7533 41.488C27.9232 40.2786 27.6841 39.0785 27.0109 38.051C26.344 37.0331 25.3223 36.2903 24.094 35.8393L22.9101 39.0639C23.5752 39.3081 23.9447 39.639 24.1376 39.9335C24.3242 40.2183 24.4135 40.5693 24.3516 41.0099L27.7533 41.488ZM25.8022 42.9482L25.8134 42.9497L26.2915 39.5481L26.2802 39.5465L25.8022 42.9482ZM20.9092 34.3614L19.4247 34.1527L18.9466 37.5544L20.4312 37.763L20.9092 34.3614ZM20.7547 34.7332C20.7472 34.7861 20.7442 34.7448 20.7956 34.6609C20.8529 34.5674 20.9411 34.4817 21.0416 34.4251C21.1317 34.3744 21.1859 34.3726 21.1611 34.3753C21.1339 34.3783 21.0546 34.3818 20.9092 34.3614L20.4312 37.763C21.0918 37.8559 21.9475 37.8571 22.7267 37.4185C23.6027 36.9253 24.034 36.0815 24.1563 35.2113L20.7547 34.7332ZM20.8007 35.1333C20.9461 35.1537 21.0214 35.1789 21.0467 35.1893C21.0698 35.1987 21.0182 35.1821 20.9455 35.1085C20.8646 35.0265 20.8034 34.9197 20.7741 34.814C20.7478 34.7193 20.7621 34.6804 20.7547 34.7332L24.1563 35.2113C24.2786 34.3411 24.0966 33.4111 23.3905 32.6956C22.7623 32.0591 21.9394 31.8245 21.2788 31.7316L20.8007 35.1333ZM19.3162 34.9246L20.8007 35.1333L21.2788 31.7316L19.7943 31.523L19.3162 34.9246ZM20.8865 36.0926L21.256 33.4628L17.8544 32.9848L17.4848 35.6145L20.8865 36.0926ZM20.7368 39.3434L18.7347 39.0621L18.2567 42.4637L20.2587 42.7451L20.7368 39.3434ZM20.4757 39.795C20.4745 39.8035 20.4817 39.7433 20.5368 39.6531C20.5957 39.5565 20.6819 39.4716 20.7786 39.414C20.8686 39.3604 20.9294 39.353 20.9244 39.3537C20.9167 39.3547 20.8585 39.3605 20.7368 39.3434L20.2587 42.7451C20.956 42.8431 21.7906 42.8093 22.536 42.3655C23.3489 41.8815 23.7629 41.0874 23.8773 40.2731L20.4757 39.795ZM20.602 40.3024C20.724 40.3195 20.7786 40.3412 20.7859 40.3444C20.7908 40.3466 20.7345 40.3228 20.6626 40.2464C20.5853 40.1643 20.5256 40.0587 20.4954 39.9492C20.4672 39.8469 20.4769 39.7867 20.4757 39.795L23.8773 40.2731C23.9918 39.4584 23.8123 38.5807 23.1636 37.8917C22.5691 37.2603 21.7764 36.9986 21.0801 36.9007L20.602 40.3024ZM18.6 40.021L20.602 40.3024L21.0801 36.9007L19.078 36.6194L18.6 40.021ZM20.1965 41.0019L20.5398 38.5592L17.1382 38.0811L16.7949 40.5238L20.1965 41.0019ZM30.3347 47.6797C31.5221 47.8466 32.6802 47.7254 33.6822 47.1948C34.7052 46.6531 35.4017 45.7703 35.783 44.7265L32.5566 43.5478C32.4303 43.8933 32.2582 44.0619 32.0747 44.1591C31.8702 44.2674 31.4841 44.3724 30.8127 44.278L30.3347 47.6797ZM26.0364 41.4853C25.8144 43.0644 26.0474 44.5402 26.881 45.7063C27.7216 46.8821 28.9927 47.4911 30.3347 47.6797L30.8127 44.278C30.1754 44.1885 29.8483 43.9504 29.6755 43.7086C29.4957 43.4571 29.3001 42.9447 29.438 41.9634L26.0364 41.4853ZM27.0692 34.136L26.0364 41.4853L29.438 41.9634L30.4709 34.6141L27.0692 34.136ZM32.8226 33.2102L29.0091 32.6743L28.531 36.0759L32.3445 36.6118L32.8226 33.2102ZM33.3635 41.7024L34.2844 35.1501L30.8827 34.672L29.9619 41.2243L33.3635 41.7024ZM32.8641 41.6694C32.8463 41.6666 32.933 41.6771 33.0536 41.7622C33.1843 41.8544 33.27 41.9744 33.3137 42.0721C33.35 42.1533 33.3404 42.1806 33.3362 42.1053C33.332 42.0314 33.3354 41.9023 33.3635 41.7024L29.9619 41.2243C29.8724 41.8607 29.8318 42.7 30.1775 43.4737C30.598 44.4144 31.424 44.9229 32.3405 45.0643L32.8641 41.6694ZM32.8758 40.6992C32.8273 41.0446 32.7603 41.3003 32.6931 41.4811C32.6252 41.6635 32.5673 41.7423 32.5513 41.7614C32.5405 41.7742 32.5747 41.7306 32.6632 41.6957C32.7538 41.66 32.8248 41.6637 32.8413 41.666L32.3633 45.0676C33.4669 45.2227 34.4787 44.8091 35.1836 43.9684C35.8144 43.216 36.132 42.2127 36.2775 41.1772L32.8758 40.6992ZM33.6679 35.0631L32.8758 40.6992L36.2775 41.1772L37.0696 35.5412L33.6679 35.0631ZM39.4231 34.1376L35.6078 33.6013L35.1297 37.003L38.9451 37.5392L39.4231 34.1376ZM39.3601 46.9273L40.8849 36.0774L37.4833 35.5993L35.9584 46.4492L39.3601 46.9273ZM34.0055 47.9091L37.4202 48.389L37.8983 44.9874L34.4836 44.5075L34.0055 47.9091ZM32.4534 44.1991L32.5282 46.2703L35.961 46.1464L35.8862 44.0752L32.4534 44.1991ZM41.2119 43.7773C41.2889 44.6137 41.6254 45.3726 42.2061 45.9495C42.777 46.5167 43.4987 46.8242 44.2218 46.9259L44.6999 43.5242C44.6516 43.5175 44.6255 43.507 44.6168 43.5029C44.6091 43.4992 44.6154 43.501 44.627 43.5126C44.6395 43.5249 44.6461 43.5367 44.6475 43.5397C44.6485 43.5419 44.6378 43.5202 44.6325 43.4624L41.2119 43.7773ZM40.178 46.0765L43.3389 45.286L42.5055 41.9536L39.3447 42.744L40.178 46.0765ZM44.3369 46.1926C43.2876 46.0451 42.61 45.7542 42.1924 45.4258C41.8118 45.1264 41.5578 44.7294 41.4546 44.1224L38.0681 44.6981C38.3069 46.1025 38.9849 47.2734 40.0689 48.1259C41.116 48.9493 42.4357 49.3942 43.8589 49.5942L44.3369 46.1926ZM47.8181 44.8018C47.7221 45.4853 47.4225 45.7994 46.9729 46.0026C46.4116 46.2563 45.5141 46.358 44.3369 46.1926L43.8589 49.5942C45.3661 49.806 46.9994 49.7603 48.3877 49.1328C49.8876 48.4548 50.9564 47.154 51.2198 45.2798L47.8181 44.8018ZM46.0736 42.6747C47.0082 42.9658 47.4277 43.3316 47.6169 43.6046C47.7917 43.8568 47.9004 44.2163 47.8181 44.8018L51.2198 45.2798C51.3945 44.0365 51.21 42.7586 50.4402 41.6479C49.6848 40.5579 48.5085 39.8352 47.0951 39.395L46.0736 42.6747ZM44.6164 42.1854L46.0372 42.6629L47.1315 39.4068L45.7107 38.9293L44.6164 42.1854ZM42.6848 39.467C42.5879 40.1563 42.7757 40.8619 43.2963 41.4093C43.7289 41.8642 44.2724 42.0805 44.6595 42.1993L45.6676 38.9155C45.4909 38.8612 45.6157 38.8636 45.7854 39.0421C45.8872 39.1491 45.988 39.3022 46.0465 39.4956C46.1038 39.6847 46.1005 39.8451 46.0864 39.945L42.6848 39.467ZM45.6395 37.453C45.1231 37.3804 44.494 37.4142 43.9078 37.7249C43.266 38.065 42.7948 38.6844 42.6848 39.467L46.0864 39.945C46.0649 40.0981 46.0042 40.2702 45.8893 40.4305C45.7759 40.5888 45.639 40.695 45.5163 40.76C45.2872 40.8815 45.1357 40.851 45.1614 40.8546L45.6395 37.453ZM48.2057 40.1951C48.174 39.6081 47.9919 38.9272 47.4704 38.3608C46.9499 37.7955 46.2735 37.5421 45.6395 37.453L45.1614 40.8546C45.258 40.8682 45.1098 40.8683 44.9433 40.6874C44.7758 40.5055 44.7734 40.3402 44.7756 40.3802L48.2057 40.1951ZM50.0114 38.5422L46.477 38.5702L46.5043 42.0052L50.0386 41.9771L50.0114 38.5422ZM45.6382 38.2174C46.7263 38.3703 47.3722 38.6944 47.735 39.0235C48.0632 39.3214 48.2759 39.7251 48.31 40.3529L51.74 40.1665C51.6619 38.7295 51.1075 37.4454 50.0434 36.4797C49.0137 35.5454 47.6419 35.0302 46.1163 34.8158L45.6382 38.2174ZM42.3776 39.7609C42.4819 39.0186 42.8148 38.666 43.2609 38.4477C43.7999 38.1841 44.6293 38.0756 45.6382 38.2174L46.1163 34.8158C44.7 34.6168 43.1141 34.6956 41.7515 35.3621C40.2961 36.074 39.2414 37.3944 38.976 39.2828L42.3776 39.7609ZM43.8265 41.5486C43.0513 41.2655 42.6964 40.9645 42.5379 40.7445C42.4107 40.568 42.302 40.2991 42.3776 39.7609L38.976 39.2828C38.8009 40.5289 39.0142 41.73 39.7509 42.7525C40.4562 43.7315 41.5068 44.3584 42.648 44.7752L43.8265 41.5486ZM45.2381 42.058L43.8202 41.5463L42.6543 44.7774L44.0721 45.2891L45.2381 42.058ZM47.4134 44.922C47.4652 44.5535 47.4393 44.147 47.2814 43.742C47.1262 43.3438 46.881 43.0437 46.6363 42.8248C46.1956 42.4307 45.6442 42.2055 45.2414 42.0592L44.0688 45.2879C44.221 45.3432 44.3154 45.3845 44.3709 45.4126C44.4297 45.4425 44.4051 45.4377 44.3465 45.3853C44.28 45.3259 44.162 45.1975 44.081 44.9898C43.9974 44.7752 43.9929 44.578 44.0118 44.444L47.4134 44.922ZM44.2218 46.9259C44.718 46.9956 45.3542 47.0046 45.9633 46.7578C46.6674 46.4724 47.2833 45.8477 47.4134 44.922L44.0118 44.444C44.037 44.2646 44.1156 44.0594 44.2669 43.8783C44.412 43.7046 44.5709 43.6156 44.6731 43.5742C44.8437 43.5051 44.8869 43.5505 44.6999 43.5242L44.2218 46.9259ZM63.1353 41.9055C63.3759 41.4373 63.6525 41.207 63.9164 41.0838C64.1965 40.9531 64.5971 40.8819 65.1583 40.9608L65.6364 37.5592C64.5737 37.4098 63.4748 37.4992 62.4638 37.971C61.4365 38.4504 60.6301 39.2646 60.0798 40.336L63.1353 41.9055ZM59.8364 39.0259L59.8906 41.1643L63.3246 41.0773L63.2704 38.9389L59.8364 39.0259ZM57.8997 40.2033L61.3144 40.6832L61.7924 37.2816L58.3777 36.8017L57.8997 40.2033ZM58.3147 49.5914L59.8395 38.7416L56.4379 38.2635L54.913 49.1133L58.3147 49.5914ZM60.6446 48.1844L56.8529 47.6516L56.3748 51.0532L60.1665 51.5861L60.6446 48.1844ZM59.5199 43.8458L58.7047 49.6462L62.1063 50.1243L62.9215 44.3239L59.5199 43.8458ZM63.2933 40.4378C62.5309 40.3307 61.5735 40.4439 60.7699 41.1648C60.0198 41.8376 59.6652 42.8117 59.5199 43.8458L62.9215 44.3239C62.964 44.022 63.0222 43.8445 63.0625 43.7527C63.101 43.6652 63.1135 43.6771 63.0636 43.7218C63.0079 43.7718 62.9324 43.8107 62.86 43.8283C62.7982 43.8433 62.7764 43.834 62.8152 43.8395L63.2933 40.4378ZM65.8003 44.3442C65.8926 43.6873 65.9271 42.8193 65.5488 42.0226C65.097 41.0712 64.2379 40.5706 63.2933 40.4378L62.8152 43.8395C62.8584 43.8455 62.7934 43.844 62.688 43.773C62.6358 43.7379 62.5848 43.693 62.5398 43.6399C62.4953 43.5873 62.4651 43.5367 62.4458 43.496C62.4093 43.4192 62.4188 43.394 62.4238 43.4677C62.4288 43.5409 62.4264 43.6688 62.3987 43.8661L65.8003 44.3442ZM64.9321 50.5217L65.8003 44.3442L62.3987 43.8661L61.5305 50.0437L64.9321 50.5217ZM67.2623 49.1148L63.4703 48.5819L62.9923 51.9835L66.7842 52.5164L67.2623 49.1148ZM66.3953 42.9431L65.3225 50.5766L68.7241 51.0547L69.7969 43.4212L66.3953 42.9431ZM65.1583 40.9608C65.6687 41.0325 65.986 41.2303 66.159 41.4483C66.3145 41.6445 66.5189 42.0637 66.3953 42.9431L69.7969 43.4212C70.0212 41.8252 69.7127 40.4009 68.8501 39.3136C68.005 38.2481 66.799 37.7226 65.6364 37.5592L65.1583 40.9608ZM74.2147 50.9015C74.8776 51.0011 75.6456 50.9555 76.372 50.5314C77.0807 50.1177 77.528 49.4723 77.8214 48.8109L74.6815 47.4179C74.6257 47.5436 74.5852 47.5993 74.5735 47.614C74.5683 47.6204 74.571 47.6161 74.5829 47.6055C74.5952 47.5947 74.6143 47.58 74.6402 47.5649C74.6662 47.5498 74.6938 47.5372 74.7211 47.5279C74.7482 47.5187 74.7699 47.5143 74.7835 47.5123C74.8093 47.5087 74.7954 47.5151 74.725 47.5045L74.2147 50.9015ZM71.1975 46.7291C71.1182 47.6424 71.2453 48.6168 71.8 49.4408C72.3825 50.306 73.2725 50.7631 74.2203 50.9023L74.7194 47.5037C74.6207 47.4892 74.5903 47.4687 74.5991 47.4738C74.6128 47.4818 74.6349 47.5008 74.6495 47.5225C74.675 47.5604 74.5825 47.4545 74.6197 47.0261L71.1975 46.7291ZM79.7869 46.1098L73.1476 45.1767L72.6695 48.5784L79.3089 49.5115L79.7869 46.1098ZM78.0855 46.2164C78.0292 46.617 77.9723 47.0142 77.8774 47.4115L81.2184 48.2098C81.3565 47.6318 81.4329 47.0809 81.4872 46.6945L78.0855 46.2164ZM75.3735 42.3964C76.6107 42.5703 77.286 43.0552 77.6537 43.5892C78.0389 44.1485 78.2553 45.0084 78.0855 46.2164L81.4872 46.6945C81.7411 44.8878 81.4838 43.0945 80.4828 41.6409C79.4644 40.162 77.8409 39.2744 75.8516 38.9948L75.3735 42.3964ZM71.0117 45.9631C71.225 44.4454 71.7886 43.519 72.4409 43.0021C73.0819 42.4941 74.0277 42.2073 75.3735 42.3964L75.8516 38.9948C73.7824 38.704 71.8348 39.0995 70.3075 40.3098C68.7915 41.5112 67.9117 43.339 67.6101 45.485L71.0117 45.9631ZM74.3454 50.3964C73.0906 50.2201 72.2003 49.6946 71.6632 49.01C71.1354 48.3372 70.8176 47.3447 71.0117 45.9631L67.6101 45.485C67.306 47.6488 67.7727 49.6161 68.9606 51.1303C70.1392 52.6326 71.8957 53.521 73.8674 53.7981L74.3454 50.3964ZM77.6863 48.8772C77.3818 49.6011 76.9459 49.9855 76.4558 50.2011C75.9253 50.4345 75.2113 50.5181 74.3454 50.3964L73.8674 53.7981C75.1675 53.9808 76.5646 53.906 77.8389 53.3454C79.1536 52.7671 80.2162 51.7223 80.8527 50.2088L77.6863 48.8772ZM75.5166 49.6668L78.5346 51.0954L80.0043 47.9906L76.9863 46.562L75.5166 49.6668ZM74.8696 45.1317C74.9129 45.1378 74.8587 45.1376 74.7686 45.0746C74.7256 45.0445 74.6851 45.0073 74.6503 44.9655C74.616 44.9242 74.5933 44.8858 74.5793 44.8566C74.5529 44.8017 74.5611 44.7889 74.5661 44.8492C74.5711 44.9087 74.5703 45.0073 74.5506 45.1477L77.9522 45.6257C78.0392 45.0066 78.0562 44.1606 77.675 43.3679C77.2336 42.4499 76.3922 41.8769 75.3477 41.7301L74.8696 45.1317ZM74.9321 45.3621C74.9579 45.2532 74.9909 45.1764 75.0179 45.1281C75.0451 45.0798 75.0617 45.0677 75.0539 45.0745C75.044 45.0831 75.0139 45.1049 74.9648 45.1198C74.9141 45.1351 74.8772 45.1328 74.8696 45.1317L75.3477 41.7301C74.3793 41.594 73.4832 41.8903 72.8046 42.4783C72.1569 43.0395 71.771 43.8036 71.5894 44.5707L74.9321 45.3621ZM76.4904 43.6859L73.4998 43.2656L73.0217 46.6672L76.0124 47.0875L76.4904 43.6859ZM82.0921 49.5194C82.1677 50.3581 82.505 51.1182 83.0863 51.6952C83.6575 52.2622 84.3795 52.5697 85.1023 52.6712L85.5804 49.2696C85.5321 49.2628 85.5057 49.2523 85.4967 49.2481C85.4886 49.2443 85.4947 49.2458 85.5064 49.2574C85.5189 49.2698 85.5258 49.2818 85.5274 49.2855C85.5288 49.2885 85.5184 49.2677 85.5133 49.211L82.0921 49.5194ZM81.0285 51.8195L84.2145 51.0326L83.3908 47.6978L80.2048 48.4847L81.0285 51.8195ZM85.1922 51.9344C84.1429 51.787 83.4653 51.496 83.0477 51.1676C82.6671 50.8683 82.4131 50.4713 82.3099 49.8643L78.9234 50.4399C79.1622 51.8444 79.8402 53.0152 80.9242 53.8677C81.9713 54.6911 83.291 55.136 84.7142 55.3361L85.1922 51.9344ZM88.6716 50.5433C88.5755 51.2274 88.2758 51.5415 87.8269 51.7445C87.2662 51.9981 86.3694 52.0999 85.1922 51.9344L84.7142 55.3361C86.2214 55.5479 87.8545 55.5021 89.2424 54.8743C90.7421 54.1961 91.8099 52.895 92.0732 51.0214L88.6716 50.5433ZM86.9573 48.4205C87.8895 48.7109 88.2972 49.0734 88.4785 49.3388C88.6473 49.5859 88.7556 49.946 88.6716 50.5433L92.0732 51.0214C92.2463 49.7899 92.0757 48.5147 91.3148 47.401C90.5663 46.3055 89.3933 45.5815 87.979 45.1409L86.9573 48.4205ZM85.4991 47.9312L86.9213 48.4089L88.015 45.1525L86.5927 44.6749L85.4991 47.9312ZM83.5671 45.2126C83.4702 45.902 83.658 46.6076 84.1786 47.1549C84.6112 47.6099 85.1547 47.8261 85.5418 47.9449L86.5499 44.6611C86.3733 44.6069 86.498 44.6093 86.6678 44.7877C86.7695 44.8947 86.8703 45.0478 86.9289 45.2412C86.9861 45.4303 86.9828 45.5907 86.9687 45.6907L83.5671 45.2126ZM86.52 43.1984C86.0035 43.1258 85.3739 43.1595 84.7872 43.4714C84.1447 43.813 83.6767 44.4331 83.5671 45.2126L86.9687 45.6907C86.9474 45.8424 86.8873 46.0137 86.7729 46.1739C86.6599 46.3322 86.5231 46.4389 86.3998 46.5045C86.1692 46.6271 86.0163 46.5964 86.0419 46.6L86.52 43.1984ZM89.0861 45.9454C89.056 45.3549 88.8731 44.6725 88.3508 44.1057C87.8302 43.5407 87.1537 43.2875 86.52 43.1984L86.0419 46.6C86.1385 46.6136 85.9909 46.6139 85.8247 46.4335C85.6567 46.2512 85.6537 46.0844 85.6555 46.1206L89.0861 45.9454ZM90.8916 44.2875L87.3572 44.3155L87.3844 47.7505L90.9188 47.7225L90.8916 44.2875ZM86.5184 43.9628C87.6065 44.1157 88.2524 44.4397 88.6152 44.7689C88.9434 45.0667 89.156 45.4704 89.1902 46.0982L92.6202 45.9118C92.5421 44.4749 91.9877 43.1907 90.9235 42.225C89.8939 41.2907 88.5221 40.7755 86.9965 40.5611L86.5184 43.9628ZM83.2578 45.5062C83.3621 44.7639 83.695 44.4112 84.141 44.193C84.6799 43.9294 85.5093 43.8209 86.5184 43.9628L86.9965 40.5611C85.5801 40.3621 83.9941 40.4409 82.6316 41.1074C81.1762 41.8194 80.1216 43.1398 79.8562 45.0281L83.2578 45.5062ZM84.7079 47.294C83.9307 47.0104 83.5758 46.7093 83.4176 46.4898C83.2909 46.3138 83.1821 46.0452 83.2578 45.5062L79.8562 45.0281C79.6812 46.2735 79.8935 47.4748 80.6306 48.4978C81.3362 49.4772 82.3879 50.1041 83.5306 50.521L84.7079 47.294ZM86.1189 47.8035L84.7026 47.292L83.5359 50.5229L84.9522 51.0343L86.1189 47.8035ZM88.2957 50.6677C88.3477 50.298 88.3213 49.8908 88.1627 49.4855C88.0069 49.0873 87.7612 48.7876 87.5165 48.5692C87.0758 48.1758 86.5246 47.9508 86.1217 47.8045L84.9494 51.0333C85.1018 51.0886 85.1965 51.13 85.2524 51.1584C85.3116 51.1884 85.2875 51.1839 85.2292 51.132C85.1633 51.0731 85.0452 50.9451 84.9639 50.7374C84.8798 50.5226 84.8751 50.3247 84.8941 50.1896L88.2957 50.6677ZM85.1023 52.6712C85.5986 52.741 86.2345 52.75 86.8434 52.5039C87.5466 52.2196 88.1653 51.5957 88.2957 50.6677L84.8941 50.1896C84.9194 50.0091 84.9987 49.8035 85.1503 49.6223C85.2956 49.4488 85.4545 49.3602 85.5561 49.3191C85.7255 49.2507 85.7676 49.2959 85.5804 49.2696L85.1023 52.6712ZM96.5228 50.8075C96.4745 50.8007 96.4481 50.7902 96.4391 50.7859C96.4311 50.7821 96.4372 50.7837 96.4488 50.7953C96.4613 50.8076 96.4682 50.8197 96.4699 50.8234C96.4712 50.8263 96.4608 50.8056 96.4557 50.7488L93.0345 51.0572C93.1101 51.896 93.4475 52.656 94.0288 53.2331C94.5999 53.8001 95.3219 54.1075 96.0447 54.2091L96.5228 50.8075ZM95.8347 51.7272C95.8601 51.5467 95.9393 51.3412 96.0907 51.1602C96.2358 50.9868 96.3945 50.8982 96.4961 50.8571C96.6658 50.7884 96.7085 50.8336 96.5228 50.8075L96.0447 54.2091C96.5408 54.2788 97.1764 54.2875 97.785 54.0412C98.4876 53.7568 99.1059 53.1331 99.2363 52.2053L95.8347 51.7272ZM95.89 52.5709C96.0424 52.6262 96.1371 52.6676 96.193 52.696C96.2522 52.726 96.2281 52.7215 96.1699 52.6696C96.1039 52.6107 95.9858 52.4827 95.9045 52.275C95.8204 52.0603 95.8157 51.8623 95.8347 51.7272L99.2363 52.2053C99.2883 51.8356 99.2619 51.4284 99.1033 51.0231C98.9475 50.6249 98.7019 50.3252 98.4571 50.1068C98.0164 49.7134 97.4652 49.4884 97.0623 49.3421L95.89 52.5709ZM94.4765 52.0605L95.8928 52.5719L97.0595 49.3411L95.6432 48.8296L94.4765 52.0605ZM90.7968 46.5657C90.6217 47.8119 90.835 49.0132 91.5721 50.0358C92.2778 51.0148 93.329 51.6417 94.4709 52.0585L95.6488 48.8317C94.8726 48.5483 94.5173 48.2472 94.3587 48.0272C94.2315 47.8508 94.1228 47.582 94.1984 47.0438L90.7968 46.5657ZM97.9371 42.0987C96.5207 41.8997 94.9347 41.9785 93.5722 42.645C92.1168 43.357 91.0622 44.6774 90.7968 46.5657L94.1984 47.0438C94.3028 46.3015 94.6357 45.9488 95.0817 45.7307C95.6205 45.467 96.4499 45.3585 97.459 45.5004L97.9371 42.0987ZM103.561 47.4494C103.483 46.0125 102.928 44.7283 101.864 43.7627C100.835 42.8283 99.4627 42.3131 97.9371 42.0987L97.459 45.5004C98.5471 45.6533 99.193 45.9773 99.5558 46.3065C99.884 46.6043 100.097 47.008 100.131 47.6358L103.561 47.4494ZM98.3251 49.2881L101.859 49.2601L101.832 45.8251L98.2978 45.8531L98.3251 49.2881ZM96.9843 48.1379C97.079 48.1512 96.9311 48.1509 96.7649 47.9704C96.5973 47.7883 96.5943 47.6219 96.5961 47.6582L100.027 47.483C99.9966 46.8925 99.8138 46.2106 99.2923 45.644C98.7722 45.079 98.0962 44.8253 97.4624 44.7363L96.9843 48.1379ZM97.9097 47.2283C97.8882 47.3811 97.8275 47.5531 97.7128 47.7134C97.5994 47.8717 97.4625 47.978 97.3398 48.0431C97.1103 48.1648 96.9587 48.1343 96.9843 48.1379L97.4624 44.7363C96.946 44.6637 96.3168 44.6974 95.7306 45.0083C95.0886 45.3487 94.6179 45.9682 94.508 46.7503L97.9097 47.2283ZM97.4908 46.1988C97.3142 46.1445 97.439 46.1469 97.6087 46.3254C97.7104 46.4324 97.8112 46.5855 97.8698 46.7789C97.9271 46.968 97.9237 47.1284 97.9097 47.2283L94.508 46.7503C94.4112 47.4396 94.5989 48.1452 95.1195 48.6926C95.5521 49.1475 96.0957 49.3637 96.4828 49.4826L97.4908 46.1988ZM98.9547 46.6901L97.5339 46.2126L96.4397 49.4687L97.8604 49.9462L98.9547 46.6901ZM103.043 52.5631C103.218 51.3191 103.033 50.0413 102.263 48.9309C101.507 47.8412 100.331 47.1185 98.9184 46.6783L97.8967 49.9579C98.8304 50.2488 99.2502 50.6147 99.4397 50.888C99.6148 51.1405 99.7236 51.5002 99.6414 52.085L103.043 52.5631ZM95.6821 56.8775C97.1901 57.0894 98.8236 57.0438 100.212 56.4161C101.712 55.7379 102.78 54.4368 103.043 52.5631L99.6414 52.085C99.5452 52.7691 99.2456 53.0831 98.7966 53.2861C98.2357 53.5397 97.3384 53.6415 96.1602 53.4759L95.6821 56.8775ZM89.8913 51.9814C90.1301 53.3858 90.8081 54.5567 91.8922 55.4092C92.9392 56.2326 94.2589 56.6775 95.6821 56.8775L96.1602 53.4759C95.1108 53.3284 94.4332 53.0374 94.0156 52.709C93.635 52.4097 93.381 52.0127 93.2778 51.4057L89.8913 51.9814ZM94.3284 49.2368L91.1679 50.0273L92.0013 53.3597L95.1618 52.5693L94.3284 49.2368ZM20.9299 60.0904C20.9283 60.0886 20.9281 60.0885 20.9261 60.0848C20.9232 60.0793 20.9129 60.0586 20.899 60.0118C20.8657 59.8996 20.8366 59.7304 20.8012 59.398L17.3855 59.7618C17.4562 60.4254 17.5717 61.4938 18.3764 62.388L20.9299 60.0904ZM21.3529 61.4855L21.354 61.4783L17.9523 61.0002L17.9513 61.0075L21.3529 61.4855ZM24.1172 60.1396L19.8912 59.5457L19.4131 62.9473L23.6391 63.5412L24.1172 60.1396ZM21.5453 60.3622C21.6443 61.1484 21.8395 61.9927 22.5085 62.8768L25.2477 60.804C25.0814 60.5842 25.0127 60.4037 24.9535 59.9331L21.5453 60.3622ZM21.2203 57.9079L21.5467 60.3731L24.9521 59.9222L24.6256 57.4569L21.2203 57.9079ZM20.3716 56.9516C20.8349 57.1212 20.9814 57.2578 21.0332 57.319C21.0729 57.3657 21.1663 57.493 21.2198 57.9041L24.6261 57.4607C24.5159 56.6142 24.2449 55.7951 23.653 55.0972C23.0733 54.4136 22.3211 54.0072 21.5522 53.7258L20.3716 56.9516ZM22.6995 51.9922C22.6014 52.6907 22.3332 53.046 22.0824 53.2459C21.8051 53.4671 21.4049 53.6091 20.9172 53.6218L21.0066 57.0557C22.0845 57.0276 23.2501 56.7081 24.2238 55.9318C25.2241 55.1344 25.8923 53.9563 26.1012 52.4703L22.6995 51.9922ZM19.5209 48.8496C20.8995 49.0434 21.7459 49.4439 22.1982 49.8949C22.5723 50.268 22.8595 50.854 22.6995 51.9922L26.1012 52.4703C26.3816 50.4748 25.9028 48.738 24.6237 47.4625C23.4228 46.265 21.7287 45.6911 19.9989 45.448L19.5209 48.8496ZM13.5875 48.0157L19.5209 48.8496L19.9989 45.448L14.0656 44.6141L13.5875 48.0157ZM13.5834 60.3862L15.5274 46.554L12.1257 46.0759L10.1818 59.9081L13.5834 60.3862ZM15.9591 58.9857L12.1216 58.4463L11.6435 61.848L15.481 62.3873L15.9591 58.9857ZM14.643 56.0091L14.0192 60.4475L17.4209 60.9255L18.0446 56.4872L14.643 56.0091ZM17.7845 54.7162L16.5829 54.5474L16.1048 57.949L17.3064 58.1179L17.7845 54.7162ZM20.6203 57.6434C20.5586 56.9905 20.3786 56.1584 19.7027 55.524C19.0658 54.9264 18.2701 54.7845 17.7845 54.7162L17.3064 58.1179C17.39 58.1296 17.4508 58.1405 17.4951 58.15C17.5167 58.1547 17.5324 58.1586 17.5432 58.1615C17.5539 58.1645 17.5586 58.1661 17.5583 58.166C17.5551 58.1649 17.4609 58.1311 17.352 58.0288C17.2995 57.9796 17.2571 57.927 17.2251 57.8769C17.194 57.8283 17.1786 57.7913 17.1729 57.7759C17.1675 57.7616 17.1709 57.7669 17.1776 57.8C17.1844 57.8332 17.193 57.8867 17.2005 57.9666L20.6203 57.6434ZM20.8018 59.4038L20.6189 57.6289L17.2019 57.9811L17.3849 59.756L20.8018 59.4038ZM16.5403 54.8479L18.0249 55.0565L18.5029 51.6549L17.0184 51.4463L16.5403 54.8479ZM15.5076 49.8551L15.0785 52.9081L18.4802 53.3861L18.9092 50.3332L15.5076 49.8551ZM18.932 48.602L17.4474 48.3934L16.9694 51.795L18.4539 52.0036L18.932 48.602ZM22.1094 52.3414C22.228 51.4979 22.0924 50.5263 21.3706 49.741C20.7075 49.0195 19.786 48.722 18.932 48.602L18.4539 52.0036C18.681 52.0355 18.8099 52.0777 18.8706 52.1037C18.9274 52.128 18.8973 52.1263 18.8416 52.0656C18.8141 52.0357 18.787 51.9984 18.7641 51.9554C18.7414 51.9127 18.7279 51.8737 18.7204 51.8435C18.706 51.7851 18.7192 51.7818 18.7078 51.8634L22.1094 52.3414ZM18.0249 55.0565C18.8776 55.1764 19.8447 55.1454 20.6808 54.6363C21.5921 54.0815 21.9908 53.1852 22.1094 52.3414L18.7078 51.8634C18.6964 51.9443 18.6848 51.9366 18.7153 51.8836C18.731 51.8562 18.7551 51.8221 18.789 51.7871C18.8231 51.7519 18.8597 51.7234 18.8945 51.7022C18.965 51.6593 18.9943 51.666 18.9325 51.6738C18.8665 51.682 18.7304 51.6869 18.5029 51.6549L18.0249 55.0565ZM32.5336 57.3958L32.5285 57.3933L31.057 60.4972L31.0621 60.4996L32.5336 57.3958ZM29.7682 61.7363C30.3975 61.8214 31.1598 61.7929 31.8921 61.3793C32.6193 60.9686 33.0743 60.3149 33.3713 59.6362L30.2244 58.2592C30.1683 58.3872 30.129 58.4396 30.1213 58.4491C30.1183 58.4529 30.1234 58.4459 30.1383 58.4331C30.1535 58.42 30.1751 58.404 30.2027 58.3884C30.2303 58.3728 30.2581 58.3609 30.2836 58.3526C30.3087 58.3445 30.3266 58.3413 30.3344 58.3403C30.3474 58.3386 30.3183 58.3444 30.2284 58.3322L29.7682 61.7363ZM26.7259 57.5606C26.6467 58.4739 26.7737 59.4484 27.3285 60.2724C27.9111 61.1377 28.8013 61.5947 29.7492 61.7336L30.2474 58.3349C30.1488 58.3204 30.1184 58.2999 30.1273 58.3051C30.1411 58.3131 30.1633 58.3321 30.1779 58.3539C30.2035 58.3919 30.1109 58.286 30.1481 57.8576L26.7259 57.5606ZM35.3281 56.9432L28.6761 56.0083L28.198 59.4099L34.8501 60.3448L35.3281 56.9432ZM33.6268 57.0495C33.5705 57.4501 33.5136 57.8473 33.4186 58.245L36.7596 59.043C36.8978 58.4648 36.9741 57.914 37.0284 57.5276L33.6268 57.0495ZM30.9147 53.2295C32.1528 53.4035 32.828 53.8885 33.1954 54.4222C33.5803 54.9813 33.7966 55.8411 33.6268 57.0495L37.0284 57.5276C37.2823 55.7212 37.0256 53.9279 36.0247 52.4742C35.0064 50.9951 33.3827 50.1075 31.3928 49.8278L30.9147 53.2295ZM26.553 56.7961C26.7662 55.2787 27.3299 54.3523 27.9825 53.8353C28.6238 53.3272 29.5697 53.0404 30.9147 53.2295L31.3928 49.8278C29.3241 49.5371 27.3766 49.9327 25.8493 51.1429C24.3332 52.344 23.453 54.1717 23.1513 56.3181L26.553 56.7961ZM29.8866 61.2298C28.6314 61.0534 27.7411 60.5281 27.2042 59.8438C26.6766 59.1715 26.3586 58.179 26.553 56.7961L23.1513 56.3181C22.8471 58.4827 23.3136 60.4502 24.5018 61.9644C25.6806 63.4667 27.4373 64.3544 29.4086 64.6314L29.8866 61.2298ZM33.2259 59.711C32.922 60.4348 32.4866 60.819 31.997 61.0345C31.4669 61.2678 30.753 61.3515 29.8866 61.2298L29.4086 64.6314C30.7091 64.8142 32.1064 64.7393 33.3807 64.1785C34.6955 63.5999 35.7576 62.5545 36.3931 61.0407L33.2259 59.711ZM31.0619 60.4996L34.0736 61.9277L35.5454 58.8239L32.5337 57.3958L31.0619 60.4996ZM30.2247 58.2584L30.224 58.26L33.3717 59.6354L33.3724 59.6338L30.2247 58.2584ZM31.5537 60.6461L31.5595 60.6469L32.0376 57.2453L32.0318 57.2445L31.5537 60.6461ZM30.4122 55.9529C30.455 55.9589 30.4008 55.9587 30.3107 55.8956C30.216 55.8294 30.1533 55.7438 30.1217 55.6781C30.0954 55.6234 30.1036 55.6107 30.1087 55.6709C30.1137 55.7303 30.1128 55.8288 30.0932 55.9689L33.4948 56.4469C33.5819 55.8271 33.5984 54.9811 33.2171 54.1887C32.7757 53.2713 31.9348 52.6981 30.8903 52.5513L30.4122 55.9529ZM30.4745 56.1838C30.5004 56.0748 30.5334 55.998 30.5606 55.9496C30.5878 55.9011 30.6045 55.889 30.5968 55.8957C30.5869 55.9042 30.5568 55.926 30.5077 55.9409C30.4569 55.9563 30.4199 55.954 30.4122 55.9529L30.8903 52.5513C29.9216 52.4151 29.0256 52.7118 28.3471 53.2997C27.6997 53.8608 27.3139 54.6247 27.1321 55.3913L30.4745 56.1838ZM32.033 54.5071L29.0424 54.0868L28.5643 57.4884L31.5549 57.9087L32.033 54.5071ZM36.2956 54.2484L40.2994 54.8111L40.7775 51.4095L36.7737 50.8468L36.2956 54.2484ZM40.4862 63.5949L38.2191 52.2121L34.8502 52.8831L37.1173 64.2659L40.4862 63.5949ZM43.1296 62.8042L39.0408 62.2296L38.5627 65.6312L42.6515 66.2058L43.1296 62.8042ZM46.8562 53.404L41.3746 63.6977L44.4065 65.3123L49.8882 55.0185L46.8562 53.404ZM44.4374 55.3927L48.1331 55.9121L48.6112 52.5104L44.9155 51.991L44.4374 55.3927ZM44.1933 58.6124L46.221 54.443L43.1319 52.9407L41.1042 57.1101L44.1933 58.6124ZM41.5453 60.4138C43.1564 61.0089 43.1564 61.009 43.1563 61.0091C43.1563 61.0091 43.1563 61.0092 43.1563 61.0093C43.1562 61.0094 43.1562 61.0095 43.1562 61.0095C43.1561 61.0097 43.1561 61.0098 43.1561 61.0098C43.156 61.0099 43.1561 61.0097 43.1563 61.0093C43.1566 61.0084 43.1573 61.0065 43.1584 61.0036C43.1605 60.9979 43.1641 60.9883 43.1692 60.9748C43.1794 60.948 43.1954 60.9061 43.2172 60.8503C43.2607 60.7386 43.3272 60.5715 43.4155 60.358C43.5924 59.9307 43.8562 59.3202 44.1994 58.5997L41.0981 57.1228C40.7254 57.9052 40.4376 58.5709 40.2417 59.0442C40.1436 59.281 40.0684 59.4702 40.0169 59.6023C39.9911 59.6684 39.9713 59.7202 39.9574 59.7566C39.9505 59.7749 39.9451 59.7892 39.9412 59.7996C39.9393 59.8048 39.9377 59.809 39.9365 59.8122C39.9359 59.8138 39.9355 59.8151 39.9351 59.8162C39.9349 59.8167 39.9347 59.8172 39.9345 59.8176C39.9344 59.8178 39.9344 59.818 39.9343 59.8182C39.9343 59.8183 39.9342 59.8184 39.9342 59.8184C39.9342 59.8186 39.9341 59.8187 41.5453 60.4138ZM41.2592 62.108L41.3062 62.1146L41.7843 58.713L41.7373 58.7063L41.2592 62.108ZM39.7816 60.5036C39.7838 60.5263 39.7859 60.5478 39.7875 60.5633C39.7881 60.5695 39.7895 60.5828 39.791 60.5965C39.7913 60.5991 39.7939 60.6226 39.798 60.6511C39.7993 60.6597 39.8015 60.6748 39.8047 60.6936C39.8068 60.7063 39.8142 60.7494 39.8271 60.8038C39.8328 60.8279 39.8478 60.8895 39.8741 60.966C39.8871 61.0037 39.9125 61.0736 39.9532 61.1574C39.9815 61.2158 40.0771 61.4098 40.2679 61.6057C40.4412 61.7835 41.0463 62.2996 41.9309 62.0694C42.6654 61.8782 42.9658 61.3069 43.0193 61.2048C43.1131 61.026 43.1527 60.8722 43.1666 60.8152C43.1846 60.7414 43.1941 60.6811 43.199 60.6462L39.7974 60.1681C39.8023 60.1332 39.8118 60.0729 39.8299 59.9992C39.8438 59.9422 39.8834 59.7884 39.9771 59.6096C40.0306 59.5076 40.3311 58.9363 41.0656 58.7451C41.9501 58.5148 42.5552 59.0309 42.7285 59.2087C42.9193 59.4046 43.0149 59.5986 43.0432 59.657C43.0839 59.7408 43.1093 59.8106 43.1223 59.8484C43.1486 59.9248 43.1636 59.9864 43.1693 60.0104C43.1821 60.0647 43.1894 60.1076 43.1915 60.1201C43.1947 60.1387 43.1969 60.1536 43.1981 60.1618C43.2005 60.1784 43.2021 60.1913 43.2027 60.1963C43.2034 60.2026 43.204 60.2075 43.2043 60.2101C43.2052 60.2182 43.2056 60.2225 43.2051 60.2169C43.2042 60.2084 43.2028 60.1937 43.2003 60.1684L39.7816 60.5036ZM39.4717 57.8875C39.6581 59.2452 39.7559 60.2418 39.7816 60.5038L43.2003 60.1682C43.1726 59.8866 43.0698 58.8407 42.8748 57.4203L39.4717 57.8875ZM38.8375 53.3479L39.4723 57.8915L42.8743 57.4162L42.2395 52.8726L38.8375 53.3479ZM55.6428 52.4794C55.9652 50.1851 54.2883 48.5187 52.3694 48.2481L51.8897 51.6495C52.066 51.6744 52.1627 51.7497 52.2016 51.7966C52.2203 51.8192 52.231 51.8406 52.2374 51.863C52.2434 51.8844 52.2515 51.9275 52.2411 52.0014L55.6428 52.4794ZM51.3269 55.6442C53.2457 55.9139 55.3201 54.7756 55.6428 52.4794L52.2411 52.0014C52.2308 52.0751 52.2112 52.1141 52.1995 52.1329C52.1872 52.1527 52.171 52.1703 52.1465 52.187C52.0959 52.2216 51.9816 52.2674 51.805 52.2426L51.3269 55.6442ZM48.0525 51.4127C47.7274 53.7257 49.4184 55.376 51.3269 55.6442L51.805 52.2426C51.6252 52.2173 51.5286 52.1413 51.4916 52.0969C51.4738 52.0756 51.4638 52.0556 51.4576 52.0339C51.4518 52.0132 51.4431 51.9688 51.4541 51.8908L48.0525 51.4127ZM52.3517 48.2457C50.4702 48.0003 48.3797 49.0846 48.0525 51.4127L51.4541 51.8908C51.465 51.8131 51.4852 51.7745 51.4954 51.7582C51.5061 51.741 51.5202 51.7254 51.5434 51.7097C51.5927 51.6763 51.7139 51.6267 51.9074 51.6519L52.3517 48.2457ZM53.5548 66.0038L55.0796 55.1539L51.678 54.6759L50.1531 65.5257L53.5548 66.0038ZM47.8212 66.9324L51.6149 67.4656L52.093 64.0639L48.2992 63.5308L47.8212 66.9324ZM47.8842 54.1427L46.3594 64.9925L49.761 65.4706L51.2858 54.6207L47.8842 54.1427ZM53.6178 53.2141L49.8241 52.6809L49.346 56.0825L53.1398 56.6157L53.6178 53.2141ZM60.5166 64.6376L63.5354 66.0684L65.0066 62.9643L61.9878 61.5335L60.5166 64.6376ZM61.0016 64.7847L61.0131 64.7864L61.4912 61.3847L61.4797 61.3831L61.0016 64.7847ZM59.238 65.878C59.8627 65.9624 60.6289 65.9342 61.3616 65.5167C62.0967 65.0978 62.5505 64.4288 62.8337 63.7258L59.6475 62.4421C59.6237 62.5012 59.6033 62.5424 59.5881 62.5695C59.5731 62.5965 59.5643 62.6078 59.5641 62.6081C59.564 62.6082 59.566 62.6056 59.5703 62.601C59.5747 62.5964 59.5811 62.59 59.5897 62.5824C59.6077 62.5666 59.6316 62.5488 59.661 62.5321C59.6904 62.5153 59.7195 62.5029 59.7456 62.4944C59.7713 62.486 59.7897 62.4827 59.7978 62.4816C59.8055 62.4806 59.8021 62.4817 59.7853 62.4814C59.7682 62.4812 59.7398 62.4795 59.6981 62.4739L59.238 65.878ZM56.1957 61.7019C56.1162 62.6155 56.2433 63.5901 56.7982 64.4142C57.3808 65.2794 58.2711 65.7364 59.2189 65.8753L59.7172 62.4766C59.6185 62.4621 59.5881 62.4416 59.597 62.4468C59.6107 62.4547 59.6328 62.4737 59.6475 62.4955C59.6731 62.5336 59.5806 62.4278 59.6178 61.9997L56.1957 61.7019ZM64.7888 61.0836L58.1458 60.15L57.6677 63.5516L64.3107 64.4852L64.7888 61.0836ZM63.0874 61.1899C63.0311 61.5905 62.9742 61.9877 62.8792 62.3854L66.2203 63.1834C66.3584 62.6052 66.4347 62.0544 66.489 61.668L63.0874 61.1899ZM60.3754 57.3699C61.6114 57.5436 62.2869 58.0284 62.655 58.5628C63.0405 59.1223 63.2571 59.9823 63.0874 61.1899L66.489 61.668C66.743 59.8608 66.4851 58.0675 65.4839 56.6141C64.4653 55.1355 62.8421 54.2478 60.8534 53.9683L60.3754 57.3699ZM56.0136 60.9365C56.2269 59.4189 56.7904 58.4925 57.4428 57.9755C58.0838 57.4676 59.0296 57.1808 60.3754 57.3699L60.8534 53.9683C58.7843 53.6775 56.8367 54.073 55.3094 55.2833C53.7934 56.4846 52.9136 58.3124 52.612 60.4585L56.0136 60.9365ZM59.3454 65.3699C58.0914 65.1937 57.2015 64.6686 56.6647 63.9844C56.1372 63.312 55.8193 62.3195 56.0136 60.9365L52.612 60.4585C52.3078 62.6231 52.7743 64.5906 53.9621 66.1046C55.1406 67.6068 56.8968 68.4946 58.8674 68.7716L59.3454 65.3699ZM62.6878 63.8506C62.3832 64.5749 61.9474 64.9593 61.4577 65.1748C60.9275 65.4081 60.2132 65.4919 59.3454 65.3699L58.8674 68.7716C60.1689 68.9545 61.5665 68.8798 62.8411 68.319C64.1561 67.7404 65.218 66.6952 65.8543 65.1822L62.6878 63.8506ZM62.9554 60.5874C63.0424 59.9682 63.0593 59.1226 62.6788 58.3303C62.2381 57.4126 61.3975 56.8388 60.3527 56.6919L59.8747 60.0936C59.917 60.0995 59.8623 60.0991 59.7718 60.0357C59.6767 59.9692 59.614 59.8833 59.5823 59.8174C59.5561 59.7627 59.5643 59.7501 59.5694 59.8106C59.5744 59.8702 59.5735 59.969 59.5538 60.1093L62.9554 60.5874ZM58.0249 61.6288L61.0156 62.0491L61.4936 58.6475L58.503 58.2272L58.0249 61.6288ZM60.3527 56.6919C59.3841 56.5558 58.4871 56.8509 57.8073 57.44C57.1589 58.0018 56.774 58.7664 56.5926 59.5323L59.9353 60.3238C59.9612 60.2144 59.9942 60.1374 60.0213 60.0892C60.0484 60.0409 60.0648 60.029 60.0567 60.0361C60.0464 60.045 60.016 60.0669 59.967 60.0817C59.9165 60.097 59.8805 60.0944 59.8747 60.0936L60.3527 56.6919ZM78.4184 61.9404L78.1722 58.05L74.744 58.2669L74.9902 62.1574L78.4184 61.9404ZM78.5492 65.4615C78.5461 65.1466 78.532 63.7332 78.4184 61.9403L74.9902 62.1575C75.0981 63.8608 75.1114 65.204 75.1143 65.4956L78.5492 65.4615ZM75.1318 65.3017C75.1351 65.2786 75.1442 65.2158 75.1633 65.137C75.1725 65.0986 75.192 65.0233 75.2267 64.9317C75.2478 64.8761 75.3358 64.6415 75.5442 64.4051C75.6566 64.2775 75.8749 64.0681 76.2196 63.9364C76.6073 63.7883 77.0376 63.7849 77.4302 63.9306C78.0646 64.166 78.3194 64.6785 78.349 64.7342C78.477 64.9749 78.5149 65.1945 78.5155 65.1976C78.5358 65.2972 78.5424 65.3779 78.543 65.3846C78.5453 65.41 78.5466 65.43 78.5471 65.4395C78.5483 65.4594 78.5488 65.4748 78.549 65.4799C78.5493 65.4869 78.5494 65.4923 78.5495 65.4952C78.5497 65.5039 78.5497 65.5092 78.5497 65.504C78.5496 65.4968 78.5495 65.4842 78.5492 65.4615L75.1143 65.4955C75.1145 65.5153 75.1147 65.5347 75.1149 65.5484C75.115 65.5537 75.1151 65.5666 75.1155 65.5802C75.1155 65.5809 75.1161 65.6082 75.118 65.641C75.1186 65.6508 75.1198 65.671 75.1222 65.6966C75.1228 65.7034 75.1294 65.7843 75.1497 65.8839C75.1504 65.8871 75.1882 66.1067 75.3163 66.3474C75.3459 66.403 75.6006 66.9156 76.235 67.151C76.6277 67.2967 77.0579 67.2933 77.4456 67.1452C77.7904 67.0135 78.0086 66.8041 78.1211 66.6765C78.3295 66.4401 78.4174 66.2055 78.4385 66.1499C78.4733 66.0583 78.4927 65.9829 78.502 65.9446C78.5211 65.8657 78.5302 65.8028 78.5335 65.7797L75.1318 65.3017ZM77.1187 63.8465L77.0717 63.8399L76.5936 67.2415L76.6407 67.2481L77.1187 63.8465ZM76.4329 61.6659C76.0638 62.6229 75.7673 63.4603 75.5626 64.0595C75.4602 64.3595 75.3805 64.6005 75.326 64.7679C75.2988 64.8516 75.2778 64.917 75.2634 64.9622C75.2562 64.9848 75.2506 65.0024 75.2468 65.0146C75.2448 65.0208 75.2433 65.0256 75.2422 65.0291C75.2417 65.0308 75.2412 65.0322 75.2409 65.0333C75.2407 65.0338 75.2406 65.0343 75.2405 65.0346C75.2404 65.0348 75.2404 65.035 75.2403 65.0351C75.2403 65.0352 75.2403 65.0353 75.2403 65.0353C75.2402 65.0354 75.2402 65.0355 76.8797 65.5473C78.5192 66.0592 78.5192 66.0592 78.5192 66.0593C78.5191 66.0593 78.5191 66.0594 78.5191 66.0594C78.5191 66.0594 78.5191 66.0595 78.5191 66.0595C78.5191 66.0595 78.5191 66.0594 78.5192 66.0593C78.5192 66.059 78.5194 66.0584 78.5197 66.0574C78.5204 66.0555 78.5214 66.0522 78.5228 66.0477C78.5257 66.0385 78.5302 66.0242 78.5364 66.0049C78.5487 65.9663 78.5674 65.9078 78.5924 65.8312C78.6422 65.678 78.7167 65.4527 78.8133 65.1698C79.0068 64.6034 79.2881 63.809 79.6379 62.9018L76.4329 61.6659ZM77.8377 57.968L76.4298 61.6739L79.641 62.8938L81.0489 59.188L77.8377 57.968ZM83.3799 57.3968L79.6823 56.8772L79.2043 60.2788L82.9018 60.7985L83.3799 57.3968ZM80.2516 70.2099L84.7198 59.7737L81.562 58.4217L77.0938 68.8579L80.2516 70.2099ZM74.1722 70.6358L78.4337 71.2347L78.9118 67.8331L74.6502 67.2341L74.1722 70.6358ZM72.4831 65.7841L72.6974 69.0475L76.125 68.8224L75.9108 65.559L72.4831 65.7841ZM74.0966 62.113C72.3791 62.1085 72.3791 62.1086 72.3791 62.1087C72.3791 62.1087 72.3791 62.1088 72.3791 62.1088C72.3791 62.1089 72.3791 62.1091 72.3791 62.1093C72.3791 62.1096 72.3791 62.1101 72.3791 62.1107C72.3791 62.1119 72.3791 62.1136 72.3791 62.1157C72.379 62.1199 72.379 62.1259 72.379 62.1336C72.379 62.1492 72.379 62.1717 72.3791 62.2007C72.3791 62.2587 72.3794 62.3425 72.38 62.448C72.3812 62.6587 72.3839 62.9564 72.39 63.3064C72.4021 64.0025 72.4278 64.9222 72.4829 65.7815L75.911 65.5616C75.8607 64.7788 75.8362 63.9192 75.8245 63.2466C75.8187 62.9123 75.8161 62.6282 75.815 62.4283C75.8144 62.3284 75.8142 62.2497 75.8141 62.1965C75.8141 62.1698 75.8141 62.1496 75.8141 62.1363C75.8141 62.1296 75.8141 62.1246 75.8141 62.1215C75.8141 62.1199 75.8141 62.1188 75.8141 62.1181C75.8141 62.1178 75.8141 62.1176 75.8141 62.1175C75.8141 62.1174 75.8141 62.1174 75.8141 62.1174C75.8141 62.1174 75.8141 62.1174 75.8141 62.1174C75.8141 62.1175 75.8141 62.1175 74.0966 62.113ZM73.8123 63.8075L73.8576 63.8138L74.3356 60.4122L74.2904 60.4059L73.8123 63.8075ZM74.591 66.082C74.881 65.2689 75.1593 64.391 75.3629 63.7246C75.4653 63.3896 75.5499 63.1041 75.6092 62.9018C75.6388 62.8006 75.6622 62.72 75.6782 62.6643C75.6862 62.6365 75.6924 62.6148 75.6967 62.5999C75.6988 62.5924 75.7005 62.5866 75.7017 62.5826C75.7022 62.5806 75.7027 62.579 75.703 62.5779C75.7032 62.5773 75.7033 62.5768 75.7034 62.5765C75.7034 62.5763 75.7035 62.5762 75.7035 62.576C75.7035 62.576 75.7036 62.5759 75.7036 62.5759C75.7036 62.5758 75.7036 62.5758 74.0514 62.1067C72.3991 61.6376 72.3992 61.6375 72.3992 61.6375C72.3992 61.6375 72.3992 61.6375 72.3992 61.6375C72.3992 61.6375 72.3992 61.6375 72.3991 61.6375C72.3991 61.6376 72.3991 61.6379 72.399 61.6382C72.3988 61.6388 72.3985 61.6399 72.398 61.6414C72.3972 61.6444 72.3958 61.6492 72.394 61.6556C72.3903 61.6684 72.3847 61.6879 72.3774 61.7135C72.3626 61.7647 72.3407 61.8403 72.3126 61.9362C72.2564 62.1282 72.1756 62.4008 72.0777 62.7209C71.881 63.365 71.6202 64.1861 71.3556 64.9277L74.591 66.082ZM73.4843 69.1633L74.5897 66.0854L71.3569 64.9243L70.2514 68.0022L73.4843 69.1633ZM67.3943 69.6885L71.6288 70.2836L72.1069 66.8819L67.8724 66.2868L67.3943 69.6885ZM64.5108 56.9387L65.9293 68.2022L69.3374 67.773L67.919 56.5095L64.5108 56.9387ZM70.2911 55.5626L66.4539 55.0233L65.9759 58.4249L69.813 58.9642L70.2911 55.5626ZM72.0955 61.07L71.7636 57.1196L68.3406 57.4072L68.6725 61.3576L72.0955 61.07ZM72.3263 64.6072C72.3233 64.5244 72.2701 63.0566 72.0949 61.0634L68.673 61.3641C68.8412 63.2774 68.8917 64.6815 68.8934 64.7308L72.3263 64.6072ZM72.3262 64.6057L72.3261 64.6033L68.8936 64.7347L68.8937 64.7371L72.3262 64.6057ZM70.896 62.9772L70.849 62.9706L70.3709 66.3722L70.418 66.3788L70.896 62.9772ZM70.1284 60.7822C69.7841 61.7508 69.5054 62.6 69.3125 63.208C69.216 63.5123 69.1407 63.7568 69.0892 63.9265C69.0634 64.0113 69.0436 64.0775 69.03 64.1232C69.0232 64.146 69.018 64.1636 69.0144 64.1759C69.0126 64.1821 69.0111 64.1869 69.0101 64.1903C69.0096 64.1921 69.0092 64.1934 69.0089 64.1945C69.0088 64.195 69.0086 64.1954 69.0086 64.1958C69.0085 64.1959 69.0085 64.1961 69.0084 64.1962C69.0084 64.1963 69.0084 64.1963 69.0084 64.1964C69.0083 64.1964 69.0083 64.1965 70.657 64.678C72.3056 65.1595 72.3056 65.1596 72.3056 65.1596C72.3056 65.1596 72.3056 65.1597 72.3056 65.1597C72.3056 65.1597 72.3056 65.1598 72.3056 65.1598C72.3056 65.1598 72.3056 65.1597 72.3057 65.1595C72.3058 65.1591 72.306 65.1584 72.3063 65.1574C72.3069 65.1553 72.3079 65.1519 72.3093 65.1471C72.3121 65.1376 72.3165 65.1227 72.3224 65.1028C72.3343 65.0629 72.3523 65.0028 72.3762 64.9242C72.4239 64.767 72.4949 64.5362 72.5867 64.2469C72.7704 63.6678 73.0366 62.8568 73.3651 61.9326L70.1284 60.7822ZM71.4422 57.1078L70.1295 60.7792L73.364 61.9357L74.6767 58.2643L71.4422 57.1078ZM76.6964 56.4628L73.2985 55.9852L72.8204 59.3869L76.2184 59.8644L76.6964 56.4628ZM74.7573 57.9194L74.7566 57.9246L78.1582 58.4026L78.1589 58.3975L74.7573 57.9194ZM50.7529 26.328C50.7841 26.3449 50.819 26.3638 50.8555 26.3834L52.4806 23.3571C52.45 23.3406 52.42 23.3244 52.3881 23.3071L50.7529 26.328ZM50.1507 26.1047C50.3247 26.1291 50.3991 26.1545 50.438 26.1694C50.4965 26.1919 50.5552 26.221 50.7529 26.328L52.3881 23.3071C51.9549 23.0727 51.4909 22.8242 50.6287 22.703L50.1507 26.1047ZM49.791 26.643C49.837 26.3159 49.9074 26.1529 49.9425 26.0891C49.9716 26.0362 49.9741 26.0536 49.9323 26.0804C49.8624 26.1252 49.8826 26.067 50.1507 26.1047L50.6287 22.703C50.0013 22.6149 49.0072 22.5934 48.0791 23.1881C47.0963 23.8179 46.5692 24.8854 46.3894 26.165L49.791 26.643ZM49.1475 31.2215L49.791 26.643L46.3894 26.165L45.7459 30.7434L49.1475 31.2215ZM43.416 32.1504L47.2077 32.6833L47.6858 29.2816L43.8941 28.7488L43.416 32.1504ZM43.4791 19.3607L41.9543 30.2105L45.3559 30.6886L46.8807 19.8388L43.4791 19.3607ZM48.6706 18.3559L45.419 17.8989L44.9409 21.3005L48.1926 21.7575L48.6706 18.3559ZM50.1481 22.7871L50.1491 20.0574L46.7141 20.056L46.713 22.7857L50.1481 22.7871ZM52.7434 18.9283C51.5646 18.7626 50.3216 18.8673 49.2235 19.4062C48.0866 19.9642 47.2153 20.9383 46.7936 22.2666L50.0675 23.3062C50.2061 22.8699 50.4419 22.6347 50.737 22.4899C51.071 22.326 51.5847 22.2343 52.2653 22.3299L52.7434 18.9283ZM53.3532 25.2025L54.1894 20.9614L50.8192 20.2968L49.983 24.538L53.3532 25.2025ZM53.3456 22.4817L57.3512 23.0447L57.8293 19.6431L53.8236 19.0801L53.3456 22.4817ZM57.5361 31.8282L55.269 20.4454L51.9001 21.1164L54.1673 32.4992L57.5361 31.8282ZM60.1801 31.0376L56.0907 30.4629L55.6127 33.8645L59.7021 34.4393L60.1801 31.0376ZM63.9048 21.6373L58.425 31.9314L61.4572 33.5455L66.937 23.2515L63.9048 21.6373ZM61.4843 23.6256L65.1819 24.1452L65.66 20.7436L61.9624 20.2239L61.4843 23.6256ZM61.2423 26.845L63.2682 22.6753L60.1785 21.1742L58.1526 25.3438L61.2423 26.845ZM58.594 28.6451C60.2045 29.2418 60.2045 29.2419 60.2044 29.242C60.2044 29.242 60.2044 29.2421 60.2044 29.2421C60.2043 29.2422 60.2043 29.2423 60.2043 29.2424C60.2042 29.2426 60.2042 29.2427 60.2042 29.2427C60.2042 29.2427 60.2042 29.2425 60.2044 29.2421C60.2047 29.2412 60.2054 29.2393 60.2065 29.2365C60.2086 29.2307 60.2123 29.2211 60.2174 29.2077C60.2276 29.1809 60.2436 29.1391 60.2654 29.0834C60.3089 28.9719 60.3754 28.805 60.4638 28.5918C60.6408 28.1649 60.9048 27.5544 61.2484 26.8324L58.1465 25.3564C57.7741 26.1392 57.4864 26.804 57.2906 27.2763C57.1926 27.5126 57.1175 27.7012 57.066 27.8329C57.0403 27.8988 57.0204 27.9504 57.0066 27.9867C56.9997 28.0048 56.9943 28.0192 56.9905 28.0295C56.9885 28.0347 56.987 28.0388 56.9858 28.042C56.9852 28.0436 56.9847 28.0449 56.9843 28.046C56.9841 28.0465 56.9839 28.047 56.9838 28.0474C56.9837 28.0476 56.9836 28.0478 56.9836 28.0479C56.9835 28.048 56.9835 28.0482 56.9835 28.0482C56.9834 28.0483 56.9834 28.0484 58.594 28.6451ZM58.3079 30.3393L58.3549 30.3459L58.833 26.9443L58.7859 26.9377L58.3079 30.3393ZM56.8295 28.7268C56.8319 28.7511 56.8342 28.7747 56.8358 28.7915C56.8365 28.7982 56.838 28.8134 56.8399 28.8293C56.8401 28.8316 56.8433 28.8603 56.8486 28.895C56.8501 28.9054 56.8531 28.9246 56.8575 28.9486C56.8601 28.9628 56.8709 29.022 56.8914 29.0961C56.8996 29.1257 56.9261 29.2206 56.9772 29.3357C57.0014 29.3903 57.0571 29.5092 57.1543 29.6438C57.2206 29.7357 57.4784 30.0847 57.9807 30.2601C58.6787 30.5038 59.324 30.2542 59.704 29.9078C59.9882 29.6487 60.106 29.3647 60.1397 29.2811C60.2219 29.0773 60.244 28.9041 60.2477 28.8775L56.8461 28.3994C56.8498 28.3729 56.8719 28.1997 56.9541 27.9959C56.9878 27.9124 57.1055 27.6284 57.3898 27.3693C57.7698 27.0229 58.415 26.7733 59.1131 27.017C59.6154 27.1924 59.8732 27.5414 59.9395 27.6333C60.0367 27.7679 60.0923 27.8868 60.1165 27.9414C60.1676 28.0564 60.1941 28.1512 60.2023 28.1808C60.2227 28.2547 60.2335 28.3138 60.236 28.3278C60.2404 28.3516 60.2434 28.3705 60.2449 28.3806C60.248 28.4011 60.25 28.417 60.2507 28.4229C60.2517 28.4306 60.2524 28.4365 60.2528 28.4397C60.2539 28.4495 60.2544 28.4551 60.2538 28.4489C60.2529 28.44 60.2514 28.4244 60.2487 28.3968L56.8295 28.7268ZM56.5206 26.1242C56.7083 27.4698 56.8037 28.4586 56.8295 28.7268L60.2487 28.3968C60.2208 28.1074 60.12 27.0644 59.9228 25.6498L56.5206 26.1242ZM55.8891 21.5803L56.5205 26.1235L59.9229 25.6505L59.2914 21.1074L55.8891 21.5803ZM75.1423 30.3156C75.2333 30.3313 75.403 30.3764 75.5888 30.5057C75.7853 30.6425 75.9284 30.8242 76.0153 31.0099C76.1608 31.3206 76.0964 31.5249 76.118 31.3715L72.7164 30.8934C72.6656 31.2546 72.6219 31.863 72.9042 32.4662C73.2566 33.219 73.9252 33.5918 74.5601 33.701L75.1423 30.3156ZM74.9499 30.289C74.9016 30.3075 74.8873 30.3089 74.9006 30.3065C74.914 30.304 74.9833 30.2925 75.0903 30.3075L74.6122 33.7091C75.2745 33.8022 75.8492 33.623 76.1791 33.4966L74.9499 30.289ZM76.8891 34.8088L77.2653 32.1318L73.8637 31.6538L73.4875 34.3308L76.8891 34.8088ZM72.9933 36.522C74.109 36.6788 75.014 36.6065 75.9932 36.087L74.3833 33.0526C74.2523 33.1221 74.1771 33.1419 74.1004 33.1519C74.0014 33.1648 73.823 33.1698 73.4714 33.1204L72.9933 36.522ZM69.1195 33.1416C69.3183 33.9474 69.7067 34.751 70.4118 35.3902C71.1167 36.0292 72.0049 36.3831 72.9933 36.522L73.4714 33.1204C72.9993 33.054 72.8026 32.921 72.7189 32.8451C72.6354 32.7694 72.5313 32.6301 72.4545 32.3187L69.1195 33.1416ZM67.1656 35.7459C68.1779 35.8913 69.1491 35.8171 70.043 35.4512C70.9406 35.0838 71.6335 34.474 72.1679 33.7514L69.4061 31.7089C69.1712 32.0264 68.952 32.1861 68.7416 32.2722C68.5275 32.3599 68.1948 32.4234 67.6543 32.3457L67.1656 35.7459ZM62.8849 30.3216C62.699 31.6447 62.9812 32.9431 63.8131 33.9726C64.634 34.9885 65.8411 35.5597 67.1709 35.7466L67.649 32.345C66.9758 32.2504 66.6406 32.0063 66.4849 31.8137C66.3403 31.6347 66.2118 31.3312 66.2865 30.7997L62.8849 30.3216ZM70.2612 26.0563C68.4713 25.8048 66.7782 25.8848 65.4132 26.587C63.9324 27.3489 63.1134 28.6962 62.8849 30.3216L66.2865 30.7997C66.3849 30.0996 66.6474 29.8151 66.9847 29.6416C67.4378 29.4084 68.2995 29.2494 69.7831 29.458L70.2612 26.0563ZM71.3669 26.2117L70.2612 26.0563L69.7831 29.458L70.8889 29.6134L71.3669 26.2117ZM69.5288 26.9498L69.4271 27.6735L72.8287 28.1516L72.9304 27.4278L69.5288 26.9498ZM70.2421 27.5624C70.2078 27.5576 70.0877 27.5339 69.9416 27.4357C69.7875 27.332 69.675 27.1925 69.6077 27.0559C69.5468 26.9322 69.5392 26.8452 69.5386 26.837C69.5379 26.8287 69.5411 26.8623 69.5288 26.9498L72.9304 27.4278C72.9986 26.9427 73.0276 26.2254 72.6894 25.5385C72.286 24.7191 71.5336 24.2751 70.7201 24.1608L70.2421 27.5624ZM70.9722 27.3398C70.9992 27.201 71.0229 27.1416 71.0264 27.1336C71.0292 27.1273 70.9964 27.2058 70.8951 27.3039C70.7828 27.4125 70.6358 27.4966 70.479 27.538C70.3365 27.5757 70.2447 27.5628 70.2421 27.5624L70.7201 24.1608C70.0162 24.0619 69.1789 24.1848 68.5068 24.8349C67.9331 25.3898 67.7099 26.1207 67.6004 26.6835L70.9722 27.3398ZM65.2409 27.5809L68.7884 28.6555L69.7842 25.3679L66.2367 24.2934L65.2409 27.5809ZM71.247 21.2664C69.571 21.0308 67.9775 21.2368 66.6649 21.9897C65.3235 22.7592 64.4339 24.0121 64.0686 25.5369L67.4091 26.3374C67.5707 25.6627 67.9137 25.2335 68.3741 24.9694C68.8633 24.6887 69.6409 24.5095 70.7689 24.668L71.247 21.2664ZM76.6458 27.5676C76.8581 26.0567 76.6234 24.5246 75.5679 23.3005C74.55 22.1201 73.0123 21.5145 71.247 21.2664L70.7689 24.668C72.1121 24.8568 72.7095 25.2458 72.9664 25.5437C73.1857 25.798 73.3652 26.2282 73.2442 27.0895L76.6458 27.5676ZM76.1113 31.3705L76.6458 27.5676L73.2442 27.0895L72.7097 30.8925L76.1113 31.3705ZM74.6562 29.4316L74.6495 29.4307L74.1715 32.8323L74.1782 32.8333L74.6562 29.4316ZM70.1202 31.4734L70.6015 31.541L71.0796 28.1394L70.5982 28.0717L70.1202 31.4734ZM70.0633 30.8811C70.062 30.8909 70.0461 30.9927 69.9601 31.1237C69.8659 31.2672 69.7409 31.3646 69.6347 31.4161C69.5454 31.4594 69.5164 31.4477 69.6067 31.4413C69.6962 31.4349 69.8595 31.4367 70.1202 31.4734L70.5982 28.0717C69.8057 27.9604 68.9158 27.9472 68.1363 28.3251C67.1967 28.7806 66.7726 29.6142 66.6617 30.403L70.0633 30.8811ZM69.4916 29.9989C69.5234 30.0037 69.7125 30.0481 69.8822 30.2635C70.0547 30.4824 70.0852 30.7253 70.0633 30.8811L66.6617 30.403C66.5675 31.0733 66.7163 31.7959 67.1843 32.3897C67.6496 32.9801 68.3114 33.2949 68.9797 33.3956L69.4916 29.9989ZM69.0406 30.3067C69.0322 30.3663 69.0259 30.3408 69.0666 30.2737C69.1102 30.2016 69.1804 30.1277 69.2692 30.0727C69.4312 29.9724 69.5293 30.0041 69.4747 29.9964L68.9966 33.3981C69.5767 33.4796 70.3569 33.4395 71.0777 32.9932C71.86 32.5087 72.3126 31.7074 72.4422 30.7848L69.0406 30.3067ZM69.1398 29.6012L69.0406 30.3067L72.4422 30.7848L72.5414 30.0793L69.1398 29.6012ZM85.7642 28.0339C85.7453 28.0237 85.7263 28.0135 85.707 28.0031L84.0774 31.027C84.0985 31.0384 84.1207 31.0504 84.1438 31.0627L85.7642 28.0339ZM84.1052 24.9749L83.2689 29.216L86.6391 29.8805L87.4754 25.6394L84.1052 24.9749ZM83.3532 27.9842C83.4919 27.5472 83.7278 27.3122 84.0222 27.1676C84.3555 27.004 84.869 26.9121 85.5512 27.008L86.0293 23.6063C84.8497 23.4405 83.6063 23.545 82.5081 24.0842C81.371 24.6426 80.5007 25.617 80.0792 26.9446L83.3532 27.9842ZM79.9979 24.7349L79.9986 27.4649L83.4337 27.4639L83.4329 24.734L79.9979 24.7349ZM78.2283 25.9788L81.4764 26.4353L81.9545 23.0336L78.7064 22.5772L78.2283 25.9788ZM78.6434 35.3669L80.1682 24.517L76.7666 24.0389L75.2417 34.8888L78.6434 35.3669ZM80.9714 33.9596L77.1816 33.427L76.7035 36.8286L80.4933 37.3613L80.9714 33.9596ZM79.675 30.843L79.0316 35.4214L82.4332 35.8995L83.0766 31.321L79.675 30.843ZM83.9128 27.3808C83.2858 27.2927 82.2922 27.2715 81.3644 27.8663C80.382 28.496 79.8549 29.5632 79.675 30.843L83.0766 31.321C83.1226 30.994 83.193 30.831 83.2282 30.7671C83.2573 30.7141 83.2599 30.7314 83.2181 30.7582C83.1483 30.803 83.1683 30.745 83.4348 30.7824L83.9128 27.3808ZM85.6668 27.9814C85.2343 27.748 84.7726 27.5016 83.9128 27.3808L83.4348 30.7824C83.6092 30.8069 83.6836 30.8322 83.7221 30.847C83.7801 30.8692 83.8382 30.8979 84.0351 31.0042L85.6668 27.9814ZM85.7078 28.0035L85.6665 27.9813L84.0353 31.0044L84.0766 31.0266L85.7078 28.0035ZM18.2917 26.885L20.2355 13.0536L16.8339 12.5756L14.89 26.4069L18.2917 26.885ZM20.6917 25.4879L16.8299 24.9451L16.3518 28.3468L20.2136 28.8895L20.6917 25.4879ZM19.5044 21.5948L18.7518 26.9497L22.1534 27.4277L22.906 22.0729L19.5044 21.5948ZM26.2002 20.8014L21.4442 20.133L20.9662 23.5346L25.7221 24.2031L26.2002 20.8014ZM26.9094 28.0961L27.662 22.7413L24.2603 22.2632L23.5078 27.6181L26.9094 28.0961ZM29.3094 26.699L25.4476 26.1563L24.9696 29.5579L28.8313 30.1006L29.3094 26.699ZM29.3134 14.3295L27.3695 28.1608L30.7712 28.6389L32.715 14.8075L29.3134 14.3295ZM26.9134 15.7266L30.7752 16.2693L31.2533 12.8677L27.3915 12.3249L26.9134 15.7266ZM28.1308 19.4053L28.8533 14.2648L25.4516 13.7867L24.7292 18.9273L28.1308 19.4053ZM21.435 20.1987L26.191 20.8671L26.669 17.4655L21.9131 16.7971L21.435 20.1987ZM20.6957 13.1183L19.9732 18.2589L23.3749 18.7369L24.0973 13.5964L20.6957 13.1183ZM18.2957 14.5154L22.1575 15.0582L22.6355 11.6565L18.7738 11.1138L18.2957 14.5154Z" fill="#7A00DA" fill-opacity="0.1" mask="url(#path-3-outside-1_1_1396)"/>
</svg>
