<svg width="89" height="16" viewBox="0 0 89 16" fill="none" xmlns="http://www.w3.org/2000/svg">
<g clip-path="url(#clip0_494_1842)">
<path d="M7.36435 2.77292C7.79719 1.69505 8.01362 1.15611 8.3228 0.996883C8.59095 0.858787 8.9093 0.858787 9.17745 0.996882C9.48664 1.15611 9.70306 1.69505 10.1359 2.77291L11.164 5.33302L13.9165 5.51965C15.0753 5.59823 15.6548 5.63752 15.9017 5.88236C16.1159 6.09471 16.2143 6.39749 16.1658 6.69518C16.1099 7.03844 15.6643 7.41081 14.7729 8.15555L12.6558 9.92441L13.3289 12.5999C13.6122 13.7263 13.7539 14.2895 13.5974 14.6001C13.4616 14.8694 13.2041 15.0565 12.906 15.1024C12.5622 15.1553 12.0704 14.8465 11.0866 14.2289L8.75013 12.762L6.41361 14.2289C5.42988 14.8465 4.93801 15.1553 4.59429 15.1024C4.29618 15.0565 4.03863 14.8694 3.90286 14.6001C3.74632 14.2895 3.88801 13.7263 4.17139 12.5999L4.84445 9.92441L2.72734 8.15555C1.83598 7.41081 1.3903 7.03844 1.33441 6.69518C1.28594 6.39749 1.38431 6.09471 1.59851 5.88236C1.84549 5.63752 2.42493 5.59823 3.5838 5.51965L6.33629 5.33302L7.36435 2.77292Z" fill="#FF8833"/>
</g>
<g clip-path="url(#clip1_494_1842)">
<path d="M25.3644 2.77292C25.7972 1.69505 26.0136 1.15611 26.3228 0.996883C26.5909 0.858787 26.9093 0.858787 27.1775 0.996882C27.4866 1.15611 27.7031 1.69505 28.1359 2.77291L29.164 5.33302L31.9165 5.51965C33.0753 5.59823 33.6548 5.63752 33.9017 5.88236C34.1159 6.09471 34.2143 6.39749 34.1658 6.69518C34.1099 7.03844 33.6643 7.41081 32.7729 8.15555L30.6558 9.92441L31.3289 12.5999C31.6122 13.7263 31.7539 14.2895 31.5974 14.6001C31.4616 14.8694 31.2041 15.0565 30.906 15.1024C30.5622 15.1553 30.0704 14.8465 29.0866 14.2289L26.7501 12.762L24.4136 14.2289C23.4299 14.8465 22.938 15.1553 22.5943 15.1024C22.2962 15.0565 22.0386 14.8694 21.9029 14.6001C21.7463 14.2895 21.888 13.7263 22.1714 12.5999L22.8445 9.92441L20.7273 8.15555C19.836 7.41081 19.3903 7.03844 19.3344 6.69518C19.2859 6.39749 19.3843 6.09471 19.5985 5.88236C19.8455 5.63752 20.4249 5.59823 21.5838 5.51965L24.3363 5.33302L25.3644 2.77292Z" fill="#FF8833"/>
</g>
<g clip-path="url(#clip2_494_1842)">
<path d="M43.3644 2.77292C43.7972 1.69505 44.0136 1.15611 44.3228 0.996883C44.5909 0.858787 44.9093 0.858787 45.1775 0.996882C45.4866 1.15611 45.7031 1.69505 46.1359 2.77291L47.164 5.33302L49.9165 5.51965C51.0753 5.59823 51.6548 5.63752 51.9017 5.88236C52.1159 6.09471 52.2143 6.39749 52.1658 6.69518C52.1099 7.03844 51.6643 7.41081 50.7729 8.15555L48.6558 9.92441L49.3289 12.5999C49.6122 13.7263 49.7539 14.2895 49.5974 14.6001C49.4616 14.8694 49.2041 15.0565 48.906 15.1024C48.5622 15.1553 48.0704 14.8465 47.0866 14.2289L44.7501 12.762L42.4136 14.2289C41.4299 14.8465 40.938 15.1553 40.5943 15.1024C40.2962 15.0565 40.0386 14.8694 39.9029 14.6001C39.7463 14.2895 39.888 13.7263 40.1714 12.5999L40.8445 9.92441L38.7273 8.15555C37.836 7.41081 37.3903 7.03844 37.3344 6.69518C37.2859 6.39749 37.3843 6.09471 37.5985 5.88236C37.8455 5.63752 38.4249 5.59823 39.5838 5.51965L42.3363 5.33302L43.3644 2.77292Z" fill="#FF8833"/>
</g>
<g clip-path="url(#clip3_494_1842)">
<path d="M61.3644 2.77292C61.7972 1.69505 62.0136 1.15611 62.3228 0.996883C62.5909 0.858787 62.9093 0.858787 63.1775 0.996882C63.4866 1.15611 63.7031 1.69505 64.1359 2.77291L65.164 5.33302L67.9165 5.51965C69.0753 5.59823 69.6548 5.63752 69.9017 5.88236C70.1159 6.09471 70.2143 6.39749 70.1658 6.69518C70.1099 7.03844 69.6643 7.41081 68.7729 8.15555L66.6558 9.92441L67.3289 12.5999C67.6122 13.7263 67.7539 14.2895 67.5974 14.6001C67.4616 14.8694 67.2041 15.0565 66.906 15.1024C66.5622 15.1553 66.0704 14.8465 65.0866 14.2289L62.7501 12.762L60.4136 14.2289C59.4299 14.8465 58.938 15.1553 58.5943 15.1024C58.2962 15.0565 58.0386 14.8694 57.9029 14.6001C57.7463 14.2895 57.888 13.7263 58.1714 12.5999L58.8445 9.92441L56.7273 8.15555C55.836 7.41081 55.3903 7.03844 55.3344 6.69518C55.2859 6.39749 55.3843 6.09471 55.5985 5.88236C55.8455 5.63752 56.4249 5.59823 57.5838 5.51965L60.3363 5.33302L61.3644 2.77292Z" fill="#FF8833"/>
</g>
<g clip-path="url(#clip4_494_1842)">
<path fill-rule="evenodd" clip-rule="evenodd" d="M82.2386 6.60667L80.8986 3.26978C80.8443 3.1345 80.7951 3.01221 80.7501 2.90135C80.7052 3.01221 80.656 3.1345 80.6016 3.26978L79.2616 6.60667L75.674 6.84993C75.5286 6.85979 75.397 6.86878 75.2777 6.87729C75.3693 6.95431 75.4704 7.03888 75.5822 7.13234L78.3417 9.43792L77.4644 12.9251C77.4289 13.0665 77.3968 13.1944 77.368 13.3105C77.4695 13.2472 77.5812 13.1772 77.7047 13.0997L80.7501 11.1877L83.7956 13.0997C83.919 13.1772 84.0307 13.2472 84.1323 13.3105C84.1035 13.1944 84.0714 13.0665 84.0358 12.9251L83.1585 9.43792L85.918 7.13235C86.0299 7.03888 86.131 6.95431 86.2225 6.87729C86.1032 6.86878 85.9717 6.85979 85.8263 6.84993L82.2386 6.60667ZM78.3363 5.33302L75.5838 5.51965C74.4249 5.59823 73.8455 5.63752 73.5985 5.88236C73.3843 6.09471 73.2859 6.39749 73.3344 6.69518C73.3903 7.03844 73.836 7.41081 74.7273 8.15554L76.8445 9.92441L76.1714 12.5999C75.888 13.7263 75.7463 14.2895 75.9029 14.6001C76.0386 14.8694 76.2962 15.0565 76.5943 15.1024C76.938 15.1553 77.4299 14.8465 78.4136 14.2289L80.7501 12.762L83.0866 14.2289C84.0704 14.8465 84.5622 15.1553 84.906 15.1024C85.2041 15.0565 85.4616 14.8694 85.5974 14.6001C85.7539 14.2895 85.6122 13.7263 85.3289 12.5999L84.6558 9.92441L86.7729 8.15554C87.6643 7.41081 88.1099 7.03844 88.1658 6.69518C88.2143 6.39749 88.1159 6.09471 87.9017 5.88236C87.6548 5.63752 87.0753 5.59823 85.9165 5.51965L83.164 5.33302L82.1359 2.77291C81.7031 1.69505 81.4866 1.15611 81.1775 0.996883C80.9093 0.858787 80.5909 0.858787 80.3228 0.996883C80.0136 1.15611 79.7972 1.69505 79.3644 2.77292L78.3363 5.33302Z" fill="#FF8833"/>
</g>
<mask id="mask0_494_1842" style="mask-type:alpha" maskUnits="userSpaceOnUse" x="72" y="0" width="17" height="16">
<g clip-path="url(#clip5_494_1842)">
<path d="M79.3644 2.77292C79.7972 1.69505 80.0136 1.15611 80.3228 0.996883C80.5909 0.858787 80.9093 0.858787 81.1775 0.996882C81.4866 1.15611 81.7031 1.69505 82.1359 2.77291L83.164 5.33302L85.9165 5.51965C87.0753 5.59823 87.6548 5.63752 87.9017 5.88236C88.1159 6.09471 88.2143 6.39749 88.1658 6.69518C88.1099 7.03844 87.6643 7.41081 86.7729 8.15555L84.6558 9.92441L85.3289 12.5999C85.6122 13.7263 85.7539 14.2895 85.5974 14.6001C85.4616 14.8694 85.2041 15.0565 84.906 15.1024C84.5622 15.1553 84.0704 14.8465 83.0866 14.2289L80.7501 12.762L78.4136 14.2289C77.4299 14.8465 76.938 15.1553 76.5943 15.1024C76.2962 15.0565 76.0386 14.8694 75.9029 14.6001C75.7463 14.2895 75.888 13.7263 76.1714 12.5999L76.8445 9.92441L74.7273 8.15555C73.836 7.41081 73.3903 7.03844 73.3344 6.69518C73.2859 6.39749 73.3843 6.09471 73.5985 5.88236C73.8455 5.63752 74.4249 5.59823 75.5838 5.51965L78.3363 5.33302L79.3644 2.77292Z" fill="#FF8833"/>
</g>
</mask>
<g mask="url(#mask0_494_1842)">
<rect x="72.75" width="9.5" height="16" fill="#FF8833"/>
</g>
<defs>
<clipPath id="clip0_494_1842">
<rect width="16" height="16" fill="white" transform="translate(0.75)"/>
</clipPath>
<clipPath id="clip1_494_1842">
<rect width="16" height="16" fill="white" transform="translate(18.75)"/>
</clipPath>
<clipPath id="clip2_494_1842">
<rect width="16" height="16" fill="white" transform="translate(36.75)"/>
</clipPath>
<clipPath id="clip3_494_1842">
<rect width="16" height="16" fill="white" transform="translate(54.75)"/>
</clipPath>
<clipPath id="clip4_494_1842">
<rect width="16" height="16" fill="white" transform="translate(72.75)"/>
</clipPath>
<clipPath id="clip5_494_1842">
<rect width="16" height="16" fill="white" transform="translate(72.75)"/>
</clipPath>
</defs>
</svg>
