<svg width="33" height="32" viewBox="0 0 33 32" fill="none" xmlns="http://www.w3.org/2000/svg">
<path d="M0.25 9.6C0.25 6.23969 0.25 4.55953 0.903961 3.27606C1.4792 2.14708 2.39708 1.2292 3.52606 0.653961C4.80953 0 6.48969 0 9.85 0H22.65C26.0103 0 27.6905 0 28.9739 0.653961C30.1029 1.2292 31.0208 2.14708 31.596 3.27606C32.25 4.55953 32.25 6.23969 32.25 9.6V22.4C32.25 25.7603 32.25 27.4405 31.596 28.7239C31.0208 29.8529 30.1029 30.7708 28.9739 31.346C27.6905 32 26.0103 32 22.65 32H9.85C6.48969 32 4.80953 32 3.52606 31.346C2.39708 30.7708 1.4792 29.8529 0.903961 28.7239C0.25 27.4405 0.25 25.7603 0.25 22.4V9.6Z" fill="url(#paint0_linear_494_1838)"/>
<path d="M0.75 9.6C0.75 7.91159 0.750389 6.67536 0.830085 5.69993C0.909303 4.73034 1.06438 4.06255 1.34946 3.50305C1.87677 2.46816 2.71816 1.62677 3.75305 1.09946C4.31255 0.814384 4.98034 0.659303 5.94993 0.580085C6.92536 0.500389 8.16159 0.5 9.85 0.5H22.65C24.3384 0.5 25.5746 0.500389 26.5501 0.580085C27.5197 0.659303 28.1874 0.814384 28.7469 1.09946C29.7818 1.62677 30.6232 2.46816 31.1505 3.50305C31.4356 4.06255 31.5907 4.73034 31.6699 5.69993C31.7496 6.67536 31.75 7.91159 31.75 9.6V22.4C31.75 24.0884 31.7496 25.3246 31.6699 26.3001C31.5907 27.2697 31.4356 27.9374 31.1505 28.4969C30.6232 29.5318 29.7818 30.3732 28.7469 30.9005C28.1874 31.1856 27.5197 31.3407 26.5501 31.4199C25.5746 31.4996 24.3384 31.5 22.65 31.5H9.85C8.16159 31.5 6.92536 31.4996 5.94993 31.4199C4.98034 31.3407 4.31255 31.1856 3.75305 30.9005C2.71816 30.3732 1.87677 29.5318 1.34946 28.4969C1.06438 27.9374 0.909303 27.2697 0.830085 26.3001C0.750389 25.3246 0.75 24.0884 0.75 22.4V9.6Z" stroke="white" stroke-opacity="0.2"/>
<path d="M10.6563 23.2965L10.6592 23.2975L9.57963 25.1674C9.18556 25.8499 8.31272 26.0838 7.63016 25.6897C6.94763 25.2957 6.71375 24.4228 7.10781 23.7403L7.97944 22.2306C8.11575 22.0346 8.45213 21.6966 9.12497 21.7601C9.86657 21.8406 11.2896 22.3554 10.6563 23.2965ZM25.9687 18.5205H22.6021C22.3728 18.5051 22.2727 18.4233 22.2334 18.3757L22.2309 18.3713L18.6271 12.1293L18.6224 12.1325L18.4062 11.8226C18.0521 11.2809 17.4896 12.6663 17.4896 12.6663C16.818 14.21 17.5849 15.9652 17.8523 16.4956L22.8578 25.1654C23.2518 25.848 24.1247 26.0819 24.8072 25.6878C25.4897 25.2937 25.7236 24.4209 25.3296 23.7383L24.0779 21.5704C24.0537 21.5179 24.0114 21.3752 24.2681 21.3747H25.9687C26.7568 21.3747 27.3958 20.7357 27.3958 19.9476C27.3958 19.1594 26.7568 18.5205 25.9687 18.5205ZM19.4297 20.4606C19.4297 20.4606 19.6094 21.3746 18.9141 21.3746H18.2188L6.46872 21.3747C5.68056 21.3747 5.04163 20.7357 5.04163 19.9476C5.04163 19.1594 5.68056 18.5205 6.46872 18.5205H9.66828C10.1848 18.4906 10.3073 18.1924 10.3073 18.1924L10.3101 18.1938L14.4866 10.9599L14.4854 10.9596C14.5615 10.8199 14.4981 10.6878 14.4871 10.6669L13.1078 8.27796C12.7137 7.5954 12.9476 6.72259 13.6302 6.32852C14.3127 5.93443 15.1855 6.16831 15.5796 6.85087L16.2193 7.95887L16.8578 6.85284C17.2519 6.17027 18.1247 5.9364 18.8073 6.33049C19.4898 6.72459 19.7237 7.5974 19.3296 8.27993L13.5179 18.3461C13.4925 18.4074 13.4847 18.5036 13.6738 18.5205H17.1477H17.1484C17.1484 18.5205 19.1563 18.5856 19.4297 20.4606Z" fill="white"/>
<defs>
<linearGradient id="paint0_linear_494_1838" x1="16.25" y1="32" x2="16.25" y2="0" gradientUnits="userSpaceOnUse">
<stop stop-color="#1D76F2"/>
<stop offset="1" stop-color="#1AC2FB"/>
</linearGradient>
</defs>
</svg>
