<svg width="33" height="32" viewBox="0 0 33 32" fill="none" xmlns="http://www.w3.org/2000/svg">
<path d="M0.75 9.6C0.75 6.23969 0.75 4.55953 1.40396 3.27606C1.9792 2.14708 2.89708 1.2292 4.02606 0.653961C5.30953 0 6.98969 0 10.35 0H23.15C26.5103 0 28.1905 0 29.4739 0.653961C30.6029 1.2292 31.5208 2.14708 32.096 3.27606C32.75 4.55953 32.75 6.23969 32.75 9.6V22.4C32.75 25.7603 32.75 27.4405 32.096 28.7239C31.5208 29.8529 30.6029 30.7708 29.4739 31.346C28.1905 32 26.5103 32 23.15 32H10.35C6.98969 32 5.30953 32 4.02606 31.346C2.89708 30.7708 1.9792 29.8529 1.40396 28.7239C0.75 27.4405 0.75 25.7603 0.75 22.4V9.6Z" fill="white"/>
<path d="M1.25 9.6C1.25 7.91159 1.25039 6.67536 1.33008 5.69993C1.4093 4.73034 1.56438 4.06255 1.84946 3.50305C2.37677 2.46816 3.21816 1.62677 4.25305 1.09946C4.81255 0.814384 5.48034 0.659303 6.44993 0.580085C7.42536 0.500389 8.66159 0.5 10.35 0.5H23.15C24.8384 0.5 26.0746 0.500389 27.0501 0.580085C28.0197 0.659303 28.6874 0.814384 29.2469 1.09946C30.2818 1.62677 31.1232 2.46816 31.6505 3.50305C31.9356 4.06255 32.0907 4.73034 32.1699 5.69993C32.2496 6.67536 32.25 7.91159 32.25 9.6V22.4C32.25 24.0884 32.2496 25.3246 32.1699 26.3001C32.0907 27.2697 31.9356 27.9374 31.6505 28.4969C31.1232 29.5318 30.2818 30.3732 29.2469 30.9005C28.6874 31.1856 28.0197 31.3407 27.0501 31.4199C26.0746 31.4996 24.8384 31.5 23.15 31.5H10.35C8.66159 31.5 7.42536 31.4996 6.44993 31.4199C5.48034 31.3407 4.81255 31.1856 4.25305 30.9005C3.21816 30.3732 2.37677 29.5318 1.84946 28.4969C1.56438 27.9374 1.4093 27.2697 1.33008 26.3001C1.25039 25.3246 1.25 24.0884 1.25 22.4V9.6Z" stroke="black" stroke-opacity="0.1"/>
<g clip-path="url(#clip0_494_1903)">
<path d="M8.58977 5.74304C8.3501 5.9947 8.2063 6.39015 8.2063 6.89346V25.0244C8.2063 25.5278 8.3501 25.9232 8.58977 26.1749L8.64969 26.2348L18.8117 16.0728V15.8331L8.64969 5.67114L8.58977 5.74304Z" fill="url(#paint0_linear_494_1903)"/>
<path d="M22.191 19.4642L18.8116 16.0729V15.8332L22.203 12.4419L22.2749 12.4898L26.2893 14.7667C27.4397 15.4138 27.4397 16.4803 26.2893 17.1394L22.2749 19.4163L22.191 19.4642Z" fill="url(#paint1_linear_494_1903)"/>
<path d="M22.2748 19.4162L18.8116 15.953L8.58972 26.1749C8.96121 26.5704 9.59633 26.6303 10.2914 26.2228L22.2748 19.4162Z" fill="url(#paint2_linear_494_1903)"/>
<path d="M22.2748 12.5018L10.2914 5.69522C9.58435 5.29977 8.96121 5.3477 8.58972 5.74315L18.8116 15.9651L22.2748 12.5018Z" fill="url(#paint3_linear_494_1903)"/>
</g>
<defs>
<linearGradient id="paint0_linear_494_1903" x1="17.9004" y1="6.69621" x2="4.13899" y2="20.4577" gradientUnits="userSpaceOnUse">
<stop stop-color="#00A0FF"/>
<stop offset="0.007" stop-color="#00A1FF"/>
<stop offset="0.26" stop-color="#00BEFF"/>
<stop offset="0.512" stop-color="#00D2FF"/>
<stop offset="0.76" stop-color="#00DFFF"/>
<stop offset="1" stop-color="#00E3FF"/>
</linearGradient>
<linearGradient id="paint1_linear_494_1903" x1="27.7726" y1="15.959" x2="7.93149" y2="15.959" gradientUnits="userSpaceOnUse">
<stop stop-color="#FFE000"/>
<stop offset="0.409" stop-color="#FFBD00"/>
<stop offset="0.775" stop-color="#FFA500"/>
<stop offset="1" stop-color="#FF9C00"/>
</linearGradient>
<linearGradient id="paint2_linear_494_1903" x1="20.3897" y1="17.8441" x2="1.72823" y2="36.5056" gradientUnits="userSpaceOnUse">
<stop stop-color="#FF3A44"/>
<stop offset="1" stop-color="#C31162"/>
</linearGradient>
<linearGradient id="paint3_linear_494_1903" x1="6.01567" y1="-0.30011" x2="14.3489" y2="8.03307" gradientUnits="userSpaceOnUse">
<stop stop-color="#32A071"/>
<stop offset="0.069" stop-color="#2DA771"/>
<stop offset="0.476" stop-color="#15CF74"/>
<stop offset="0.801" stop-color="#06E775"/>
<stop offset="1" stop-color="#00F076"/>
</linearGradient>
<clipPath id="clip0_494_1903">
<rect width="21.3333" height="21.3333" fill="white" transform="translate(6.97217 5.33325)"/>
</clipPath>
</defs>
</svg>
