<svg width="208" height="136" viewBox="0 0 208 136" fill="none" xmlns="http://www.w3.org/2000/svg">
<rect x="2" y="2" width="204" height="132" rx="10" fill="white" stroke="#7A00DA" stroke-width="4"/>
<path d="M104 4L104 132" stroke="#E9DAD9"/>
<rect x="20" y="20" width="64" height="4" rx="2" fill="#FF8833" fill-opacity="0.2"/>
<rect x="20" y="28" width="50" height="4" rx="2" fill="#FF8833" fill-opacity="0.2"/>
<rect x="116" y="20" width="56" height="4" rx="2" fill="#FF8833" fill-opacity="0.2"/>
<rect x="116" y="28" width="72" height="4" rx="2" fill="#FF8833" fill-opacity="0.2"/>
<rect x="116" y="36" width="40" height="4" rx="2" fill="#FF8833" fill-opacity="0.2"/>
<rect x="20" y="46" width="72" height="2" rx="1" fill="#FF8833" fill-opacity="0.2"/>
<rect x="20" y="52" width="72" height="2" rx="1" fill="#FF8833" fill-opacity="0.2"/>
<rect x="20" y="57" width="72" height="4" rx="2" fill="#FF8833"/>
<rect x="20" y="63" width="24" height="4" rx="2" fill="#FF8833"/>
<rect x="116" y="75" width="72" height="4" rx="2" fill="#FF8833"/>
<rect x="116" y="81" width="64" height="4" rx="2" fill="#FF8833"/>
<rect x="20" y="74" width="72" height="2" rx="1" fill="#FF8833" fill-opacity="0.2"/>
<rect x="20" y="80" width="72" height="2" rx="1" fill="#FF8833" fill-opacity="0.2"/>
<rect x="20" y="86" width="48" height="2" rx="1" fill="#FF8833" fill-opacity="0.2"/>
<rect x="116" y="54" width="72" height="2" rx="1" fill="#FF8833" fill-opacity="0.2"/>
<rect x="116" y="60" width="72" height="2" rx="1" fill="#FF8833" fill-opacity="0.2"/>
<rect x="116" y="66" width="48" height="2" rx="1" fill="#FF8833" fill-opacity="0.2"/>
<rect x="20" y="95" width="72" height="4" rx="2" fill="#FF8833"/>
<rect x="20" y="101" width="72" height="4" rx="2" fill="#FF8833"/>
<rect x="20" y="108" width="72" height="2" rx="1" fill="#FF8833" fill-opacity="0.2"/>
<rect x="20" y="114" width="32" height="2" rx="1" fill="#FF8833" fill-opacity="0.2"/>
<rect x="116" y="92" width="72" height="2" rx="1" fill="#FF8833" fill-opacity="0.2"/>
<rect x="116" y="98" width="72" height="2" rx="1" fill="#FF8833" fill-opacity="0.2"/>
<rect x="116" y="104" width="48" height="2" rx="1" fill="#FF8833" fill-opacity="0.2"/>
</svg>
