<svg width="25" height="24" viewBox="0 0 25 24" fill="none" xmlns="http://www.w3.org/2000/svg">
<path fill-rule="evenodd" clip-rule="evenodd" d="M8.50006 14.2819V17.7181C8.50006 18.1638 8.45365 18.3255 8.36649 18.4884C8.27934 18.6514 8.15145 18.7793 7.98848 18.8664C7.82552 18.9536 7.66388 19 7.21812 19H5.50006C3.84321 19 2.50006 17.6569 2.50006 16C2.50006 14.6938 3.33487 13.5825 4.50006 13.1707V11C4.50006 6.58172 8.08178 3 12.5001 3C16.9183 3 20.5001 6.58172 20.5001 11V13.1707C21.6653 13.5825 22.5001 14.6938 22.5001 16C22.5001 17.6569 21.1569 19 19.5001 19H17.782C17.3362 19 17.1746 18.9536 17.0116 18.8664C16.8487 18.7793 16.7208 18.6514 16.6336 18.4884C16.5465 18.3255 16.5001 18.1638 16.5001 17.7181V14.2819C16.5001 13.8362 16.5465 13.6745 16.6336 13.5116C16.7208 13.3486 16.8487 13.2207 17.0116 13.1336C17.1746 13.0464 17.3362 13 17.782 13H18.5001V11C18.5001 7.68629 15.8138 5 12.5001 5C9.18635 5 6.50006 7.68629 6.50006 11V13H7.21812C7.66388 13 7.82552 13.0464 7.98848 13.1336C8.15145 13.2207 8.27934 13.3486 8.36649 13.5116C8.45365 13.6745 8.50006 13.8362 8.50006 14.2819Z" fill="white"/>
</svg>
