<svg width="89" height="16" viewBox="0 0 89 16" fill="none" xmlns="http://www.w3.org/2000/svg">
<g clip-path="url(#clip0_494_1912)">
<path d="M6.86435 2.77292C7.29719 1.69505 7.51362 1.15611 7.8228 0.996883C8.09095 0.858787 8.4093 0.858787 8.67745 0.996882C8.98664 1.15611 9.20306 1.69505 9.6359 2.77291L10.664 5.33302L13.4165 5.51965C14.5753 5.59823 15.1548 5.63752 15.4017 5.88236C15.6159 6.09471 15.7143 6.39749 15.6658 6.69518C15.6099 7.03844 15.1643 7.41081 14.2729 8.15555L12.1558 9.92441L12.8289 12.5999C13.1122 13.7263 13.2539 14.2895 13.0974 14.6001C12.9616 14.8694 12.7041 15.0565 12.406 15.1024C12.0622 15.1553 11.5704 14.8465 10.5866 14.2289L8.25013 12.762L5.91361 14.2289C4.92988 14.8465 4.43801 15.1553 4.09429 15.1024C3.79618 15.0565 3.53863 14.8694 3.40286 14.6001C3.24632 14.2895 3.38801 13.7263 3.67139 12.5999L4.34445 9.92441L2.22734 8.15555C1.33598 7.41081 0.890303 7.03844 0.83441 6.69518C0.785935 6.39749 0.884312 6.09471 1.09851 5.88236C1.34549 5.63752 1.92493 5.59823 3.0838 5.51965L5.83629 5.33302L6.86435 2.77292Z" fill="#FF8833"/>
</g>
<g clip-path="url(#clip1_494_1912)">
<path d="M24.8644 2.77292C25.2972 1.69505 25.5136 1.15611 25.8228 0.996883C26.0909 0.858787 26.4093 0.858787 26.6775 0.996882C26.9866 1.15611 27.2031 1.69505 27.6359 2.77291L28.664 5.33302L31.4165 5.51965C32.5753 5.59823 33.1548 5.63752 33.4017 5.88236C33.6159 6.09471 33.7143 6.39749 33.6658 6.69518C33.6099 7.03844 33.1643 7.41081 32.2729 8.15555L30.1558 9.92441L30.8289 12.5999C31.1122 13.7263 31.2539 14.2895 31.0974 14.6001C30.9616 14.8694 30.7041 15.0565 30.406 15.1024C30.0622 15.1553 29.5704 14.8465 28.5866 14.2289L26.2501 12.762L23.9136 14.2289C22.9299 14.8465 22.438 15.1553 22.0943 15.1024C21.7962 15.0565 21.5386 14.8694 21.4029 14.6001C21.2463 14.2895 21.388 13.7263 21.6714 12.5999L22.3445 9.92441L20.2273 8.15555C19.336 7.41081 18.8903 7.03844 18.8344 6.69518C18.7859 6.39749 18.8843 6.09471 19.0985 5.88236C19.3455 5.63752 19.9249 5.59823 21.0838 5.51965L23.8363 5.33302L24.8644 2.77292Z" fill="#FF8833"/>
</g>
<g clip-path="url(#clip2_494_1912)">
<path d="M42.8644 2.77292C43.2972 1.69505 43.5136 1.15611 43.8228 0.996883C44.0909 0.858787 44.4093 0.858787 44.6775 0.996882C44.9866 1.15611 45.2031 1.69505 45.6359 2.77291L46.664 5.33302L49.4165 5.51965C50.5753 5.59823 51.1548 5.63752 51.4017 5.88236C51.6159 6.09471 51.7143 6.39749 51.6658 6.69518C51.6099 7.03844 51.1643 7.41081 50.2729 8.15555L48.1558 9.92441L48.8289 12.5999C49.1122 13.7263 49.2539 14.2895 49.0974 14.6001C48.9616 14.8694 48.7041 15.0565 48.406 15.1024C48.0622 15.1553 47.5704 14.8465 46.5866 14.2289L44.2501 12.762L41.9136 14.2289C40.9299 14.8465 40.438 15.1553 40.0943 15.1024C39.7962 15.0565 39.5386 14.8694 39.4029 14.6001C39.2463 14.2895 39.388 13.7263 39.6714 12.5999L40.3445 9.92441L38.2273 8.15555C37.336 7.41081 36.8903 7.03844 36.8344 6.69518C36.7859 6.39749 36.8843 6.09471 37.0985 5.88236C37.3455 5.63752 37.9249 5.59823 39.0838 5.51965L41.8363 5.33302L42.8644 2.77292Z" fill="#FF8833"/>
</g>
<g clip-path="url(#clip3_494_1912)">
<path d="M60.8644 2.77292C61.2972 1.69505 61.5136 1.15611 61.8228 0.996883C62.0909 0.858787 62.4093 0.858787 62.6775 0.996882C62.9866 1.15611 63.2031 1.69505 63.6359 2.77291L64.664 5.33302L67.4165 5.51965C68.5753 5.59823 69.1548 5.63752 69.4017 5.88236C69.6159 6.09471 69.7143 6.39749 69.6658 6.69518C69.6099 7.03844 69.1643 7.41081 68.2729 8.15555L66.1558 9.92441L66.8289 12.5999C67.1122 13.7263 67.2539 14.2895 67.0974 14.6001C66.9616 14.8694 66.7041 15.0565 66.406 15.1024C66.0622 15.1553 65.5704 14.8465 64.5866 14.2289L62.2501 12.762L59.9136 14.2289C58.9299 14.8465 58.438 15.1553 58.0943 15.1024C57.7962 15.0565 57.5386 14.8694 57.4029 14.6001C57.2463 14.2895 57.388 13.7263 57.6714 12.5999L58.3445 9.92441L56.2273 8.15555C55.336 7.41081 54.8903 7.03844 54.8344 6.69518C54.7859 6.39749 54.8843 6.09471 55.0985 5.88236C55.3455 5.63752 55.9249 5.59823 57.0838 5.51965L59.8363 5.33302L60.8644 2.77292Z" fill="#FF8833"/>
</g>
<g clip-path="url(#clip4_494_1912)">
<path fill-rule="evenodd" clip-rule="evenodd" d="M81.7386 6.60667L80.3986 3.26978C80.3443 3.1345 80.2951 3.01221 80.2501 2.90135C80.2052 3.01221 80.156 3.1345 80.1016 3.26978L78.7616 6.60667L75.174 6.84993C75.0286 6.85979 74.897 6.86878 74.7777 6.87729C74.8693 6.95431 74.9704 7.03888 75.0822 7.13234L77.8417 9.43792L76.9644 12.9251C76.9289 13.0665 76.8968 13.1944 76.868 13.3105C76.9695 13.2472 77.0812 13.1772 77.2047 13.0997L80.2501 11.1877L83.2956 13.0997C83.419 13.1772 83.5307 13.2472 83.6323 13.3105C83.6035 13.1944 83.5714 13.0665 83.5358 12.9251L82.6585 9.43792L85.418 7.13235C85.5299 7.03888 85.631 6.95431 85.7225 6.87729C85.6032 6.86878 85.4717 6.85979 85.3263 6.84993L81.7386 6.60667ZM77.8363 5.33302L75.0838 5.51965C73.9249 5.59823 73.3455 5.63752 73.0985 5.88236C72.8843 6.09471 72.7859 6.39749 72.8344 6.69518C72.8903 7.03844 73.336 7.41081 74.2273 8.15554L76.3445 9.92441L75.6714 12.5999C75.388 13.7263 75.2463 14.2895 75.4029 14.6001C75.5386 14.8694 75.7962 15.0565 76.0943 15.1024C76.438 15.1553 76.9299 14.8465 77.9136 14.2289L80.2501 12.762L82.5866 14.2289C83.5704 14.8465 84.0622 15.1553 84.406 15.1024C84.7041 15.0565 84.9616 14.8694 85.0974 14.6001C85.2539 14.2895 85.1122 13.7263 84.8289 12.5999L84.1558 9.92441L86.2729 8.15554C87.1643 7.41081 87.6099 7.03844 87.6658 6.69518C87.7143 6.39749 87.6159 6.09471 87.4017 5.88236C87.1548 5.63752 86.5753 5.59823 85.4165 5.51965L82.664 5.33302L81.6359 2.77291C81.2031 1.69505 80.9866 1.15611 80.6775 0.996883C80.4093 0.858787 80.0909 0.858787 79.8228 0.996883C79.5136 1.15611 79.2972 1.69505 78.8644 2.77292L77.8363 5.33302Z" fill="#FF8833"/>
</g>
<mask id="mask0_494_1912" style="mask-type:alpha" maskUnits="userSpaceOnUse" x="72" y="0" width="17" height="16">
<g clip-path="url(#clip5_494_1912)">
<path d="M78.8644 2.77292C79.2972 1.69505 79.5136 1.15611 79.8228 0.996883C80.0909 0.858787 80.4093 0.858787 80.6775 0.996882C80.9866 1.15611 81.2031 1.69505 81.6359 2.77291L82.664 5.33302L85.4165 5.51965C86.5753 5.59823 87.1548 5.63752 87.4017 5.88236C87.6159 6.09471 87.7143 6.39749 87.6658 6.69518C87.6099 7.03844 87.1643 7.41081 86.2729 8.15555L84.1558 9.92441L84.8289 12.5999C85.1122 13.7263 85.2539 14.2895 85.0974 14.6001C84.9616 14.8694 84.7041 15.0565 84.406 15.1024C84.0622 15.1553 83.5704 14.8465 82.5866 14.2289L80.2501 12.762L77.9136 14.2289C76.9299 14.8465 76.438 15.1553 76.0943 15.1024C75.7962 15.0565 75.5386 14.8694 75.4029 14.6001C75.2463 14.2895 75.388 13.7263 75.6714 12.5999L76.3445 9.92441L74.2273 8.15555C73.336 7.41081 72.8903 7.03844 72.8344 6.69518C72.7859 6.39749 72.8843 6.09471 73.0985 5.88236C73.3455 5.63752 73.9249 5.59823 75.0838 5.51965L77.8363 5.33302L78.8644 2.77292Z" fill="#FF8833"/>
</g>
</mask>
<g mask="url(#mask0_494_1912)">
<rect x="72.25" width="7.5" height="16" fill="#FF8833"/>
</g>
<defs>
<clipPath id="clip0_494_1912">
<rect width="16" height="16" fill="white" transform="translate(0.25)"/>
</clipPath>
<clipPath id="clip1_494_1912">
<rect width="16" height="16" fill="white" transform="translate(18.25)"/>
</clipPath>
<clipPath id="clip2_494_1912">
<rect width="16" height="16" fill="white" transform="translate(36.25)"/>
</clipPath>
<clipPath id="clip3_494_1912">
<rect width="16" height="16" fill="white" transform="translate(54.25)"/>
</clipPath>
<clipPath id="clip4_494_1912">
<rect width="16" height="16" fill="white" transform="translate(72.25)"/>
</clipPath>
<clipPath id="clip5_494_1912">
<rect width="16" height="16" fill="white" transform="translate(72.25)"/>
</clipPath>
</defs>
</svg>
