<svg width="143" height="143" viewBox="0 0 143 143" fill="none" xmlns="http://www.w3.org/2000/svg">
<circle cx="71.55" cy="71.6457" r="61.582" transform="rotate(-10 71.55 71.6457)" fill="#00BB77"/>
<circle cx="71.55" cy="71.6457" r="62.4408" transform="rotate(-10 71.55 71.6457)" stroke="#00BB77" stroke-opacity="0.2" stroke-width="1.71753"/>
<path d="M46.9918 111.524C47.4427 111.528 47.84 111.683 48.1838 111.989C48.5276 112.294 48.7399 112.676 48.8208 113.135C48.8939 113.549 48.8549 113.934 48.7038 114.289C48.5588 114.635 48.3096 114.93 47.9562 115.176C47.6027 115.421 47.1633 115.59 46.638 115.683L43.2973 116.272L41.9313 108.525L45.1277 107.961C45.6531 107.869 46.1194 107.874 46.5268 107.978C46.9416 108.08 47.2719 108.266 47.5177 108.536C47.771 108.804 47.9316 109.13 47.9994 109.515C48.079 109.966 48.0234 110.365 47.8328 110.712C47.6495 111.057 47.3692 111.327 46.9918 111.524ZM44.0487 111.447L45.4694 111.197C45.8393 111.132 46.1099 111 46.2809 110.802C46.4507 110.597 46.5082 110.339 46.4534 110.028C46.3986 109.717 46.2563 109.494 46.0265 109.359C45.7967 109.224 45.4969 109.189 45.1269 109.255L43.7063 109.505L44.0487 111.447ZM46.1929 114.457C46.5703 114.39 46.8469 114.25 47.0228 114.036C47.206 113.82 47.269 113.55 47.2116 113.224C47.1528 112.891 46.9962 112.652 46.7416 112.506C46.4857 112.353 46.1691 112.31 45.7917 112.376L44.2601 112.646L44.628 114.733L46.1929 114.457Z" fill="white"/>
<path d="M52.4236 107.968L52.7661 109.91L55.3742 109.451L55.5915 110.682L52.9833 111.142L53.3453 113.196L56.2865 112.677L56.5096 113.942L52.0146 114.735L50.6467 106.977L55.1416 106.184L55.3647 107.45L52.4236 107.968Z" fill="white"/>
<path d="M62.1956 113.02C61.6555 113.115 61.1509 113.109 60.6817 113.001C60.2199 112.891 59.8326 112.685 59.5197 112.382C59.2068 112.078 59.0049 111.69 58.914 111.218L60.5788 110.925C60.6571 111.239 60.8125 111.471 61.0449 111.621C61.2847 111.769 61.5821 111.812 61.9373 111.749C62.2999 111.685 62.5697 111.55 62.7469 111.343C62.9227 111.129 62.9859 110.882 62.9363 110.6C62.8959 110.371 62.7923 110.195 62.6256 110.072C62.459 109.948 62.2611 109.865 62.0322 109.821C61.8094 109.769 61.5039 109.724 61.1156 109.686C60.5864 109.626 60.1503 109.554 59.8074 109.47C59.4705 109.377 59.162 109.206 58.8817 108.958C58.6075 108.701 58.4274 108.329 58.3413 107.84C58.2604 107.381 58.3046 106.962 58.474 106.581C58.6434 106.2 58.9196 105.884 59.3026 105.634C59.6843 105.376 60.1416 105.2 60.6743 105.106C61.4734 104.965 62.1554 105.047 62.7203 105.351C63.2913 105.648 63.664 106.139 63.8384 106.825L62.1292 107.126C62.0675 106.863 61.9143 106.665 61.6697 106.532C61.4312 106.391 61.1381 106.351 60.7903 106.413C60.487 106.466 60.2565 106.587 60.0989 106.775C59.9487 106.962 59.8997 107.203 59.9519 107.499C59.9884 107.706 60.0857 107.868 60.2437 107.985C60.4077 108.094 60.5975 108.175 60.8129 108.228C61.0345 108.273 61.34 108.318 61.7295 108.364C62.2587 108.423 62.6955 108.499 63.0397 108.591C63.384 108.683 63.6969 108.857 63.9785 109.112C64.26 109.368 64.4432 109.736 64.528 110.217C64.6011 110.631 64.5616 111.035 64.4097 111.428C64.2577 111.821 63.9935 112.161 63.617 112.449C63.2392 112.729 62.7654 112.919 62.1956 113.02Z" fill="white"/>
<path d="M71.7619 103.265L71.983 104.519L69.9186 104.883L71.0635 111.376L69.5097 111.65L68.3648 105.157L66.3005 105.521L66.0793 104.267L71.7619 103.265Z" fill="white"/>
<path d="M78.5356 110.139C77.9954 110.234 77.4908 110.227 77.0216 110.119C76.5598 110.01 76.1725 109.804 75.8596 109.5C75.5467 109.197 75.3448 108.809 75.2539 108.337L76.9188 108.043C76.997 108.358 77.1524 108.59 77.3848 108.739C77.6246 108.888 77.9221 108.931 78.2772 108.868C78.6398 108.804 78.9096 108.669 79.0868 108.462C79.2627 108.248 79.3258 108 79.2762 107.719C79.2358 107.49 79.1322 107.314 78.9655 107.19C78.7989 107.067 78.6011 106.984 78.3721 106.94C78.1493 106.888 77.8438 106.843 77.4556 106.804C76.9263 106.745 76.4902 106.673 76.1473 106.589C75.8104 106.496 75.5019 106.325 75.2216 106.077C74.9475 105.82 74.7673 105.447 74.6812 104.959C74.6003 104.5 74.6446 104.08 74.8139 103.7C74.9833 103.319 75.2595 103.003 75.6425 102.753C76.0243 102.494 76.4815 102.318 77.0142 102.225C77.8133 102.084 78.4953 102.166 79.0602 102.47C79.6312 102.766 80.0039 103.258 80.1783 103.944L78.4691 104.245C78.4074 103.982 78.2542 103.784 78.0096 103.651C77.7711 103.51 77.478 103.47 77.1302 103.532C76.8269 103.585 76.5964 103.706 76.4388 103.894C76.2887 104.08 76.2397 104.322 76.2918 104.618C76.3284 104.825 76.4256 104.987 76.5836 105.104C76.7477 105.213 76.9374 105.294 77.1528 105.347C77.3744 105.392 77.6799 105.437 78.0694 105.483C78.5987 105.542 79.0354 105.618 79.3797 105.71C79.7239 105.802 80.0368 105.975 80.3184 106.231C80.5999 106.486 80.7831 106.855 80.8679 107.336C80.941 107.75 80.9015 108.154 80.7496 108.547C80.5976 108.94 80.3334 109.28 79.9569 109.568C79.5791 109.848 79.1053 110.038 78.5356 110.139Z" fill="white"/>
<path d="M84.6048 102.294L84.9473 104.236L87.5555 103.776L87.7727 105.008L85.1646 105.468L85.5266 107.521L88.4678 107.003L88.6909 108.268L84.1959 109.06L82.8279 101.302L87.3229 100.51L87.546 101.775L84.6048 102.294Z" fill="white"/>
<path d="M93.025 106.233L95.5777 105.783L95.7949 107.015L91.6884 107.739L90.3224 99.9924L91.8763 99.7184L93.025 106.233Z" fill="white"/>
<path d="M99.7047 105.056L102.257 104.605L102.475 105.837L98.3681 106.561L97.0021 98.8146L98.5559 98.5406L99.7047 105.056Z" fill="white"/>
<path d="M105.457 98.617L105.799 100.559L108.407 100.099L108.625 101.331L106.016 101.791L106.378 103.844L109.32 103.326L109.543 104.591L105.048 105.384L103.68 97.6257L108.175 96.8331L108.398 98.0983L105.457 98.617Z" fill="white"/>
<path d="M116.536 103.358L114.294 100.641L113.562 100.77L114.094 103.789L112.54 104.063L111.174 96.3156L114.082 95.8029C114.681 95.6972 115.211 95.7145 115.671 95.8547C116.129 95.9875 116.494 96.2169 116.765 96.543C117.042 96.8603 117.22 97.2409 117.298 97.6849C117.388 98.1954 117.321 98.6839 117.099 99.1505C116.874 99.6096 116.484 99.9684 115.926 100.227L118.334 103.041L116.536 103.358ZM113.356 99.6043L114.655 99.3754C115.077 99.301 115.373 99.1457 115.545 98.9094C115.716 98.6657 115.769 98.3625 115.705 98C115.643 97.6448 115.491 97.3893 115.25 97.2335C115.008 97.0702 114.675 97.0258 114.254 97.1001L112.955 97.3291L113.356 99.6043Z" fill="white"/>
<path fill-rule="evenodd" clip-rule="evenodd" d="M58.2968 29.0214C58.1457 29.0555 58.0044 29.1199 57.8776 29.2352C57.9387 29.2365 58.0007 29.2372 58.0633 29.2379C58.6243 29.2443 59.2344 29.2511 59.652 29.6686C59.8722 29.8311 59.8672 30.1412 59.7116 30.3454C59.4333 30.8216 58.8528 31.058 58.3135 31.0166C57.5911 30.9769 56.8731 30.874 56.1551 30.7712C55.0622 30.6145 53.9696 30.458 52.8626 30.5246C51.8775 30.5686 51.017 31.1927 50.4694 31.9726C49.9633 32.6892 49.9032 33.6523 50.1717 34.465C50.4237 35.101 51.0392 35.6995 51.7718 35.6704C51.2678 35.29 51.0481 34.5138 51.4037 33.9631C51.5984 33.6145 52.0325 33.4948 52.4093 33.4863C53.1837 33.4919 53.9558 33.5453 54.7281 33.5987C55.3905 33.6445 56.0532 33.6904 56.7174 33.7061C56.94 33.7258 57.1624 33.7487 57.3849 33.7716C57.977 33.8325 58.5695 33.8935 59.166 33.8953C59.3462 34.8327 59.5117 35.7716 59.663 36.7141C59.38 37.0117 59.1084 37.3193 58.8367 37.627L58.8366 37.6271C58.6797 37.8048 58.5229 37.9825 58.3638 38.1582C58.9179 38.4346 59.4834 38.6854 60.0499 38.936C60.1923 39.6413 60.3146 40.35 60.437 41.0587C60.5443 41.68 60.6516 42.3013 60.7723 42.9203C60.0549 43.6997 58.9622 43.9984 57.9325 44.0592C56.8502 44.1893 55.7875 43.7256 54.9503 43.0828C56.0177 42.2544 57.1138 41.4573 58.217 40.6757C58.0126 39.3616 57.778 38.0525 57.5434 36.7433C57.4025 35.9568 57.2616 35.1702 57.1271 34.3825C56.3118 34.9024 55.5037 35.4328 54.6957 35.9631L54.6956 35.9632C54.122 36.3396 53.5486 36.716 52.9725 37.0886C53.2126 35.9162 53.9375 34.8727 54.8961 34.1598C54.8395 34.1732 54.782 34.1852 54.7244 34.1972C54.5054 34.2429 54.2839 34.2891 54.0977 34.4184C52.265 35.5339 50.9342 37.4716 50.6791 39.5942C50.4964 40.9461 50.8746 42.3222 51.5382 43.4954C52.3326 44.7909 53.5653 45.8441 55.0355 46.3104C55.8597 46.5637 56.7373 46.7825 57.6058 46.6402C59.4258 46.4715 61.195 45.4694 62.1701 43.9208C62.5941 43.2752 62.7335 42.5088 62.8689 41.7642L62.8743 41.7347C62.9941 40.9949 62.973 40.2337 62.818 39.501C62.4382 40.7423 61.8545 41.9483 60.9333 42.8894C60.8124 42.1832 60.6871 41.4779 60.5618 40.7727C60.4519 40.1539 60.3419 39.5351 60.235 38.9157L60.3002 38.8457L60.3004 38.8455C60.6762 38.4424 61.0526 38.0386 61.4116 37.6208C60.9469 37.3392 60.4845 37.0575 60.0209 36.7751L60.0207 36.7749L59.8379 36.6636C59.7562 36.1942 59.6728 35.7246 59.5895 35.2551L59.5893 35.2537C59.5073 34.7918 59.4254 34.33 59.3451 33.8687C60.3612 33.6345 61.4469 32.8913 61.5357 31.7789C61.6059 31.0507 61.5615 30.2107 61.0203 29.6581C60.5459 29.2822 59.9644 28.9856 59.3427 28.9843C59.205 28.9965 59.0615 28.9925 58.9172 28.9886C58.7063 28.9828 58.494 28.977 58.2968 29.0214ZM55.0101 38.4327C54.8809 37.7069 54.7517 36.981 54.6251 36.2548C54.3843 36.4274 54.1463 36.6032 53.9084 36.7788L53.9083 36.7789L53.9081 36.779C53.6114 36.9981 53.3147 37.2172 53.0129 37.4301C52.8465 38.3225 52.8383 39.2557 53.0438 40.1395C53.4074 41.1653 53.9752 42.1389 54.7494 42.9145C55.0586 42.7088 55.3682 42.505 55.6858 42.3125C55.4702 41.0175 55.2401 39.7251 55.0101 38.4327Z" fill="white"/>
<path d="M63.9082 30.0805L63.9082 30.0804L63.9084 30.0802C64.353 29.6014 64.7975 29.1225 65.2489 28.6508C65.475 29.9182 65.6983 31.1864 65.9215 32.4547L65.9215 32.4549C66.1245 33.6081 66.3275 34.7613 66.5327 35.9141C66.7583 35.6526 66.9847 35.3918 67.2111 35.131L67.212 35.13L67.2129 35.129L67.2135 35.1283L67.2137 35.1281C67.7103 34.5561 68.2067 33.9843 68.6945 33.4052C69.0126 33.6341 69.3248 33.8712 69.6369 34.1083L69.6374 34.1086L69.6375 34.1087L69.6376 34.1088C70.1006 34.4604 70.5633 34.8119 71.045 35.1362C71.2995 34.8782 71.5633 34.6295 71.836 34.3909C71.8443 34.6459 71.662 34.8252 71.4799 35.0042C71.3811 35.1014 71.2824 35.1985 71.2143 35.3076C71.356 36.1013 71.4956 36.8951 71.6352 37.6889L71.6352 37.689C71.7283 38.2185 71.8215 38.7479 71.9152 39.2774C72.0291 39.8571 72.086 40.4444 72.1429 41.0319L72.1429 41.0319C72.1828 41.4438 72.2228 41.8558 72.2823 42.2654C72.426 43.3456 72.1986 44.5159 71.4772 45.3686C70.8967 46.0975 69.9956 46.4822 69.112 46.7136C69.1046 46.7286 69.0917 46.7536 69.0801 46.7763L69.0708 46.7946C69.0677 46.8005 69.0649 46.8059 69.0626 46.8105L69.0729 46.7283C68.7638 46.7828 68.4537 46.8257 68.1415 46.8572C68.2351 46.7865 68.3331 46.7201 68.4313 46.6537C68.7028 46.47 68.9752 46.2856 69.157 46.0056C69.2049 45.9294 69.2546 45.8534 69.3045 45.7773L69.3046 45.7772L69.305 45.7765L69.3051 45.7764C69.5488 45.4041 69.7968 45.0253 69.8658 44.5806C70.0021 43.815 69.8914 43.0392 69.7828 42.2777L69.7824 42.2751L69.768 42.1741C69.7651 42.1535 69.7621 42.1329 69.7592 42.1123C69.6229 41.3577 69.4907 40.6022 69.3585 39.8467L69.3581 39.8446C69.1728 38.786 68.9876 37.7275 68.791 36.6716C68.4958 36.4038 68.1763 36.1625 67.8567 35.921C67.6337 35.7525 67.4107 35.584 67.1957 35.4064C67.1245 35.5145 67.0458 35.6182 66.9672 35.7219L66.9671 35.722L66.967 35.7221L66.967 35.7221C66.833 35.8988 66.6991 36.0753 66.6019 36.2731C66.795 37.427 66.9998 38.5792 67.2046 39.7314L67.2047 39.7318C67.3326 40.4516 67.4606 41.1715 67.5856 41.8916C67.6726 41.9515 67.7595 42.0116 67.8465 42.0718L67.8483 42.0731C68.0489 42.2118 68.2495 42.3506 68.4512 42.4873C68.6022 42.2731 68.753 42.0582 68.9037 41.8432L68.9417 41.7891C68.9693 41.8077 69.0112 41.8362 69.0522 41.8642L69.0543 41.8656C69.0721 41.8777 69.0896 41.8896 69.1057 41.9006C69.1217 41.9115 69.1363 41.9214 69.1482 41.9294C68.7434 42.3744 68.3415 42.8218 67.9396 43.2691L67.9395 43.2692C67.5156 43.741 67.0918 44.2127 66.6648 44.6815C66.1325 44.3581 65.6068 44.0244 65.0811 43.6907L65.081 43.6907L65.0796 43.6898C64.9107 43.5826 64.7418 43.4754 64.5727 43.3685C64.5128 43.4314 64.453 43.4946 64.3931 43.5578C64.2779 43.6794 64.1626 43.8011 64.0467 43.9217C64.0211 43.9031 63.9832 43.8752 63.9452 43.8472L63.9436 43.8461C63.9062 43.8185 63.869 43.7911 63.8438 43.7728C64.1127 43.5266 64.3769 43.2753 64.6409 43.0242L64.6409 43.0241L64.6411 43.024C64.7799 42.892 64.9186 42.76 65.0579 42.6289C64.4699 39.3 63.8831 35.9718 63.2971 32.6425C63.29 32.61 63.2833 32.577 63.2766 32.5439L63.276 32.541C63.2306 32.318 63.1835 32.0866 63.031 31.9108C62.947 31.8007 62.8182 31.758 62.6902 31.7156C62.6352 31.6973 62.5803 31.6791 62.5292 31.6556C62.4927 31.5841 62.5523 31.5265 62.6088 31.4719C62.6348 31.4467 62.6602 31.4222 62.6752 31.3973C63.0897 30.9621 63.4986 30.5216 63.9075 30.0811L63.9077 30.081L63.9078 30.0809L63.9078 30.0808L63.9081 30.0805L63.9082 30.0805Z" fill="white"/>
<path fill-rule="evenodd" clip-rule="evenodd" d="M75.2365 33.8011C75.4436 33.617 75.6495 33.4317 75.8555 33.2463L75.856 33.2459C76.3722 32.7813 76.8885 32.3166 77.4231 31.8716C78.2811 32.9535 79.1384 34.0346 80.0155 35.1015C78.8553 36.3478 77.6695 37.5717 76.4843 38.7949C76.5005 38.8599 76.5063 38.9334 76.5122 39.0081C76.5269 39.1948 76.5422 39.3889 76.7236 39.4769C77.0848 39.7015 77.4424 39.9315 77.7999 40.1615L77.8005 40.1619L77.8008 40.162L77.8008 40.1621L77.801 40.1622L77.8011 40.1623C78.2016 40.4199 78.602 40.6775 79.0074 40.9275C79.2901 40.6102 79.5697 40.2894 79.8494 39.9685L79.8495 39.9685L79.8496 39.9684C80.2537 39.5048 80.658 39.041 81.072 38.5874L81.2802 38.7127C80.6696 39.3775 80.0549 40.0393 79.4402 40.701L79.44 40.7013C78.7863 41.405 78.1327 42.1087 77.4838 42.8162C77.4554 42.8375 77.4073 42.8743 77.3682 42.9041L77.3675 42.9046L77.3667 42.9052L77.3284 42.9344C76.8501 42.6623 76.3805 42.3753 75.911 42.0883L75.9107 42.0881L75.9105 42.088L75.9104 42.0879C75.4128 41.7838 74.9153 41.4798 74.4077 41.1936C74.2034 41.3874 74.0248 41.6046 73.8464 41.8217L73.8435 41.8253C73.8305 41.841 73.8175 41.8568 73.8045 41.8726L73.7887 41.8918C73.7311 41.8696 73.6172 41.8258 73.5598 41.8045C73.695 41.618 73.8644 41.4622 74.0339 41.3062L74.034 41.3061C74.1449 41.2041 74.2559 41.102 74.3573 40.9913C74.1453 39.8165 73.9383 38.6409 73.7313 37.4652C73.5987 36.7124 73.4662 35.9597 73.3323 35.2071C73.5419 35.0524 73.7523 34.8987 73.9627 34.7449C74.3894 34.4331 74.8162 34.1211 75.2365 33.8011ZM76.2626 34.4367L76.2621 34.436L76.2607 34.4345L76.2587 34.4322C76.0306 34.1759 75.8025 33.9196 75.5745 33.663C75.8446 35.2678 76.1307 36.8708 76.4201 38.4723C77.0174 37.8623 77.6172 37.2548 78.2238 36.652C77.5737 35.9098 76.9183 35.1734 76.2626 34.4367Z" fill="white"/>
<path d="M42.2556 58.1307C42.9931 57.2623 43.1146 55.8515 42.3654 54.9586C42.4451 55.6976 41.8526 56.3745 41.165 56.5781C40.4854 56.6538 39.8281 56.373 39.2936 55.9822C39.0873 56.331 38.8784 56.6783 38.6695 57.0257C38.1849 57.8312 37.7004 58.6369 37.2489 59.4602C37.2802 59.4706 37.328 59.4863 37.3746 59.5017L37.3761 59.5022C37.4152 59.5151 37.4533 59.5276 37.4797 59.5363C37.6389 59.2312 37.8154 58.9344 37.9918 58.638L37.9919 58.6379C38.0086 58.6098 38.0254 58.5816 38.0421 58.5535C38.4951 58.8477 38.9923 59.1056 39.5423 59.1501C39.6849 59.1726 39.8296 59.1714 39.9741 59.1702C40.1328 59.1689 40.2913 59.1676 40.4464 59.1978C40.873 61.5214 41.2787 63.8505 41.6792 66.1785C40.4076 64.659 39.1516 63.1264 37.8957 61.5938L37.8957 61.5937C37.0682 60.5839 36.2407 59.5742 35.4087 58.5681L35.3977 58.5544C35.0655 58.1419 34.7294 57.7243 34.2936 57.4137C33.2649 56.6309 31.6008 56.9626 30.9895 58.1131C30.4633 58.9521 30.5544 60.0152 30.8413 60.916C30.8526 60.8424 30.8618 60.7674 30.8712 60.6918C30.9126 60.3559 30.9553 60.0099 31.1804 59.7418C31.3774 59.491 31.7388 59.4685 32.03 59.5321C32.4251 59.6314 32.7088 59.9316 32.9796 60.2182C33.0156 60.2564 33.0515 60.2943 33.0873 60.3314L33.5537 62.9768C32.8847 63.0791 32.1678 63.2644 31.6955 63.7787C31.2439 64.2698 31.2039 65.0054 31.4027 65.6095C31.5772 66.0756 31.8967 66.4797 32.2735 66.8031C32.5839 67.0345 32.9976 67.0331 33.3711 67.0317L33.3771 67.0317C33.0457 66.8692 32.691 66.592 32.7481 66.1784C32.8806 65.6572 33.5055 65.4793 33.9855 65.4703L34.0346 65.7381C34.2477 66.8985 34.4608 68.0589 34.6416 69.2251C33.671 69.3403 32.6896 69.7765 32.1102 70.5846C31.5758 71.2984 31.4857 72.2855 31.7998 73.1039C32.0305 73.6975 32.546 74.1261 33.0859 74.4403C33.7617 74.8209 34.5958 74.7603 35.3025 74.4884L35.2765 74.4867C34.6714 74.4476 33.9626 74.4017 33.5864 73.8611C33.2772 73.4866 33.4119 72.9562 33.6908 72.6065C33.9236 72.2483 34.3755 72.1481 34.772 72.0938C35.3818 72.0492 35.9353 72.3895 36.3733 72.7737C36.5814 72.4448 36.7893 72.1156 36.9973 71.7864C37.4131 71.1281 37.829 70.4698 38.246 69.8131C38.2527 69.8027 38.2594 69.7923 38.2661 69.7819L38.2842 69.7539C38.3861 69.5965 38.4884 69.4382 38.5498 69.2607C38.3049 69.3675 38.1647 69.5929 38.0246 69.8181L38.0245 69.8181C37.9463 69.9439 37.8681 70.0696 37.7716 70.1746C36.9594 69.4872 35.8756 69.1745 34.8173 69.1637C34.6119 67.951 34.3957 66.7398 34.1796 65.5286C33.8832 63.8681 33.5869 62.2076 33.3181 60.5432C35.1266 62.7719 36.9202 65.0124 38.7138 67.2526L38.7139 67.2527L38.7141 67.253L38.7167 67.2562C39.7556 68.5539 40.7945 69.8515 41.8361 71.1467C41.8766 71.1931 41.9155 71.2452 41.955 71.2981C42.1027 71.4958 42.2589 71.7051 42.537 71.6692C42.7272 71.7122 42.8739 71.5362 42.7987 71.358C42.5491 69.9458 42.301 68.5333 42.0529 67.1208L42.0528 67.1197L42.0523 67.117C41.5863 64.4637 41.1203 61.8103 40.6438 59.1592L40.7063 59.1263C41.2505 58.8403 41.8026 58.5501 42.2556 58.1307Z" fill="white"/>
<path d="M51.5662 56.8956C51.207 56.9931 50.8406 57.0926 50.5694 57.356C50.0945 57.7932 49.6751 58.3601 49.6181 59.017C49.6014 59.5925 49.737 60.2038 50.1241 60.6481C50.3362 60.881 50.6071 61.037 50.8782 61.1932C51.0493 61.2917 51.2205 61.3903 51.3769 61.5082C51.7444 61.7851 51.9832 62.2104 52.0631 62.6578C52.3601 64.3306 52.655 66.0027 52.948 67.6762C52.7931 67.8278 52.6407 67.9821 52.4884 68.1365L52.488 68.1368L52.488 68.1369C52.3347 68.2921 52.1814 68.4474 52.0256 68.5998C52.0636 68.6243 52.1275 68.6667 52.1807 68.7021C52.2029 68.7169 52.2233 68.7304 52.2391 68.7409C52.3605 68.5924 52.4858 68.4474 52.6111 68.3024C52.7396 68.1538 52.868 68.0052 52.992 67.8532C53.5955 68.1667 54.1932 68.4919 54.7912 68.8172C54.9676 68.9132 55.144 69.0092 55.3206 69.1049C55.3456 69.1135 55.3735 69.1303 55.4027 69.1477C55.4833 69.1961 55.5732 69.25 55.6348 69.1526C56.2495 68.4692 56.8594 67.7802 57.4685 67.092L57.469 67.0915L57.5043 67.0516C57.8324 67.2138 58.1593 67.3786 58.4863 67.5434L58.4866 67.5436L58.4867 67.5437C59.0657 67.8355 59.6448 68.1275 60.2311 68.4049C60.7905 67.9026 61.359 67.4088 61.9275 66.9151L61.9277 66.915L61.9279 66.9148C62.7583 66.1936 63.5886 65.4725 64.3898 64.7251C64.2713 63.9964 64.1399 63.2692 64.0085 62.5419L64.0084 62.5412C63.8277 61.5414 63.647 60.5415 63.4999 59.5376C63.984 58.8877 64.4849 58.2485 64.9908 57.6154C64.9686 57.5933 64.9347 57.56 64.9007 57.5267C64.8864 57.5126 64.872 57.4985 64.8585 57.4852C64.8402 57.4672 64.8235 57.4507 64.8106 57.438C64.5742 57.7183 64.3721 58.0249 64.176 58.3325C63.4439 57.941 62.7082 57.5543 61.9731 57.1678L61.972 57.1673L61.9718 57.1671L61.9711 57.1668L61.9707 57.1666L61.7783 57.0654C61.5636 57.3473 61.3481 57.6284 61.1326 57.9096L61.1307 57.9121C60.7529 58.4049 60.3751 58.8977 60.0017 59.3945C60.2015 59.5148 60.4053 59.6287 60.609 59.7426L60.6092 59.7427L60.6094 59.7428L60.6103 59.7433C60.7561 59.8248 60.9018 59.9062 61.046 59.99C61.2254 60.9893 61.4011 61.989 61.5768 62.9888C61.7814 64.1533 61.9861 65.3178 62.1966 66.4815C62.1105 66.5507 62.0264 66.6194 61.9432 66.6891C61.2439 66.3364 60.5491 65.9751 59.8547 65.614L59.7209 65.5444C59.5835 64.7575 59.4445 63.971 59.3056 63.1844L59.3051 63.1814C59.1312 62.1969 58.9573 61.2124 58.7863 60.2274C59.0046 59.9362 59.2148 59.6392 59.4166 59.3366C59.1666 59.1766 58.9152 59.0187 58.6637 58.8608L58.6636 58.8607C58.1529 58.5399 57.6421 58.2191 57.1434 57.8807C56.7331 58.3881 56.3381 58.9078 55.9431 59.4274L55.943 59.4276L55.9429 59.4277C55.7424 59.6915 55.5418 59.9554 55.3393 60.2176C55.4692 60.2997 55.6067 60.3725 55.7443 60.4454L55.7444 60.4455C55.9656 60.5626 56.187 60.6798 56.3767 60.8359C56.6027 62.0498 56.8156 63.2668 57.0284 64.4838L57.0285 64.4839C57.1683 65.2836 57.3082 66.0833 57.4518 66.8822C57.3226 67.0003 57.1945 67.118 57.0663 67.2359C56.7686 67.0729 56.4703 66.9115 56.1718 66.7499L56.1688 66.7483C55.901 66.6034 55.6332 66.4584 55.3656 66.3123C55.1874 65.286 55.0062 64.2603 54.825 63.2343C54.6801 62.4136 54.5351 61.5928 54.3916 60.7715C54.3396 60.4204 54.1469 60.0989 53.8813 59.8649C53.5382 59.5642 53.116 59.404 52.6935 59.2438L52.6931 59.2436C52.436 59.1461 52.1787 59.0485 51.9392 58.9191C51.5907 58.7273 51.2637 58.405 51.2675 57.9821C51.2331 57.5159 51.5561 57.1408 51.8492 56.8152C51.757 56.8437 51.6624 56.8694 51.5673 56.8952L51.5663 56.8955L51.5662 56.8956Z" fill="white"/>
<path fill-rule="evenodd" clip-rule="evenodd" d="M47.5222 59.5772C47.0031 60.0625 46.4793 60.5437 45.9429 61.0094C45.3998 61.4941 44.8097 61.9202 44.2195 62.3464C43.9605 62.5335 43.7014 62.7206 43.4463 62.9126C43.587 63.704 43.7259 64.4958 43.8649 65.2876C44.0642 66.4237 44.2635 67.5598 44.4683 68.6948C44.3586 68.81 44.2414 68.9176 44.1243 69.0252C43.9785 69.159 43.8327 69.2929 43.7014 69.4413C43.7202 69.4639 43.749 69.4977 43.7779 69.5317L43.7782 69.532C43.8072 69.5661 43.8361 69.6001 43.855 69.6228C43.9204 69.5606 43.9855 69.498 44.0506 69.4355C44.2538 69.2403 44.457 69.0451 44.6684 68.8584C45.3009 69.2753 45.9379 69.6859 46.5747 70.0964L46.5749 70.0966C46.8644 70.2832 47.1539 70.4698 47.4429 70.657C48.3126 69.747 49.1666 68.8217 50.0204 67.8963L50.0207 67.8961C50.4366 67.4453 50.8526 66.9946 51.2704 66.5456C51.4524 66.4742 51.244 66.1987 51.1443 66.337C50.6893 66.8331 50.2471 67.3411 49.8049 67.8491C49.5769 68.111 49.3489 68.3729 49.1191 68.6332C48.5675 68.2548 48.0182 67.8743 47.4689 67.4938C47.2982 67.3755 47.1275 67.2573 46.9568 67.1391C46.7933 67.041 46.7807 66.8557 46.7685 66.6763C46.7636 66.6045 46.7588 66.5336 46.7444 66.4696C47.2941 65.8948 47.8321 65.3089 48.3701 64.723L48.3705 64.7226L48.3707 64.7223C48.9467 64.095 49.5228 63.4677 50.1131 62.8539C49.6072 62.1621 49.0654 61.4947 48.5237 60.8274C48.1869 60.4126 47.8502 59.9978 47.5222 59.5772ZM48.1101 64.0985L48.3298 64.3687C48.0071 64.7022 47.6932 65.0439 47.3794 65.3857L47.3792 65.3859L47.379 65.3861L47.3789 65.3862L47.3788 65.3863C47.1481 65.6375 46.9173 65.8888 46.683 66.1368C46.5057 65.2309 46.3479 64.3208 46.19 63.4108L46.19 63.4105C46.0726 62.7341 45.9553 62.0576 45.83 61.3828C46.618 62.263 47.3646 63.1815 48.1101 64.0985Z" fill="white"/>
<path d="M97.522 46.7987L97.5235 46.7973L97.5271 46.794C98.2134 46.1564 98.9 45.5186 99.5902 44.886C99.9287 46.7814 100.262 48.678 100.595 50.5746L100.598 50.5917C101.036 53.084 101.474 55.5764 101.924 58.0665C102.149 58.279 102.416 58.4516 102.682 58.623L102.682 58.6232L102.683 58.6233L102.683 58.6234L102.683 58.6234C102.783 58.6881 102.883 58.7526 102.98 58.819C103.106 58.6273 103.239 58.4404 103.371 58.2536L103.372 58.2518C103.402 58.2096 103.432 58.1675 103.462 58.1254L103.47 58.1308C103.526 58.1697 103.627 58.2397 103.68 58.2745C103.329 58.701 102.986 59.1326 102.642 59.5641L102.642 59.5649L102.642 59.5651C102.215 60.1007 101.789 60.6361 101.35 61.1615C101.034 60.937 100.715 60.7176 100.396 60.4983C100.017 60.2372 99.637 59.9763 99.2637 59.707C99.0949 59.9178 98.9415 60.1392 98.7881 60.3605L98.788 60.3606L98.7831 60.3678C98.7377 60.4333 98.6922 60.4989 98.6463 60.5641C98.6169 60.549 98.5722 60.5257 98.5281 60.5027C98.487 60.4813 98.4464 60.4602 98.419 60.4461C98.6162 60.1804 98.8243 59.9231 99.0325 59.6657L99.0332 59.6649L99.0334 59.6646L99.0335 59.6644L99.0336 59.6644L99.0338 59.6641L99.0339 59.664L99.0341 59.6638C99.2157 59.4392 99.3974 59.2145 99.5721 58.984C99.312 57.5189 99.054 56.0534 98.7959 54.5879C98.4676 52.7233 98.1393 50.8588 97.8069 48.9954C97.6863 48.3745 97.2341 47.6854 96.5158 47.7325C96.8509 47.4222 97.1857 47.1112 97.5205 46.8001L97.5218 46.799L97.522 46.7987Z" fill="white"/>
<path fill-rule="evenodd" clip-rule="evenodd" d="M74.7812 51.3425C75.2731 50.7637 75.7648 50.185 76.2667 49.6142C76.5083 49.7548 76.7494 49.8961 76.9904 50.0373L76.9906 50.0374C77.554 50.3676 78.1171 50.6976 78.6863 51.0189C78.7943 50.9117 78.8892 50.7877 78.9842 50.6636C79.1664 50.4256 79.349 50.187 79.6252 50.0654C79.4484 50.3568 79.2232 50.6156 78.9986 50.8736C78.9046 50.9815 78.8108 51.0894 78.7206 51.1994C79.1093 53.4523 79.5074 55.7034 79.9055 57.9545L79.9056 57.9552C80.1971 59.6038 80.4887 61.2524 80.7765 62.9017C80.8715 63.5299 80.7368 64.2386 80.2384 64.678C79.7662 65.1697 79.0868 65.419 78.4131 65.4612C77.8193 65.5049 77.2283 65.4571 76.6373 65.4093L76.6371 65.4092C76.0497 65.3617 75.4623 65.3142 74.8724 65.3565C73.8332 65.3246 72.6979 65.3536 71.8161 65.9715C71.4126 66.2792 71.0564 66.8238 71.2796 67.3352C71.492 67.8692 72.0966 68.1754 72.6617 68.0365C73.6508 67.8349 74.5902 67.4704 75.5298 67.1057L75.5299 67.1057C76.1845 66.8516 76.8392 66.5975 77.511 66.3984C78.383 66.1465 79.3401 65.8701 80.2306 66.1962C80.8989 66.3994 81.5841 66.8338 81.7551 67.5499C81.9205 68.2748 81.793 69.1001 81.3023 69.6843C80.8693 70.2134 80.2612 70.571 79.6316 70.8234C79.931 70.5114 80.2438 70.1568 80.2788 69.7078C80.3404 69.207 79.9085 68.658 79.3611 68.7969C78.4009 68.9987 77.4985 69.3758 76.5956 69.753C75.7574 70.1033 74.9188 70.4536 74.0334 70.6641C73.3825 70.8014 72.7002 70.9129 72.0461 70.7396C71.174 70.473 70.4341 69.7626 70.1948 68.8838C70.0828 68.3782 69.9938 67.8338 70.1794 67.3327C70.4321 66.6313 71.0252 66.1039 71.6672 65.7473C71.6515 65.6571 71.6359 65.5669 71.6202 65.4768L71.6066 65.3986C71.5837 65.2668 71.5609 65.1349 71.538 65.0031L71.5372 64.9987C71.2363 63.2648 70.9354 61.5315 70.6138 59.8012C70.1344 59.7571 69.5303 59.9285 69.3351 60.4047C69.2091 60.8669 69.6236 61.1895 70.0028 61.3474C69.3768 61.3558 68.6654 61.1502 68.3602 60.5619C67.9516 59.9849 67.9516 59.2024 68.2906 58.5908C68.6006 57.8311 69.4597 57.5569 70.203 57.4141C70.1135 56.9092 70.0248 56.4044 69.9362 55.8997L69.9359 55.8979C69.8284 55.2857 69.7209 54.6738 69.612 54.0621C69.5376 53.6913 69.4459 53.2975 69.1722 53.0179C68.8484 52.6685 68.2573 52.6239 67.8642 52.8778C67.5179 53.1775 67.4634 53.6707 67.4761 54.0975C67.2162 53.4511 67.3559 52.6812 67.7713 52.1259C68.221 51.5115 68.8606 50.9834 69.6397 50.8686C70.3013 50.7981 71.0203 50.9143 71.5432 51.3455C71.9611 51.6832 72.2253 52.1786 72.328 52.6995C72.6048 54.2653 72.8803 55.8311 73.1558 57.3967L73.1586 57.4125C73.6093 59.9746 74.0601 62.5364 74.5166 65.0976C75.0201 65.1207 75.5272 65.1309 76.0327 65.1371C75.622 62.7969 75.2089 60.4572 74.7959 58.1176C74.3439 55.5573 73.8919 52.997 73.4429 50.4361C73.4008 50.309 73.451 50.2363 73.5907 50.2185C73.6776 50.6276 73.7483 51.0391 73.8189 51.4506L73.819 51.4512C73.8674 51.7326 73.9157 52.014 73.9692 52.2947C74.241 51.9782 74.511 51.6605 74.781 51.3428L74.781 51.3427L74.7812 51.3425ZM75.4647 52.4188C75.1919 52.2557 74.9193 52.0928 74.645 51.9326C74.4323 52.1223 74.2172 52.3075 74.0016 52.4928C74.2554 53.9267 74.5092 55.3602 74.7601 56.7946C75.1531 57.013 75.6368 57.158 76.0765 56.9823C76.3505 56.8976 76.5252 56.6636 76.6839 56.4432C76.5559 55.7273 76.4302 55.011 76.3046 54.2947L76.3044 54.2937L76.3031 54.2866C76.2137 53.777 76.1243 53.2673 76.0341 52.7579C75.8441 52.6456 75.6549 52.5325 75.4659 52.4195L75.4647 52.4188ZM76.7464 56.7979C76.2404 57.2838 75.4639 57.3279 74.8201 57.1351C74.8633 57.3824 74.9072 57.6296 74.9511 57.8767L74.952 57.8817C75.0071 58.1916 75.0621 58.5013 75.1157 58.8111C75.3809 58.5296 75.7096 58.2826 76.1039 58.222C76.438 58.1621 76.7689 58.2878 77.0415 58.4715C76.9414 57.9147 76.8427 57.3553 76.7464 56.7979ZM77.1053 58.8333C76.8555 58.571 76.5132 58.3413 76.1302 58.399C75.6988 58.4692 75.401 58.8187 75.1778 59.1634C75.3252 59.9793 75.4677 60.7966 75.6101 61.6141L75.6103 61.6154C75.8222 62.831 76.0341 64.0468 76.2625 65.2586C76.6922 65.2064 77.1662 65.113 77.4682 64.776C77.7829 64.4377 78.043 63.9711 77.9281 63.4994C77.812 62.8384 77.695 62.1773 77.5779 61.5162C77.4197 60.6219 77.2614 59.7277 77.1053 58.8333Z" fill="white"/>
<path fill-rule="evenodd" clip-rule="evenodd" d="M83.8076 54.3721C84.3609 53.8621 84.9283 53.3684 85.5062 52.8845C86.173 53.2613 86.8382 53.6423 87.5035 54.0233C87.9295 54.2673 88.3556 54.5113 88.7821 54.7542C88.8528 54.6742 88.9237 54.5944 88.9946 54.5146L88.9947 54.5145L88.9947 54.5144L88.995 54.5141C89.1342 54.3575 89.2735 54.2007 89.4112 54.0419C89.4238 54.0392 89.4393 54.0358 89.4563 54.0321L89.4569 54.032C89.5096 54.0206 89.5763 54.0062 89.6146 53.9987C89.4512 54.2404 89.2815 54.479 89.1121 54.7172L89.1121 54.7173L89.1118 54.7176L89.1104 54.7196C89.0648 54.7837 89.0193 54.8478 88.9739 54.9119C89.0822 55.532 89.1925 56.1516 89.3027 56.7711L89.303 56.7726C89.5281 58.0368 89.753 59.3006 89.9611 60.5677C89.1549 61.1371 88.4072 61.7776 87.6592 62.4183L87.6592 62.4184L87.6591 62.4184L87.6589 62.4186C87.1816 62.8275 86.7042 63.2365 86.2114 63.627C86.1724 63.6492 86.1338 63.6854 86.0944 63.7224C86.0016 63.8095 85.9042 63.9008 85.7867 63.8223C85.4288 63.6204 85.0717 63.4172 84.7146 63.214L84.7144 63.2139L84.7142 63.2138L84.714 63.2136L84.7133 63.2132C84.0772 62.8513 83.4412 62.4893 82.8008 62.1346C82.7822 62.1612 82.7635 62.1879 82.7448 62.2145L82.7381 62.224C82.6016 62.4184 82.4648 62.6134 82.3343 62.811L82.3089 62.8173C82.2531 62.8313 82.17 62.8521 82.125 62.8625C82.2987 62.6044 82.4805 62.3495 82.6619 62.095L82.7215 62.0116C82.7362 61.9908 82.751 61.9701 82.7657 61.9494C82.6499 61.2964 82.5357 60.643 82.4214 59.9897L82.4212 59.9886C82.1818 58.6189 81.9423 57.2492 81.6885 55.8823C81.8392 55.7808 81.9911 55.6805 82.1431 55.5802L82.144 55.5796C82.7165 55.2018 83.2903 54.8232 83.8076 54.3721ZM85.2756 55.3067C84.8904 55.0617 84.5054 54.8169 84.1227 54.5694L85.1891 60.6162C85.5334 60.8292 85.8737 61.048 86.214 61.2668L86.2141 61.2669L86.2143 61.267C86.67 61.56 87.1258 61.8531 87.591 62.1319C87.5268 61.7679 87.4626 61.4039 87.3983 61.0399L87.3976 61.0359C87.108 59.3952 86.8185 57.7548 86.5346 56.1127C86.1168 55.8415 85.6961 55.5741 85.2756 55.3067Z" fill="white"/>
<path d="M101.446 54.7083C102.172 53.0279 102.922 51.3571 103.676 49.6875C104.182 49.9798 104.766 50.113 105.351 50.0697C105.914 49.9715 106.335 49.5565 106.701 49.1513C106.737 49.9824 106.612 50.8744 106.081 51.5503C105.619 52.1462 104.806 52.4132 104.071 52.2915C103.639 52.2264 103.223 52.0778 102.839 51.8736C102.803 52.0232 102.78 52.1756 102.77 52.3285C104.486 54.1135 106.182 55.9204 107.878 57.7263L108.059 57.9195C108.316 57.6828 108.532 57.4076 108.747 57.1339L108.78 57.0914C108.79 57.0788 108.8 57.0662 108.81 57.0536C108.839 57.0653 108.882 57.0827 108.925 57.1004L108.927 57.1012C108.974 57.1203 109.021 57.1395 109.053 57.1521C108.361 58.0187 107.643 58.8652 106.926 59.7117L106.926 59.7118C106.772 59.8933 106.618 60.0749 106.464 60.2566C105.802 59.5272 105.143 58.7941 104.485 58.0611L104.484 58.06C103.476 56.9385 102.468 55.8169 101.446 54.7083Z" fill="white"/>
<path d="M93.9234 53.2286C93.7085 53.0704 93.4986 52.9051 93.2888 52.7398C92.9068 52.439 92.5249 52.1381 92.1129 51.8806C91.7224 52.3942 91.317 52.8965 90.9116 53.3988L90.9114 53.3991L90.9112 53.3993C90.5469 53.8507 90.1826 54.302 89.829 54.7617C90.0827 54.708 90.2398 54.5098 90.3965 54.3119L90.3965 54.3119C90.4804 54.206 90.5642 54.1001 90.6628 54.0167C90.7824 54.1632 90.9146 54.3014 91.0468 54.4395L91.0469 54.4396C91.2492 54.6509 91.4513 54.8621 91.6079 55.1029C91.7726 55.9898 91.9278 56.8786 92.0831 57.7676L92.0836 57.7704C92.226 58.5853 92.3684 59.4003 92.5181 60.2141C92.3938 60.4023 92.2623 60.5857 92.1308 60.769L92.1307 60.7692C91.9679 60.9961 91.8053 61.223 91.6563 61.4589C91.6784 61.4768 91.7105 61.5027 91.7436 61.5294L91.8028 61.5772C91.8211 61.592 91.8377 61.6054 91.8508 61.616C91.9099 61.5333 91.9683 61.4499 92.0267 61.3665L92.0267 61.3665C92.1751 61.1545 92.3236 60.9425 92.4845 60.7394C92.9595 61.0555 93.4411 61.3617 93.9228 61.668L93.923 61.6681L93.9231 61.6681L93.9233 61.6683L93.9239 61.6686C94.2496 61.8757 94.5754 62.0828 94.8992 62.293L95.0433 62.1169L95.0434 62.1168C95.7742 61.2242 96.5064 60.3299 97.1952 59.407C96.9482 59.4735 96.7924 59.6723 96.6375 59.8699L96.6374 59.87C96.561 59.9675 96.4848 60.0647 96.398 60.1455C95.939 59.9299 95.4883 59.6991 95.0383 59.4672L94.9325 58.8638C94.6185 57.0726 94.3046 55.2821 93.9828 53.4921C94.1147 53.5435 94.2349 53.6179 94.3552 53.6923C94.5051 53.785 94.6551 53.8777 94.8278 53.9263C95.6549 54.2478 96.6771 53.8683 97.1191 53.1089C97.5067 52.4573 97.5412 51.6618 97.4118 50.9335C97.303 51.0097 97.2178 51.1142 97.1332 51.2182C97.0034 51.3776 96.8747 51.5357 96.6634 51.5878C96.2512 51.7483 95.8502 51.5722 95.4719 51.4061L95.4716 51.4059L95.4713 51.4058L95.471 51.4057C95.4053 51.3768 95.3403 51.3483 95.2761 51.3219C94.8353 51.9642 94.387 52.6029 93.9234 53.2286Z" fill="white"/>
<path fill-rule="evenodd" clip-rule="evenodd" d="M57.3891 76.7535C57.223 76.7777 57.0672 76.8383 56.934 76.9737C57.0295 76.9784 57.1259 76.9798 57.2225 76.9811L57.2237 76.9811C57.4913 76.9847 57.7607 76.9884 58.0197 77.0645C58.3328 77.1507 58.574 77.4008 58.7257 77.6765C58.8357 77.984 58.6523 78.3178 58.3921 78.4864C57.9281 78.8058 57.3368 78.8001 56.7983 78.7527C56.3262 78.696 55.8557 78.6241 55.3853 78.5521L55.385 78.5521C54.5617 78.4262 53.7384 78.3003 52.9055 78.256C52.2354 78.2337 51.5353 78.2246 50.9124 78.5092C50.2393 78.8311 49.58 79.293 49.2724 79.9914C48.8544 80.775 48.9536 81.7339 49.3592 82.497C49.6711 82.9987 50.2038 83.4522 50.8362 83.4124C50.7846 83.3662 50.7266 83.3211 50.6675 83.275C50.443 83.1002 50.2022 82.9127 50.2303 82.6085C50.222 82.2349 50.3095 81.839 50.5626 81.5509C50.8185 81.2789 51.2224 81.2107 51.5816 81.2485C52.4494 81.2547 53.313 81.3163 54.1769 81.3778L54.177 81.3778C54.6017 81.4081 55.0265 81.4383 55.4518 81.462C55.8541 81.475 56.2544 81.5178 56.6547 81.5606C57.1208 81.6104 57.5869 81.6603 58.0563 81.6631C58.1698 82.253 58.273 82.8447 58.3763 83.4367L58.3766 83.4384C58.4366 83.7826 58.4967 84.1269 58.5588 84.471L58.5081 84.5339L58.5073 84.5349C58.1401 84.9908 57.773 85.4465 57.4122 85.9079C57.5942 86.0021 57.7753 86.0976 57.9565 86.193L57.9575 86.1936L57.9586 86.1942C58.2878 86.3677 58.6169 86.5411 58.9505 86.7069C59.0611 87.316 59.1684 87.9261 59.2758 88.5362C59.403 89.2595 59.5303 89.9829 59.663 90.7051C58.9715 91.4347 57.9504 91.7646 56.9622 91.8023C55.8853 91.9273 54.8412 91.4576 54.0012 90.832C54.1754 90.6601 54.3749 90.5184 54.5746 90.3764C54.6667 90.311 54.7589 90.2454 54.8487 90.1769C55.1436 89.963 55.4364 89.7467 55.7292 89.5304L55.7293 89.5304C56.2355 89.1564 56.7416 88.7827 57.2572 88.4218C57.0478 87.1341 56.8187 85.8496 56.5895 84.5652L56.5894 84.5646C56.4444 83.7517 56.2994 82.9388 56.1594 82.1252C55.5965 82.4885 55.0364 82.8564 54.4762 83.2242L54.4755 83.2247L54.4751 83.225L54.4747 83.2253C53.6586 83.7612 52.8425 84.2972 52.0176 84.8192C52.2185 83.9541 52.6366 83.1214 53.2864 82.4992L53.3044 82.476C53.4841 82.2453 53.6678 82.0094 53.9487 81.8915C53.8974 81.9043 53.8456 81.9162 53.7937 81.9281L53.793 81.9282C53.5433 81.9856 53.292 82.0433 53.0844 82.1985C51.12 83.4168 49.6425 85.5792 49.6444 87.9158C49.6962 89.0927 50.0151 90.2682 50.6137 91.287C51.3602 92.475 52.478 93.4502 53.799 93.9655C54.4306 94.2086 55.0928 94.377 55.7668 94.4555C57.3443 94.4375 58.9501 93.9295 60.1494 92.8873C60.9267 92.1209 61.6091 91.1847 61.7987 90.0928C62.0429 89.1513 62.0349 88.1713 61.8875 87.2174C61.8003 87.3834 61.7446 87.5611 61.689 87.7389C61.6535 87.8521 61.6181 87.9652 61.5745 88.0753C61.2143 89.0107 60.6902 89.893 59.9904 90.6203C59.8992 90.0803 59.8029 89.5413 59.7065 89.0022L59.7063 89.001C59.5654 88.2126 59.4245 87.4242 59.2997 86.6329C59.4916 86.4374 59.6754 86.2343 59.8593 86.0312C60.0561 85.8137 60.2531 85.5961 60.4601 85.3875C60.1342 85.1532 59.7884 84.9485 59.4429 84.744L59.4428 84.744C59.2604 84.636 59.078 84.5281 58.8987 84.4159C58.8271 84.0307 58.7603 83.6445 58.6934 83.2584L58.6934 83.2581C58.5989 82.7121 58.5043 82.166 58.3963 81.6227C59.2675 81.4111 60.0898 80.8631 60.4287 80.0149C60.7832 79.1423 60.5916 78.0725 59.9762 77.365C59.5154 76.9416 58.871 76.7302 58.2465 76.7471C58.1186 76.7592 57.9849 76.7529 57.8509 76.7466L57.8508 76.7466C57.6947 76.7393 57.538 76.7319 57.3891 76.7535ZM54.3081 87.5354L54.3077 87.5336C54.1007 86.3524 53.8936 85.1712 53.6786 83.9912C53.6166 84.0371 53.5546 84.0829 53.4926 84.1287L53.4824 84.1363L53.482 84.1366C53.0086 84.4866 52.5363 84.8358 52.0555 85.1758C51.7186 86.277 51.8691 87.4744 52.2846 88.5303C52.6333 89.3309 53.1633 90.048 53.7892 90.6583C53.9379 90.5629 54.0857 90.4662 54.2335 90.3694L54.2344 90.3688C54.4054 90.2568 54.5765 90.1448 54.7491 90.0349C54.6003 89.202 54.4542 88.3687 54.3081 87.5354Z" fill="white"/>
<path d="M61.8277 79.1919C62.1234 78.8066 62.419 78.4213 62.7347 78.0516C63.111 78.3272 63.4957 78.5916 63.8803 78.8558L63.882 78.857C64.1494 79.0407 64.4167 79.2244 64.6812 79.4119C64.1308 80.1364 63.5757 80.8568 63.015 81.5732C62.7601 81.3563 62.5031 81.1423 62.2462 80.9284L62.246 80.9283L62.2457 80.9281L62.2456 80.928L62.2455 80.9279L62.2454 80.9278L62.2449 80.9274C61.8866 80.6291 61.5284 80.3309 61.1763 80.025C61.3985 79.7514 61.6129 79.4719 61.8273 79.1924L61.8277 79.192L61.8277 79.1919Z" fill="white"/>
<path fill-rule="evenodd" clip-rule="evenodd" d="M86.9706 77.7601C86.9192 77.8049 86.8678 77.8496 86.8164 77.8944C86.3199 78.3262 85.8227 78.7588 85.3355 79.1997C84.8721 79.6551 84.3448 80.0329 83.8174 80.4107C83.5078 80.6325 83.1982 80.8543 82.9015 81.0919C83.1017 82.1946 83.2956 83.299 83.4894 84.4032L83.4899 84.406C83.6344 85.2289 83.7789 86.0517 83.9259 86.8737C83.8215 86.9714 83.7179 87.0697 83.6143 87.1678C83.449 87.3245 83.2839 87.481 83.1169 87.6349C83.128 87.6443 83.1417 87.6561 83.1569 87.6691C83.1745 87.6841 83.1939 87.7007 83.2134 87.7173C83.2496 87.7484 83.2858 87.7794 83.3097 87.7997C83.393 87.7128 83.4721 87.6217 83.5513 87.5305L83.5516 87.5301C83.6907 87.3699 83.8301 87.2093 83.9929 87.0705C84.5368 87.4182 85.0909 87.75 85.6452 88.0819L85.6489 88.0842C86.0342 88.3149 86.4197 88.5457 86.8017 88.782C86.8821 88.8704 86.9571 88.7902 87.0195 88.7234L87.02 88.7229C87.0254 88.7171 87.0307 88.7114 87.0359 88.706C87.0391 88.7027 87.0422 88.6994 87.0454 88.6963L87.0472 88.6944L87.0498 88.6919C87.0517 88.69 87.0535 88.6882 87.0554 88.6864C87.0568 88.6851 87.0582 88.6838 87.0596 88.6825C87.9252 87.7442 88.7931 86.8088 89.661 85.8734L89.6645 85.8697L89.6667 85.8674L89.6689 85.865L89.6765 85.8568C90.0638 85.4393 90.4511 85.0219 90.8382 84.6042C90.6614 84.3935 90.5348 84.5525 90.4154 84.7024C90.3846 84.7412 90.3542 84.7793 90.3235 84.8103L90.1608 84.9965L90.16 84.9974L90.1597 84.9976L90.1576 85.0001C89.6273 85.6066 89.0977 86.2123 88.565 86.8166C88.2535 86.6216 87.9449 86.4225 87.6363 86.2235L87.6358 86.2231L87.6357 86.223L87.6355 86.2229L87.6351 86.2227C87.1405 85.9036 86.6461 85.5847 86.14 85.2828C86.0941 85.0865 86.0583 84.888 86.0327 84.6881C86.9257 83.7757 87.8075 82.852 88.6892 81.9284L88.6897 81.9279L88.6898 81.9278L88.6901 81.9275L88.6947 81.9227C88.9866 81.6169 89.2785 81.3111 89.5709 81.0057C88.7081 79.9197 87.8434 78.8365 86.9706 77.7601ZM85.1254 79.5853C85.7468 80.2204 86.3327 80.8901 86.9188 81.5598C87.2066 81.8888 87.4945 82.2178 87.7866 82.5428C87.4518 82.8677 87.124 83.1997 86.7963 83.5316L86.7959 83.532L86.7956 83.5323L86.7955 83.5324C86.5195 83.812 86.2436 84.0914 85.9636 84.3665C85.8003 83.3997 85.6289 82.4341 85.4574 81.4684L85.4572 81.467C85.3458 80.8398 85.2345 80.2127 85.1254 79.5853Z" fill="white"/>
<path d="M68.9797 81.0861C68.5842 81.5657 68.1971 82.0517 67.8099 82.5377C67.5117 82.9121 67.2135 83.2865 66.9113 83.658C66.8937 83.6824 66.8729 83.7063 66.852 83.7303C66.783 83.8096 66.712 83.8911 66.7437 84.0008C66.9474 83.8614 67.107 83.6747 67.2664 83.4882L67.2665 83.4881C67.34 83.402 67.4135 83.316 67.4913 83.2347C67.6443 83.3558 67.7988 83.4751 67.9533 83.5944L67.9535 83.5946L67.9537 83.5948C68.2816 83.848 68.6095 84.1013 68.9229 84.3716C69.1844 85.9387 69.4662 87.5031 69.7479 89.0668C69.6708 89.1505 69.5935 89.2339 69.5163 89.3172L69.516 89.3175C69.4171 89.4242 69.3183 89.5308 69.2201 89.638C69.5621 89.9179 69.9071 90.1942 70.2521 90.4705L70.2527 90.471L70.253 90.4712L70.2532 90.4714C70.6956 90.8257 71.1381 91.1801 71.5743 91.542C72.1337 90.7786 72.6861 90.0087 73.2138 89.2234C73.1135 89.137 73.0084 89.0546 72.9031 88.9721C72.6876 88.8033 72.4715 88.6341 72.2953 88.4291C72.0778 87.2594 71.873 86.087 71.6681 84.9148L71.6674 84.9107C71.5486 84.2312 71.4299 83.5517 71.3087 82.8728C71.4258 82.7039 71.5421 82.5352 71.6558 82.3639C72.2247 82.7977 72.7838 83.2657 73.2961 83.7605C73.455 84.6104 73.604 85.4627 73.753 86.3151L73.753 86.3153C73.8648 86.9547 73.9766 87.5943 74.0926 88.2328C74.1706 88.4512 74.0332 88.6209 73.8994 88.7863C73.8452 88.8532 73.7916 88.9194 73.7531 88.9879C74.468 89.5429 75.1913 90.0873 75.9226 90.6211C76.1724 90.3048 76.4173 89.9848 76.6622 89.6648L76.6625 89.6645C76.9641 89.2704 77.2657 88.8764 77.5761 88.4895C77.4348 88.3813 77.2884 88.2806 77.1422 88.18L77.1421 88.1798C76.9831 88.0704 76.8244 87.9612 76.6727 87.8427C76.4595 86.5854 76.2367 85.3299 76.0139 84.0743L76.0137 84.0727C75.8973 83.417 75.781 82.7613 75.666 82.1054C75.7621 81.9641 75.8597 81.8237 75.9575 81.683L75.9579 81.6825C75.9803 81.6502 76.0028 81.6179 76.0252 81.5856C76.5609 81.9772 77.0851 82.3842 77.6092 82.7912L77.7963 82.9365C77.8861 83.4457 77.9761 83.955 78.0662 84.4644L78.068 84.4749C78.2476 85.4909 78.4272 86.5071 78.6052 87.5236C78.4827 87.6964 78.3583 87.8685 78.2288 88.0357C78.6919 88.4324 79.1696 88.8124 79.6471 89.1923C79.9645 89.4448 80.2818 89.6972 80.5947 89.9544C80.6644 89.863 80.7341 89.7717 80.8038 89.6803L80.804 89.6801C81.5072 88.7586 82.211 87.8363 82.888 86.896C82.8577 86.8838 82.812 86.8657 82.7664 86.8476L82.7363 86.8357C82.7008 86.8217 82.6674 86.8084 82.6435 86.7987C82.5425 86.9558 82.4363 87.1098 82.3303 87.2636C82.2808 87.3353 82.2314 87.407 82.1826 87.4789C81.7678 87.2042 81.3584 86.9216 80.9548 86.6311C80.81 85.7688 80.657 84.908 80.504 84.0472L80.5038 84.046C80.3417 83.1345 80.1797 82.2231 80.0275 81.31C80.1154 81.211 80.2013 81.11 80.2874 81.0089L80.2877 81.0086C80.3685 80.9136 80.4494 80.8186 80.532 80.7251C80.5538 80.6984 80.5778 80.672 80.6021 80.6454C80.7067 80.5307 80.8149 80.412 80.7617 80.2428C80.5796 80.3993 80.4114 80.5705 80.2433 80.7416L80.2432 80.7417L80.2432 80.7418L80.243 80.7419C80.1048 80.8827 79.9665 81.0234 79.8206 81.1559C79.546 80.9475 79.2699 80.7408 78.9938 80.5343L78.9929 80.5336L78.9925 80.5332C78.5579 80.208 78.1234 79.8828 77.6946 79.5504C77.2331 80.0331 76.7793 80.523 76.3253 81.013L76.3251 81.0133L76.3249 81.0136C76.0427 81.3182 75.7604 81.6229 75.4763 81.9259C75.0468 81.6118 74.6226 81.2912 74.1984 80.9707L74.1981 80.9705L74.198 80.9704C73.9096 80.7525 73.6213 80.5346 73.3313 80.3188C73.0159 80.6498 72.7062 80.986 72.3965 81.322L72.3965 81.3221C71.9699 81.7851 71.5434 82.2479 71.1026 82.6971C70.6823 82.3638 70.2524 82.0426 69.8226 81.7214C69.5408 81.5107 69.2589 81.3001 68.9797 81.0861Z" fill="white"/>
<path d="M61.2335 84.7858C61.65 84.2495 62.0784 83.7215 62.5069 83.1935C62.811 82.8188 63.1151 82.444 63.4149 82.0663C63.8145 82.3826 64.2096 82.7043 64.6048 83.0261C64.9321 83.2926 65.2593 83.559 65.5891 83.8224C65.6807 83.7217 65.7675 83.6164 65.8545 83.5111C66.0258 83.3035 66.1974 83.0956 66.4052 82.9215C66.3985 83.0356 66.3887 83.1542 66.2966 83.2342C66.2766 83.2575 66.2567 83.2808 66.2368 83.3041C66.2093 83.3361 66.1819 83.3682 66.1545 83.4003L66.154 83.4008L66.1539 83.4009C65.9788 83.6056 65.8041 83.8098 65.6261 84.0103C65.7472 84.688 65.8659 85.366 65.9847 86.0439L65.985 86.0456C66.1772 87.143 66.3694 88.2403 66.5713 89.3363C66.6667 89.4112 66.7626 89.4856 66.8586 89.56L66.8587 89.5601C67.1756 89.8059 67.493 90.0521 67.7931 90.3186C67.9331 90.1966 68.0541 90.0568 68.1753 89.9169L68.1754 89.9168L68.1755 89.9168C68.2606 89.8184 68.3459 89.72 68.4378 89.6277C68.4967 89.6467 68.6154 89.6838 68.6743 89.7019C67.9662 90.6358 67.2206 91.5429 66.4697 92.4421C65.8286 91.9056 65.1766 91.3806 64.5249 90.8558L64.3168 90.6882C64.2321 90.7962 64.1552 90.9104 64.0783 91.0245L64.0783 91.0246C63.9556 91.2067 63.8331 91.3886 63.6795 91.5448L63.6714 91.5396L63.6638 91.5348C63.6592 91.5318 63.6542 91.5286 63.6491 91.5252L63.6381 91.5181C63.5983 91.4923 63.5493 91.4602 63.5132 91.4366L63.4909 91.4219C63.5879 91.2928 63.6812 91.1609 63.7747 91.029L63.7747 91.0289L63.7748 91.0288C63.886 90.8718 63.9972 90.7148 64.1148 90.5618C63.9601 89.6151 63.7917 88.6701 63.6233 87.7252L63.6232 87.7244C63.5041 87.056 63.385 86.3876 63.2707 85.7187C63.2564 85.6608 63.2476 85.599 63.2387 85.5368C63.2135 85.3603 63.1877 85.1795 63.0334 85.0703C62.8979 84.9531 62.7652 84.8329 62.6324 84.7128C62.3909 84.4941 62.1495 84.2754 61.8919 84.0756C61.8409 84.1337 61.7907 84.1926 61.7406 84.2515C61.5809 84.4391 61.4214 84.6264 61.2335 84.7858Z" fill="white"/>
<path fill-rule="evenodd" clip-rule="evenodd" d="M96.6318 75.6158C96.732 75.7788 96.7886 75.9706 96.7326 76.1602C96.6047 76.6786 96.0576 76.9655 95.563 77.0439C95.0389 77.0892 94.5716 76.7931 94.1628 76.5077C93.9218 76.7367 93.6801 76.9651 93.4384 77.1934L93.4373 77.1945L93.436 77.1957C93.1617 77.4549 92.8874 77.714 92.6144 77.9737C92.0212 78.5398 91.3374 79.0011 90.6463 79.4401C90.726 79.8999 90.8071 80.359 90.8882 80.8181L90.8888 80.8213C90.9746 81.3067 91.0603 81.7921 91.1444 82.2783C91.38 82.4116 91.6172 82.5416 91.8545 82.6716C92.2448 82.8855 92.6349 83.0994 93.0173 83.3275C92.6836 83.8282 92.3567 84.334 92.0497 84.8506C91.7363 85.3929 91.4579 86.0046 91.5466 86.6429C91.6506 87.3678 92.1002 88.0933 92.8127 88.3613C93.127 88.4767 93.4996 88.5632 93.8084 88.3772C93.3706 88.3041 92.8115 88.0983 92.7595 87.595C92.791 87.1044 93.3004 86.69 93.7932 86.7426C94.3037 86.7939 94.7658 87.0669 95.1448 87.3977C96.2377 86.287 97.4138 85.2593 98.6574 84.3163C98.5681 83.8343 98.4848 83.3508 98.4015 82.8672C98.2776 82.1479 98.1537 81.4285 98.0098 80.7141C97.6297 80.5388 97.2563 80.3501 96.8831 80.1615L96.8828 80.1614L96.8827 80.1613L96.8816 80.1608C96.59 80.0134 96.2984 79.866 96.0037 79.7252C96.4959 78.8224 96.9837 77.8734 97.0729 76.8365C97.0973 76.4012 97.0376 75.8683 96.6318 75.6158ZM94.8232 79.0841C94.0666 79.0957 93.4311 78.63 92.924 78.1253C92.9813 78.457 93.0405 78.7885 93.0996 79.1201L93.0998 79.121C93.199 79.677 93.2982 80.2331 93.3891 80.7901C93.5658 80.9226 93.7482 81.0476 93.9307 81.1726L93.9308 81.1727L93.9309 81.1728C94.0945 81.2849 94.2582 81.397 94.4177 81.5145C95.3197 80.4639 96.1697 79.3184 96.6153 77.9998C96.2269 78.6073 95.586 79.1253 94.8232 79.0841ZM95.6736 82.162C95.5201 82.0735 95.3672 81.9843 95.2144 81.8952L95.2138 81.8948C95.0059 81.7736 94.7983 81.6526 94.5897 81.5333C94.106 82.2677 93.5846 82.9752 93.0628 83.6831L93.0628 83.6832L93.0466 83.7051C93.0193 83.7444 92.9918 83.7838 92.9642 83.8232L92.9225 83.8828L92.9224 83.883C92.5035 84.4811 92.0768 85.0906 91.8578 85.7902C92.0636 85.4652 92.2846 85.1419 92.5891 84.8979C93.2447 84.314 94.2437 84.1658 95.0494 84.5058C95.6033 84.7302 96.0432 85.1587 96.3721 85.6448C96.2771 85.0167 96.1646 84.3905 96.0521 83.7645L96.052 83.7638C95.9791 83.3577 95.9061 82.9517 95.838 82.5454C95.825 82.5064 95.8193 82.4621 95.8135 82.4176C95.7998 82.3118 95.7859 82.2044 95.6736 82.162Z" fill="white"/>
</svg>
