<svg width="63" height="126" viewBox="0 0 63 126" fill="none" xmlns="http://www.w3.org/2000/svg">
<path d="M53.6532 0H9.38648C4.45092 0 0.449858 3.9838 0.449858 8.89806V16.541H0.302512C0.135439 16.541 0 16.6759 0 16.8422V21.193C0 21.3594 0.135439 21.4942 0.302512 21.4942H0.449858V25.7782H0.302591C0.135 25.7782 0 25.9123 0 26.0792V34.7027C0 34.8696 0.135 35.004 0.302591 35.004H0.449858V37.3802H0.302591C0.135 37.3802 0 37.5143 0 37.6812V46.3047C0 46.4716 0.135 46.606 0.302591 46.606H0.449858V117.102C0.449858 122.016 4.45092 126 9.38648 126H53.6532C58.5888 126 62.5898 122.016 62.5898 117.102V43.3856H62.6974C62.865 43.3856 63 43.2512 63 43.0843V29.0967C63 28.9298 62.865 28.7957 62.6974 28.7957H62.5898V8.89806C62.5898 3.9838 58.5888 0 53.6532 0Z" fill="#7A00DA"/>
<path d="M3.67438 8.86294C3.67438 5.72334 6.21287 3.1958 9.36608 3.1958H14.9337H47.8881H53.4557C56.6089 3.1958 59.1474 5.72334 59.1474 8.86294V117.214C59.1474 120.354 56.6089 122.881 53.4557 122.881H9.36608C6.21287 122.881 3.67438 120.354 3.67438 117.214V8.86294Z" fill="white"/>
<path d="M3.67438 8.86294C3.67438 5.72334 6.21287 3.1958 9.36608 3.1958H14.9337H47.8881H53.4557C56.6089 3.1958 59.1474 5.72334 59.1474 8.86294V117.214C59.1474 120.354 56.6089 122.881 53.4557 122.881H9.36608C6.21287 122.881 3.67438 120.354 3.67438 117.214V8.86294Z" stroke="white"/>
<rect x="12" y="12" width="39" height="4" rx="2" fill="#FF8833"/>
<rect x="12" y="18" width="31" height="4" rx="2" fill="#FF8833"/>
<rect x="12" y="34" width="31" height="4" rx="2" fill="#FF8833"/>
<rect x="12" y="46" width="15" height="4" rx="2" fill="#FF8833"/>
<rect x="12" y="40" width="39" height="4" rx="2" fill="#FF8833"/>
<rect x="12" y="62" width="31" height="4" rx="2" fill="#FF8833"/>
<rect x="12" y="90" width="31" height="4" rx="2" fill="#FF8833"/>
<rect x="12" y="74" width="23" height="4" rx="2" fill="#FF8833"/>
<rect x="12" y="102" width="23" height="4" rx="2" fill="#FF8833"/>
<rect x="12" y="68" width="39" height="4" rx="2" fill="#FF8833"/>
<rect x="12" y="96" width="39" height="4" rx="2" fill="#FF8833"/>
</svg>
