<svg width="282" height="157" viewBox="0 0 282 157" fill="none" xmlns="http://www.w3.org/2000/svg">
<rect x="11.4188" y="65.1353" width="260.581" height="79.4221" rx="9.65204" transform="rotate(2 11.4188 65.1353)" fill="white"/>
<rect x="10.9575" y="64.6405" width="261.537" height="80.3788" rx="10.1304" transform="rotate(2 10.9575 64.6405)" stroke="#00BB77" stroke-opacity="0.2" stroke-width="0.956666"/>
<rect x="1" y="76.439" width="275.887" height="79.4221" rx="9.65204" transform="rotate(-3 1 76.439)" fill="white"/>
<circle cx="34.1236" cy="118.375" r="12.065" transform="rotate(-3 34.1236 118.375)" fill="#00BB77"/>
<circle cx="34.1236" cy="118.375" r="11.2607" transform="rotate(-3 34.1236 118.375)" stroke="#00BB77" stroke-opacity="0.2" stroke-width="1.60867"/>
<path d="M30.2984 115.725L31.8524 115.644L34.1997 120.614L34.2819 120.61L36.0968 115.421L37.6508 115.34L38.0182 122.35L36.7996 122.414L36.5472 117.598L36.4822 117.601L34.7962 122.498L33.8857 122.546L31.6965 117.842L31.6314 117.845L31.8844 122.672L30.6658 122.735L30.2984 115.725Z" fill="white"/>
<circle cx="69.4658" cy="116.523" r="12.065" transform="rotate(-3 69.4658 116.523)" fill="#00BB77"/>
<circle cx="69.4658" cy="116.523" r="11.2607" transform="rotate(-3 69.4658 116.523)" stroke="#00BB77" stroke-opacity="0.2" stroke-width="1.60867"/>
<path d="M66.5745 114.892L66.5187 113.827L72.1117 113.534L72.1675 114.599L70.0008 114.712L70.3124 120.658L69.0528 120.724L68.7412 114.778L66.5745 114.892Z" fill="white"/>
<circle cx="104.808" cy="114.67" r="12.065" transform="rotate(-3 104.808 114.67)" fill="#00BB77"/>
<circle cx="104.808" cy="114.67" r="11.2607" transform="rotate(-3 104.808 114.67)" stroke="#00BB77" stroke-opacity="0.2" stroke-width="1.60867"/>
<path d="M102.341 118.979L99.9951 112.073L101.361 112.001L102.894 117.086L102.959 117.083L104.038 111.861L105.28 111.796L106.902 116.88L106.964 116.876L107.957 111.655L109.322 111.584L107.711 118.697L106.459 118.763L104.798 113.918L104.743 113.921L103.594 118.913L102.341 118.979Z" fill="white"/>
<circle cx="140.15" cy="112.818" r="11.2607" transform="rotate(-3 140.15 112.818)" stroke="#00BB77" stroke-opacity="0.2" stroke-width="1.60867"/>
<path d="M139.561 101.57C139.538 101.128 139.878 100.748 140.321 100.754C142.507 100.785 144.649 101.409 146.514 102.568C148.608 103.868 150.253 105.777 151.229 108.04C152.205 110.302 152.465 112.81 151.973 115.224C151.535 117.376 150.519 119.363 149.041 120.974C148.742 121.3 148.232 121.287 147.926 120.966C147.62 120.646 147.635 120.14 147.931 119.81C149.173 118.428 150.029 116.735 150.401 114.904C150.827 112.811 150.602 110.637 149.756 108.675C148.91 106.713 147.483 105.058 145.668 103.931C144.081 102.945 142.263 102.405 140.405 102.36C139.962 102.349 139.584 102.013 139.561 101.57Z" fill="#00BB77"/>
<path d="M137.259 111.187L137.203 110.123L142.796 109.83L142.852 110.894L140.685 111.008L140.997 116.953L139.737 117.019L139.426 111.074L137.259 111.187Z" fill="#00BB77"/>
<rect x="129.07" y="131.924" width="24.1301" height="1.60867" rx="0.804337" transform="rotate(-3 129.07 131.924)" fill="#00BB77"/>
<circle cx="175.493" cy="110.966" r="11.2607" transform="rotate(-3 175.493 110.966)" stroke="#00BB77" stroke-opacity="0.2" stroke-width="1.60867"/>
<path d="M173.579 115.246L173.211 108.236L177.702 108L177.758 109.065L174.537 109.234L174.637 111.137L177.55 110.984L177.605 112.049L174.693 112.201L174.849 115.179L173.579 115.246Z" fill="#00BB77"/>
<circle cx="210.835" cy="109.113" r="11.2607" transform="rotate(-3 210.835 109.113)" stroke="#00BB77" stroke-opacity="0.2" stroke-width="1.60867"/>
<path d="M212.158 108.127C212.111 107.829 211.964 107.604 211.718 107.45C211.474 107.295 211.164 107.228 210.788 107.248C210.523 107.262 210.298 107.314 210.113 107.403C209.927 107.493 209.788 107.609 209.695 107.751C209.602 107.893 209.559 108.052 209.566 108.228C209.573 108.374 209.613 108.499 209.685 108.603C209.759 108.707 209.856 108.793 209.976 108.862C210.097 108.929 210.229 108.984 210.373 109.027C210.517 109.07 210.662 109.104 210.807 109.131L211.473 109.261C211.741 109.309 212 109.379 212.249 109.471C212.501 109.563 212.729 109.684 212.931 109.833C213.136 109.983 213.301 110.167 213.427 110.387C213.553 110.607 213.624 110.869 213.639 111.172C213.661 111.583 213.575 111.95 213.381 112.274C213.188 112.595 212.897 112.854 212.509 113.051C212.123 113.245 211.65 113.357 211.089 113.386C210.543 113.415 210.065 113.355 209.655 113.207C209.247 113.059 208.921 112.829 208.678 112.517C208.438 112.205 208.296 111.816 208.253 111.352L209.503 111.286C209.534 111.529 209.62 111.729 209.761 111.884C209.901 112.039 210.08 112.151 210.296 112.219C210.515 112.288 210.757 112.315 211.021 112.302C211.298 112.287 211.537 112.233 211.741 112.14C211.946 112.045 212.104 111.92 212.215 111.765C212.326 111.609 212.377 111.43 212.369 111.229C212.357 111.046 212.296 110.898 212.185 110.785C212.073 110.67 211.921 110.577 211.727 110.507C211.536 110.435 211.313 110.373 211.058 110.323L210.25 110.159C209.665 110.041 209.197 109.84 208.846 109.557C208.497 109.27 208.309 108.876 208.283 108.374C208.261 107.961 208.354 107.594 208.561 107.272C208.771 106.95 209.065 106.693 209.444 106.501C209.823 106.308 210.258 106.198 210.748 106.172C211.246 106.146 211.686 106.21 212.069 106.364C212.455 106.515 212.763 106.738 212.993 107.033C213.224 107.325 213.353 107.668 213.38 108.063L212.158 108.127Z" fill="#00BB77"/>
<circle cx="246.177" cy="107.261" r="11.2607" transform="rotate(-3 246.177 107.261)" stroke="#00BB77" stroke-opacity="0.2" stroke-width="1.60867"/>
<path d="M247.501 106.275C247.453 105.977 247.306 105.752 247.06 105.598C246.817 105.443 246.506 105.376 246.13 105.396C245.865 105.41 245.64 105.461 245.455 105.551C245.27 105.641 245.131 105.757 245.037 105.899C244.944 106.041 244.901 106.2 244.908 106.376C244.916 106.522 244.955 106.647 245.027 106.751C245.101 106.855 245.198 106.941 245.319 107.01C245.439 107.077 245.571 107.132 245.715 107.175C245.859 107.218 246.004 107.252 246.15 107.279L246.815 107.409C247.083 107.457 247.342 107.527 247.592 107.619C247.844 107.711 248.071 107.832 248.273 107.981C248.478 108.131 248.643 108.315 248.769 108.535C248.895 108.755 248.966 109.017 248.982 109.32C249.003 109.731 248.917 110.098 248.724 110.422C248.53 110.743 248.239 111.002 247.852 111.199C247.466 111.393 246.992 111.505 246.431 111.534C245.886 111.563 245.408 111.503 244.997 111.355C244.589 111.207 244.263 110.977 244.021 110.665C243.78 110.353 243.638 109.964 243.596 109.5L244.845 109.434C244.876 109.677 244.962 109.877 245.103 110.032C245.244 110.187 245.422 110.299 245.639 110.367C245.857 110.436 246.099 110.463 246.364 110.45C246.64 110.435 246.88 110.381 247.083 110.288C247.289 110.193 247.447 110.068 247.558 109.913C247.668 109.756 247.72 109.578 247.711 109.377C247.7 109.194 247.638 109.046 247.527 108.933C247.416 108.818 247.263 108.725 247.07 108.655C246.878 108.583 246.655 108.521 246.401 108.471L245.593 108.307C245.007 108.189 244.539 107.988 244.188 107.704C243.839 107.418 243.651 107.024 243.625 106.522C243.603 106.109 243.696 105.742 243.904 105.42C244.113 105.098 244.408 104.841 244.786 104.649C245.165 104.456 245.6 104.346 246.091 104.32C246.588 104.294 247.028 104.358 247.412 104.512C247.797 104.663 248.105 104.886 248.336 105.181C248.566 105.473 248.695 105.816 248.723 106.211L247.501 106.275Z" fill="#00BB77"/>
<rect x="0.497288" y="75.9863" width="276.844" height="80.3788" rx="10.1304" transform="rotate(-3 0.497288 75.9863)" stroke="#00BB77" stroke-opacity="0.2" stroke-width="0.956666"/>
<circle cx="161.982" cy="47.5247" r="43.2416" transform="rotate(6 161.982 47.5247)" fill="#0066FF"/>
<circle cx="161.982" cy="47.5247" r="44.2472" transform="rotate(6 161.982 47.5247)" stroke="#0066FF" stroke-opacity="0.2" stroke-width="2.01124"/>
<path d="M141.471 33.0356L138.869 32.7622L135.412 34.4736L135.154 36.9284L138.35 35.3641L138.427 35.3721L137.327 45.837L140.095 46.128L141.471 33.0356ZM147.97 47.1366C150.885 47.443 153.066 45.7526 153.338 43.1054C153.607 40.6001 152.045 38.6132 149.686 38.3653C148.536 38.2444 147.494 38.6197 146.966 39.217L146.89 39.2089L147.573 35.965L153.295 36.5664L153.532 34.3034L145.529 33.4621L144.183 40.3011L146.598 41.0009C147.058 40.4998 147.873 40.243 148.647 40.3243C149.963 40.4691 150.809 41.5211 150.665 42.8955C150.521 44.2572 149.496 45.0995 148.198 44.9631C147.098 44.8475 146.282 44.0637 146.325 43.0405L143.64 42.7583C143.454 45.0267 145.259 46.8517 147.97 47.1366ZM159.001 48.1151L161.725 48.4014L162.344 42.5073C162.458 41.4205 163.225 40.7707 164.133 40.8661C165.028 40.9602 165.564 41.637 165.463 42.6023L164.819 48.7266L167.459 49.0041L168.089 43.0077C168.196 41.9912 168.85 41.3619 169.841 41.4661C170.711 41.5575 171.306 42.1694 171.191 43.2625L170.553 49.3293L173.27 49.6148L173.964 43.0111C174.188 40.8823 173.05 39.5347 171.221 39.3425C169.783 39.1913 168.587 39.8089 168.066 40.8917L167.964 40.881C167.77 39.7101 166.842 38.8823 165.494 38.7405C164.17 38.6014 163.093 39.1991 162.562 40.3132L162.447 40.3011L162.629 38.5687L160.033 38.2959L159.001 48.1151ZM175.421 49.8409L178.144 50.1271L179.177 40.3079L176.453 40.0217L175.421 49.8409ZM177.954 38.8997C178.766 38.985 179.496 38.4348 179.576 37.6741C179.655 36.9197 179.056 36.2297 178.244 36.1444C177.438 36.0598 176.708 36.61 176.629 37.3643C176.549 38.1251 177.149 38.815 177.954 38.8997ZM183.646 44.9659C183.785 43.7008 184.618 43.0385 185.717 43.1541C186.81 43.269 187.394 44.0542 187.261 45.2554L186.655 51.0216L189.378 51.3079L190.035 45.0558C190.276 42.7671 189.081 41.2196 187.035 41.0046C185.578 40.8514 184.448 41.4566 183.887 42.5545L183.771 42.5424L183.954 40.81L181.358 40.5372L180.326 50.3564L183.049 50.6427L183.646 44.9659Z" fill="white"/>
<path d="M139.681 63.7935L140.622 54.8428L141.588 54.9444L141.479 55.9785L141.598 55.991C141.683 55.8857 141.8 55.7523 141.949 55.5907C142.1 55.4267 142.306 55.2884 142.566 55.1758C142.83 55.0606 143.174 55.0253 143.597 55.0699C144.145 55.1275 144.614 55.3153 145.004 55.6333C145.393 55.9513 145.678 56.3741 145.86 56.9017C146.042 57.4292 146.097 58.0349 146.025 58.7186C145.952 59.408 145.772 59.9932 145.484 60.4743C145.197 60.9526 144.831 61.3083 144.387 61.5416C143.943 61.772 143.449 61.8587 142.907 61.8016C142.489 61.7577 142.161 61.6533 141.924 61.4884C141.688 61.3207 141.511 61.1407 141.394 60.9485C141.277 60.7534 141.189 60.5927 141.128 60.4663L141.043 60.4574L140.681 63.8987L139.681 63.7935ZM141.263 58.201C141.211 58.6926 141.238 59.1339 141.342 59.5248C141.447 59.9129 141.627 60.2274 141.882 60.4684C142.136 60.7066 142.465 60.8468 142.866 60.8889C143.284 60.9329 143.644 60.8594 143.947 60.6684C144.253 60.4749 144.497 60.1977 144.677 59.8367C144.861 59.4733 144.978 59.0599 145.026 58.5965C145.074 58.1388 145.047 57.7189 144.944 57.3368C144.845 56.9521 144.665 56.6375 144.405 56.3931C144.148 56.1462 143.808 56.0004 143.384 55.9559C142.977 55.9131 142.625 55.9803 142.326 56.1575C142.028 56.3318 141.789 56.5952 141.609 56.9476C141.429 57.2972 141.314 57.715 141.263 58.201ZM149.925 62.5393C149.298 62.4734 148.771 62.2781 148.346 61.9534C147.923 61.6261 147.615 61.1996 147.422 60.6736C147.232 60.1452 147.172 59.5476 147.242 58.8808C147.312 58.214 147.495 57.6391 147.791 57.1561C148.091 56.6705 148.475 56.3081 148.943 56.0688C149.414 55.8269 149.943 55.7369 150.531 55.7986C150.87 55.8343 151.199 55.926 151.517 56.0737C151.836 56.2215 152.118 56.4367 152.362 56.7195C152.607 56.9995 152.788 57.3556 152.905 57.7879C153.023 58.2201 153.05 58.74 152.986 59.3474L152.941 59.7712L147.923 59.2438L148.014 58.3793L152.015 58.7997C152.054 58.4325 152.015 58.097 151.898 57.7934C151.784 57.49 151.602 57.2409 151.351 57.046C151.103 56.8514 150.798 56.7351 150.436 56.6971C150.038 56.6552 149.683 56.7179 149.371 56.8851C149.062 57.0497 148.814 57.2807 148.625 57.578C148.437 57.8752 148.324 58.2033 148.286 58.5621L148.226 59.1385C148.174 59.6301 148.215 60.0557 148.349 60.4154C148.485 60.7726 148.697 61.0562 148.983 61.2663C149.27 61.4735 149.615 61.5984 150.02 61.6408C150.282 61.6684 150.523 61.6567 150.743 61.6055C150.966 61.5518 151.163 61.4582 151.334 61.3248C151.505 61.1885 151.645 61.0119 151.754 60.7947L152.692 61.1675C152.555 61.4846 152.354 61.7548 152.088 61.9782C151.822 62.1988 151.505 62.3597 151.137 62.461C150.77 62.5595 150.366 62.5856 149.925 62.5393ZM154.156 62.8469L154.84 56.3373L155.807 56.4388L155.703 57.4221L155.771 57.4292C155.924 57.1196 156.166 56.8808 156.498 56.7129C156.83 56.5449 157.19 56.4814 157.58 56.5224C157.654 56.5301 157.745 56.5412 157.855 56.5556C157.965 56.57 158.048 56.583 158.104 56.5946L157.997 57.6117C157.964 57.5997 157.888 57.5788 157.768 57.5491C157.651 57.5168 157.527 57.4937 157.394 57.4798C157.078 57.4465 156.788 57.4832 156.525 57.5899C156.266 57.694 156.052 57.8543 155.884 58.0709C155.718 58.2849 155.62 58.5388 155.589 58.8326L155.156 62.952L154.156 62.8469ZM164.397 64.0603C163.854 64.0033 163.39 63.816 163.003 63.4982C162.617 63.1777 162.333 62.7537 162.152 62.2261C161.97 61.6957 161.916 61.0858 161.988 60.3964C162.06 59.7127 162.24 59.1317 162.527 58.6534C162.814 58.1752 163.182 57.821 163.629 57.5909C164.076 57.3608 164.573 57.2745 165.121 57.3321C165.545 57.3767 165.872 57.4825 166.103 57.6496C166.337 57.8142 166.51 57.9923 166.621 58.184C166.736 58.3731 166.824 58.528 166.885 58.6487L166.97 58.6577L167.307 55.4537L168.307 55.5588L167.395 64.2383L166.428 64.1367L166.534 63.1366L166.415 63.1241C166.329 63.235 166.209 63.3738 166.054 63.5404C165.9 63.7041 165.689 63.8434 165.423 63.9582C165.157 64.0702 164.815 64.1043 164.397 64.0603ZM164.627 63.1761C165.028 63.2183 165.378 63.1494 165.677 62.9694C165.976 62.7866 166.217 62.5163 166.401 62.1585C166.584 61.7979 166.702 61.3718 166.754 60.8802C166.805 60.3942 166.779 59.9616 166.676 59.5822C166.573 59.2001 166.394 58.8928 166.138 58.6602C165.883 58.4249 165.552 58.2858 165.145 58.2431C164.722 58.1985 164.357 58.2702 164.052 58.458C163.749 58.6434 163.508 58.9137 163.328 59.2689C163.151 59.6217 163.038 60.0269 162.99 60.4846C162.941 60.948 162.968 61.3764 163.069 61.7698C163.174 62.1607 163.354 62.4825 163.611 62.7351C163.87 62.9852 164.209 63.1322 164.627 63.1761ZM171.265 64.7993C170.852 64.756 170.486 64.6389 170.166 64.4482C169.847 64.2546 169.604 63.9991 169.437 63.6817C169.271 63.3614 169.21 62.9894 169.254 62.5656C169.294 62.1926 169.399 61.898 169.57 61.6818C169.742 61.4627 169.957 61.2997 170.217 61.1928C170.477 61.0858 170.759 61.0154 171.062 60.9816C171.369 60.9453 171.675 60.9233 171.982 60.9155C172.383 60.9062 172.707 60.9018 172.956 60.9022C173.207 60.9 173.393 60.8724 173.513 60.8193C173.636 60.7665 173.705 60.6596 173.722 60.4985L173.726 60.4646C173.77 60.0465 173.689 59.7095 173.485 59.4538C173.283 59.1984 172.952 59.0465 172.492 58.9981C172.014 58.9479 171.629 59.0131 171.336 59.1936C171.042 59.3742 170.828 59.5774 170.693 59.8031L169.779 59.3643C169.991 58.9866 170.249 58.7023 170.555 58.5117C170.863 58.3185 171.191 58.1957 171.536 58.1435C171.885 58.0887 172.223 58.0785 172.55 58.113C172.759 58.135 172.997 58.1856 173.263 58.265C173.532 58.3418 173.785 58.4699 174.024 58.6492C174.265 58.8288 174.454 59.0815 174.591 59.4072C174.728 59.733 174.77 60.1544 174.715 60.6715L174.265 64.9603L173.264 64.8552L173.357 63.9737L173.306 63.9684C173.223 64.1025 173.095 64.2418 172.919 64.3862C172.744 64.5306 172.519 64.6455 172.245 64.7309C171.97 64.8163 171.643 64.8391 171.265 64.7993ZM171.512 63.9169C171.907 63.9585 172.249 63.9158 172.537 63.7889C172.827 63.6623 173.054 63.4834 173.219 63.2522C173.386 63.0212 173.483 62.7701 173.512 62.4989L173.608 61.5835C173.56 61.6299 173.462 61.6667 173.314 61.6939C173.168 61.7186 173.001 61.7367 172.811 61.7482C172.624 61.7572 172.442 61.7637 172.265 61.7679C172.09 61.7696 171.949 61.7718 171.84 61.7747C171.576 61.7813 171.328 61.8108 171.094 61.8634C170.863 61.9133 170.67 62.0059 170.516 62.1411C170.365 62.2738 170.276 62.4673 170.249 62.7216C170.213 63.0691 170.314 63.3453 170.552 63.5504C170.794 63.7529 171.114 63.875 171.512 63.9169ZM176.245 67.6365C176.075 67.6187 175.925 67.5887 175.796 67.5465C175.665 67.5071 175.576 67.472 175.528 67.4412L175.875 66.5865C176.111 66.6742 176.324 66.7193 176.512 66.722C176.7 66.7246 176.874 66.6586 177.034 66.524C177.197 66.3926 177.356 66.1679 177.512 65.8501L177.752 65.3612L176.033 58.5647L177.117 58.6787L178.369 64.0549L178.437 64.062L180.779 59.0636L181.864 59.1776L178.317 66.3461C178.157 66.6692 177.974 66.9313 177.767 67.1324C177.56 67.3363 177.329 67.4792 177.075 67.561C176.824 67.6431 176.547 67.6683 176.245 67.6365Z" fill="white"/>
<path d="M93.7641 30.9216C94.9326 29.8179 96.6459 29.5158 98.1214 30.1533L102.657 32.1127C103.453 32.4566 104.338 32.534 105.182 32.3336L109.989 31.1915C111.552 30.82 113.187 31.415 114.146 32.7048L117.094 36.6694C117.612 37.3652 118.34 37.8751 119.171 38.1233L123.905 39.5376C125.445 39.9977 126.563 41.3305 126.749 42.927L127.319 47.8345C127.42 48.6957 127.795 49.5015 128.391 50.1318L131.783 53.7235C132.887 54.892 133.189 56.6053 132.551 58.0808L130.592 62.6162C130.248 63.4121 130.171 64.2978 130.371 65.1414L131.513 69.9481C131.885 71.5119 131.29 73.1467 130 74.1058L126.035 77.0539C125.34 77.5712 124.83 78.2995 124.581 79.1303L123.167 83.864C122.707 85.4041 121.374 86.5224 119.778 86.7081L114.87 87.2789C114.009 87.379 113.203 87.7548 112.573 88.3501L108.981 91.7426C107.813 92.8462 106.099 93.1484 104.624 92.5109L100.089 90.5515C99.2927 90.2076 98.4069 90.1301 97.5634 90.3306L92.7567 91.4726C91.1929 91.8442 89.5581 91.2492 88.599 89.9593L85.6509 85.9948C85.1336 85.299 84.4053 84.789 83.5745 84.5409L78.8408 83.1266C77.3007 82.6665 76.1824 81.3337 75.9967 79.7372L75.4259 74.8297C75.3257 73.9685 74.95 73.1627 74.3546 72.5324L70.9622 68.9407C69.8585 67.7722 69.5564 66.0588 70.1939 64.5833L72.1533 60.048C72.4972 59.2521 72.5747 58.3663 72.3742 57.5228L71.2321 52.7161C70.8606 51.1523 71.4556 49.5174 72.7454 48.5584L76.71 45.6103C77.4058 45.093 77.9157 44.3647 78.1639 43.5339L79.5782 38.8001C80.0383 37.2601 81.3711 36.1418 82.9676 35.9561L87.8751 35.3853C88.7363 35.2851 89.5421 34.9094 90.1724 34.314L93.7641 30.9216Z" fill="#FF8833"/>
<path d="M103.056 31.1895L102.657 32.1127L103.056 31.1895L98.5203 29.2301C96.6759 28.4333 94.5342 28.8109 93.0736 30.1905L89.4819 33.583C89.0092 34.0295 88.4048 34.3113 87.7589 34.3864L82.8515 34.9572C80.8558 35.1893 79.1898 36.5872 78.6147 38.5123L77.2004 43.246C77.0143 43.8691 76.6318 44.4153 76.11 44.8033L72.1454 47.7514C70.5331 48.9503 69.7893 50.9938 70.2538 52.9486L71.3959 57.7553C71.5462 58.3879 71.4881 59.0522 71.2302 59.6491L69.2707 64.1845C68.4739 66.0289 68.8516 68.1706 70.2311 69.6312L73.6236 73.2229C74.0701 73.6956 74.3519 74.3 74.427 74.9459L74.9978 79.8533C75.2299 81.849 76.6278 83.515 78.5529 84.0901L83.2867 85.5044C83.9097 85.6905 84.4559 86.073 84.844 86.5948L87.792 90.5594C88.9909 92.1717 91.0344 92.9155 92.9892 92.451L97.7959 91.3089C98.4285 91.1586 99.0928 91.2167 99.6898 91.4746L104.225 93.434C106.07 94.2309 108.211 93.8532 109.672 92.4736L113.264 89.0812C113.736 88.6347 114.341 88.3529 114.986 88.2778L119.894 87.707C121.89 87.4749 123.556 86.077 124.131 84.1519L125.545 79.4181C125.731 78.7951 126.114 78.2488 126.635 77.8608L130.6 74.9128C132.212 73.7139 132.956 71.6704 132.492 69.7156L131.35 64.9089C131.199 64.2763 131.257 63.612 131.515 63.015L133.475 58.4797C134.271 56.6353 133.894 54.4936 132.514 53.033L129.122 49.4413C128.675 48.9685 128.393 48.3642 128.318 47.7183L127.748 42.8108C127.515 40.8151 126.118 39.1492 124.193 38.5741L119.459 37.1598C118.836 36.9736 118.289 36.5912 117.901 36.0694L114.953 32.1048C113.755 30.4925 111.711 29.7487 109.756 30.2132L104.95 31.3552C104.317 31.5056 103.653 31.4474 103.056 31.1895Z" stroke="#FF8833" stroke-opacity="0.2" stroke-width="2.01124"/>
<g clip-path="url(#clip0_1_1424)">
<path d="M104.496 75.1909C110.312 74.0605 114.107 68.418 112.974 62.588C111.965 57.3969 106.208 51.9511 102.364 48.8164C101.106 47.7905 100.477 47.2776 99.8505 47.4098C99.6628 47.4494 99.4647 47.5406 99.3124 47.6574C98.8043 48.0471 98.7823 48.8871 98.7384 50.5671L98.6069 55.5951C98.5843 56.4595 98.573 56.8916 98.4252 57.0425C98.2863 57.1843 98.0805 57.2376 97.8903 57.1811C97.6879 57.1209 97.4684 56.7486 97.0295 56.0038C96.3747 54.8931 96.0474 54.3378 95.6192 54.1681C95.2291 54.0136 94.7439 54.0629 94.3931 54.2927C94.0079 54.5449 93.8085 55.1282 93.4097 56.2947C92.1684 59.9253 91.3535 63.793 91.9149 66.6815C93.0482 72.5115 98.6811 76.3213 104.496 75.1909Z" fill="white"/>
</g>
<defs>
<clipPath id="clip0_1_1424">
<rect width="32.1798" height="32.1798" fill="white" transform="translate(83.0737 49.3047) rotate(-11)"/>
</clipPath>
</defs>
</svg>
