<svg width="132" height="24" viewBox="0 0 132 24" fill="none" xmlns="http://www.w3.org/2000/svg">
<path fill-rule="evenodd" clip-rule="evenodd" d="M0 11.6129C0 6.95294 0 4.62295 1.15564 2.94921C1.65592 2.22463 2.29879 1.60251 3.04752 1.11836C4.77705 0 7.1847 0 12 0C16.8153 0 19.2229 0 20.9525 1.11836C21.7012 1.60251 22.3441 2.22463 22.8444 2.94921C24 4.62295 24 6.95294 24 11.6129C24 16.2729 24 18.6029 22.8444 20.2766C22.3441 21.0012 21.7012 21.6233 20.9525 22.1074C19.2229 23.2258 16.8153 23.2258 12 23.2258C7.1847 23.2258 4.77705 23.2258 3.04752 22.1074C2.29879 21.6233 1.65592 21.0012 1.15564 20.2766C0 18.6029 0 16.2729 0 11.6129ZM8.83546 5.25189V7.9215L9.46241 6.95074H15.105V5.25189C15.105 4.86248 15.2042 4.64517 15.8573 4.64517H16.1081C16.7613 4.64517 16.8605 4.86248 16.8605 5.25189V17.8719C16.8605 18.2613 16.7613 18.4786 16.1081 18.4786H15.8573C15.2042 18.4786 15.105 18.2613 15.105 17.8719V16.173H8.83546V17.8719C8.83546 18.2613 8.73629 18.4786 8.08312 18.4786H7.83234C7.17916 18.4786 7.07999 18.2613 7.07999 17.8719V5.25189C7.07999 4.86248 7.17916 4.64517 7.83234 4.64517H8.08312C8.73629 4.64517 8.83546 4.86248 8.83546 5.25189ZM15.105 8.40689V10.8338H9.46241L8.83545 11.8046V8.40689H15.105ZM8.83545 12.2899H15.105V14.7169H9.46241L8.83545 15.6876V12.2899ZM40.0575 3.87096V9.86147H34.9295V3.87096H31.2V19.5178H34.9295V13.3038H40.0575V19.5178H43.7869V3.87096H40.0575ZM49.5945 15.2708H57.8693C57.9625 14.8461 58.0091 14.3991 58.0091 13.9296C58.0091 10.5544 55.4917 8.02855 52.0886 8.02855C48.4058 8.02855 45.8884 10.5991 45.8884 13.9296C45.8884 17.2602 48.3591 19.8307 52.345 19.8307C54.5594 19.8307 56.2842 19.0484 57.4264 17.5284L54.6293 15.9861C54.1631 16.4778 53.3473 16.8355 52.3916 16.8355C51.1096 16.8355 50.0374 16.4331 49.5945 15.2708ZM49.5246 12.7673C49.8509 11.6273 50.7367 11.0015 52.0653 11.0015C53.1142 11.0015 54.1631 11.4709 54.5361 12.7673H49.5246ZM68.3396 9.39206V8.34149H71.836V19.5178H68.3396V18.4672C67.5704 19.3166 66.4282 19.8307 64.8665 19.8307C61.813 19.8307 59.2957 17.2602 59.2957 13.9296C59.2957 10.5991 61.813 8.02855 64.8665 8.02855C66.4282 8.02855 67.5704 8.54266 68.3396 9.39206ZM62.792 13.9296C62.792 15.6061 63.9575 16.6567 65.5658 16.6567C67.1741 16.6567 68.3396 15.6061 68.3396 13.9296C68.3396 12.2532 67.1741 11.2026 65.5658 11.2026C63.9575 11.2026 62.792 12.2532 62.792 13.9296ZM82.8622 3.87096V9.39206C82.093 8.54266 80.9509 8.02855 79.3892 8.02855C76.3357 8.02855 73.8183 10.5991 73.8183 13.9296C73.8183 17.2602 76.3357 19.8307 79.3892 19.8307C80.9509 19.8307 82.093 19.3166 82.8622 18.4672V19.5178H86.3586V3.87096H82.8622ZM80.0885 16.6567C78.4801 16.6567 77.3147 15.6061 77.3147 13.9296C77.3147 12.2532 78.4801 11.2026 80.0885 11.2026C81.6968 11.2026 82.8622 12.2532 82.8622 13.9296C82.8622 15.6061 81.6968 16.6567 80.0885 16.6567ZM100.065 14.332L101.744 8.34149H105.473L101.744 19.5178H98.4804L96.6157 13.5497L94.751 19.5178H91.4877L87.7582 8.34149H91.4877L93.166 14.332L94.9841 8.34149H98.2473L100.065 14.332ZM114.867 8.34149V9.39206C114.098 8.54266 112.955 8.02855 111.394 8.02855C108.34 8.02855 105.823 10.5991 105.823 13.9296C105.823 17.2602 108.34 19.8307 111.394 19.8307C112.955 19.8307 114.098 19.3166 114.867 18.4672V19.5178H118.363V8.34149H114.867ZM112.093 16.6567C110.485 16.6567 109.319 15.6061 109.319 13.9296C109.319 12.2532 110.485 11.2026 112.093 11.2026C113.701 11.2026 114.867 12.2532 114.867 13.9296C114.867 15.6061 113.701 16.6567 112.093 16.6567ZM126.079 15.1814L128.271 8.34149H132L128.014 19.1825C126.709 22.7366 124.634 24.1448 121.371 23.9883V20.859C123.003 20.859 123.772 20.3672 124.285 19.0037L119.646 8.34149H123.492L126.079 15.1814Z" fill="#0066FF"/>
</svg>
