<svg width="303" height="16" viewBox="0 0 303 16" fill="none" xmlns="http://www.w3.org/2000/svg">
<path d="M6.61435 2.77292C7.04719 1.69505 7.26362 1.15611 7.5728 0.996883C7.84095 0.858787 8.1593 0.858787 8.42745 0.996882C8.73664 1.15611 8.95306 1.69505 9.3859 2.77291L10.414 5.33302L13.1665 5.51965C14.3253 5.59823 14.9048 5.63752 15.1517 5.88236C15.3659 6.09471 15.4643 6.39749 15.4158 6.69518C15.3599 7.03844 14.9143 7.41081 14.0229 8.15555L11.9058 9.92441L12.5789 12.5999C12.8622 13.7263 13.0039 14.2895 12.8474 14.6001C12.7116 14.8694 12.4541 15.0565 12.156 15.1024C11.8122 15.1553 11.3204 14.8465 10.3366 14.2289L8.00013 12.762L5.66361 14.2289C4.67988 14.8465 4.18801 15.1553 3.84429 15.1024C3.54618 15.0565 3.28863 14.8694 3.15286 14.6001C2.99632 14.2895 3.13801 13.7263 3.42139 12.5999L4.09445 9.92441L1.97734 8.15555C1.08598 7.41081 0.640303 7.03844 0.58441 6.69518C0.535935 6.39749 0.634312 6.09471 0.848512 5.88236C1.09549 5.63752 1.67493 5.59823 2.8338 5.51965L5.58629 5.33302L6.61435 2.77292Z" fill="#FF8833"/>
<path d="M24.6144 2.77292C25.0472 1.69505 25.2636 1.15611 25.5728 0.996883C25.8409 0.858787 26.1593 0.858787 26.4275 0.996882C26.7366 1.15611 26.9531 1.69505 27.3859 2.77291L28.414 5.33302L31.1665 5.51965C32.3253 5.59823 32.9048 5.63752 33.1517 5.88236C33.3659 6.09471 33.4643 6.39749 33.4158 6.69518C33.3599 7.03844 32.9143 7.41081 32.0229 8.15555L29.9058 9.92441L30.5789 12.5999C30.8622 13.7263 31.0039 14.2895 30.8474 14.6001C30.7116 14.8694 30.4541 15.0565 30.156 15.1024C29.8122 15.1553 29.3204 14.8465 28.3366 14.2289L26.0001 12.762L23.6636 14.2289C22.6799 14.8465 22.188 15.1553 21.8443 15.1024C21.5462 15.0565 21.2886 14.8694 21.1529 14.6001C20.9963 14.2895 21.138 13.7263 21.4214 12.5999L22.0945 9.92441L19.9773 8.15555C19.086 7.41081 18.6403 7.03844 18.5844 6.69518C18.5359 6.39749 18.6343 6.09471 18.8485 5.88236C19.0955 5.63752 19.6749 5.59823 20.8338 5.51965L23.5863 5.33302L24.6144 2.77292Z" fill="#FF8833"/>
<path d="M42.6144 2.77292C43.0472 1.69505 43.2636 1.15611 43.5728 0.996883C43.8409 0.858787 44.1593 0.858787 44.4275 0.996882C44.7366 1.15611 44.9531 1.69505 45.3859 2.77291L46.414 5.33302L49.1665 5.51965C50.3253 5.59823 50.9048 5.63752 51.1517 5.88236C51.3659 6.09471 51.4643 6.39749 51.4158 6.69518C51.3599 7.03844 50.9143 7.41081 50.0229 8.15555L47.9058 9.92441L48.5789 12.5999C48.8622 13.7263 49.0039 14.2895 48.8474 14.6001C48.7116 14.8694 48.4541 15.0565 48.156 15.1024C47.8122 15.1553 47.3204 14.8465 46.3366 14.2289L44.0001 12.762L41.6636 14.2289C40.6799 14.8465 40.188 15.1553 39.8443 15.1024C39.5462 15.0565 39.2886 14.8694 39.1529 14.6001C38.9963 14.2895 39.138 13.7263 39.4214 12.5999L40.0945 9.92441L37.9773 8.15555C37.086 7.41081 36.6403 7.03844 36.5844 6.69518C36.5359 6.39749 36.6343 6.09471 36.8485 5.88236C37.0955 5.63752 37.6749 5.59823 38.8338 5.51965L41.5863 5.33302L42.6144 2.77292Z" fill="#FF8833"/>
<path d="M60.6144 2.77292C61.0472 1.69505 61.2636 1.15611 61.5728 0.996883C61.8409 0.858787 62.1593 0.858787 62.4275 0.996882C62.7366 1.15611 62.9531 1.69505 63.3859 2.77291L64.414 5.33302L67.1665 5.51965C68.3253 5.59823 68.9048 5.63752 69.1517 5.88236C69.3659 6.09471 69.4643 6.39749 69.4158 6.69518C69.3599 7.03844 68.9143 7.41081 68.0229 8.15555L65.9058 9.92441L66.5789 12.5999C66.8622 13.7263 67.0039 14.2895 66.8474 14.6001C66.7116 14.8694 66.4541 15.0565 66.156 15.1024C65.8122 15.1553 65.3204 14.8465 64.3366 14.2289L62.0001 12.762L59.6636 14.2289C58.6799 14.8465 58.188 15.1553 57.8443 15.1024C57.5462 15.0565 57.2886 14.8694 57.1529 14.6001C56.9963 14.2895 57.138 13.7263 57.4214 12.5999L58.0945 9.92441L55.9773 8.15555C55.086 7.41081 54.6403 7.03844 54.5844 6.69518C54.5359 6.39749 54.6343 6.09471 54.8485 5.88236C55.0955 5.63752 55.6749 5.59823 56.8338 5.51965L59.5863 5.33302L60.6144 2.77292Z" fill="#FF8833"/>
<path d="M78.6144 2.77292C79.0472 1.69505 79.2636 1.15611 79.5728 0.996883C79.8409 0.858787 80.1593 0.858787 80.4275 0.996882C80.7366 1.15611 80.9531 1.69505 81.3859 2.77291L82.414 5.33302L85.1665 5.51965C86.3253 5.59823 86.9048 5.63752 87.1517 5.88236C87.3659 6.09471 87.4643 6.39749 87.4158 6.69518C87.3599 7.03844 86.9143 7.41081 86.0229 8.15555L83.9058 9.92441L84.5789 12.5999C84.8622 13.7263 85.0039 14.2895 84.8474 14.6001C84.7116 14.8694 84.4541 15.0565 84.156 15.1024C83.8122 15.1553 83.3204 14.8465 82.3366 14.2289L80.0001 12.762L77.6636 14.2289C76.6799 14.8465 76.188 15.1553 75.8443 15.1024C75.5462 15.0565 75.2886 14.8694 75.1529 14.6001C74.9963 14.2895 75.138 13.7263 75.4214 12.5999L76.0945 9.92441L73.9773 8.15555C73.086 7.41081 72.6403 7.03844 72.5844 6.69518C72.5359 6.39749 72.6343 6.09471 72.8485 5.88236C73.0955 5.63752 73.6749 5.59823 74.8338 5.51965L77.5863 5.33302L78.6144 2.77292Z" fill="#FF8833"/>
</svg>
