<svg width="25" height="24" viewBox="0 0 25 24" fill="none" xmlns="http://www.w3.org/2000/svg">
<path fill-rule="evenodd" clip-rule="evenodd" d="M4.5 10C4.5 9.44772 4.94772 9 5.5 9H15.5C16.0523 9 16.5 9.44772 16.5 10C16.5 10.5523 16.0523 11 15.5 11H5.5C4.94772 11 4.5 10.5523 4.5 10ZM4.5 6C4.5 5.44772 4.94772 5 5.5 5H19.5C20.0523 5 20.5 5.44772 20.5 6C20.5 6.55228 20.0523 7 19.5 7H5.5C4.94772 7 4.5 6.55228 4.5 6ZM4.5 14C4.5 13.4477 4.94772 13 5.5 13H19.5C20.0523 13 20.5 13.4477 20.5 14C20.5 14.5523 20.0523 15 19.5 15H5.5C4.94772 15 4.5 14.5523 4.5 14ZM4.5 18C4.5 17.4477 4.94772 17 5.5 17H12.5C13.0523 17 13.5 17.4477 13.5 18C13.5 18.5523 13.0523 19 12.5 19H5.5C4.94772 19 4.5 18.5523 4.5 18Z" fill="white"/>
</svg>
