<svg width="20" height="20" viewBox="0 0 20 20" fill="none" xmlns="http://www.w3.org/2000/svg">
<path d="M1.66663 4.99984C1.66663 4.5396 2.03972 4.1665 2.49996 4.1665H17.5C17.9602 4.1665 18.3333 4.5396 18.3333 4.99984C18.3333 5.46008 17.9602 5.83317 17.5 5.83317H2.49996C2.03972 5.83317 1.66663 5.46008 1.66663 4.99984Z" fill="black"/>
<path d="M1.66663 9.99984C1.66663 9.5396 2.03972 9.1665 2.49996 9.1665H17.5C17.9602 9.1665 18.3333 9.5396 18.3333 9.99984C18.3333 10.4601 17.9602 10.8332 17.5 10.8332H2.49996C2.03972 10.8332 1.66663 10.4601 1.66663 9.99984Z" fill="black"/>
<path d="M2.49996 14.1665C2.03972 14.1665 1.66663 14.5396 1.66663 14.9998C1.66663 15.4601 2.03972 15.8332 2.49996 15.8332H17.5C17.9602 15.8332 18.3333 15.4601 18.3333 14.9998C18.3333 14.5396 17.9602 14.1665 17.5 14.1665H2.49996Z" fill="black"/>
</svg>
