<svg width="20" height="20" viewBox="0 0 20 20" fill="none" xmlns="http://www.w3.org/2000/svg">
<path d="M12.5001 7.49984C12.5001 8.88055 11.3808 9.99984 10.0001 9.99984C8.61937 9.99984 7.50008 8.88055 7.50008 7.49984C7.50008 6.11913 8.61937 4.99984 10.0001 4.99984C11.3808 4.99984 12.5001 6.11913 12.5001 7.49984Z" fill="black"/>
<path fill-rule="evenodd" clip-rule="evenodd" d="M18.3334 9.99984C18.3334 14.6022 14.6025 18.3332 10.0001 18.3332C5.39771 18.3332 1.66675 14.6022 1.66675 9.99984C1.66675 5.39746 5.39771 1.6665 10.0001 1.6665C14.6025 1.6665 18.3334 5.39746 18.3334 9.99984ZM3.33341 9.99984C3.33341 11.3905 3.75922 12.6817 4.48755 13.7502C5.95663 12.4534 7.88646 11.6665 10.0001 11.6665C12.1137 11.6665 14.0435 12.4534 15.5126 13.7502C16.2409 12.6817 16.6667 11.3905 16.6667 9.99984C16.6667 6.31794 13.682 3.33317 10.0001 3.33317C6.31818 3.33317 3.33341 6.31794 3.33341 9.99984ZM10.0001 16.6665C8.30934 16.6665 6.7656 16.0371 5.59037 14.9998C6.7656 13.9626 8.30934 13.3332 10.0001 13.3332C11.6908 13.3332 13.2346 13.9626 14.4098 14.9998C13.2346 16.0371 11.6908 16.6665 10.0001 16.6665Z" fill="black"/>
</svg>
